<mxfile host="Electron" agent="Mozilla/5.0 (Windows NT 10.0; Win64; x64) AppleWebKit/537.36 (KHTML, like Gecko) draw.io/28.0.6 Chrome/138.0.7204.100 Electron/37.2.3 Safari/537.36" version="28.0.6">
  <diagram name="Page-1" id="huf5PybHdpz14lMy3S9H">
    <mxGraphModel dx="1042" dy="626" grid="1" gridSize="5" guides="1" tooltips="1" connect="1" arrows="1" fold="1" page="1" pageScale="1" pageWidth="827" pageHeight="1169" math="0" shadow="0">
      <root>
        <mxCell id="0" />
        <mxCell id="1" parent="0" />
        <mxCell id="eP6nw5wjm52sRNoZTNny-94" value="" style="rounded=0;whiteSpace=wrap;html=1;strokeColor=none;" vertex="1" parent="1">
          <mxGeometry x="100" y="619" width="675" height="321" as="geometry" />
        </mxCell>
        <mxCell id="gtkOJ3tAxyh9CTiIysoa-1" value="" style="shape=image;verticalLabelPosition=bottom;labelBackgroundColor=default;verticalAlign=top;aspect=fixed;imageAspect=0;image=data:image/png,iVBORw0KGgoAAAANSUhEUgAABLwAAAI7CAYAAADmuoJgAAAAAXNSR0IArs4c6QAAAARnQU1BAACxjwv8YQUAAAAJcEhZcwAADsMAAA7DAcdvqGQAAP+lSURBVHhe7N0JYFTV2T7wN4uC7Ydg/7WgWAlKBK0K7SeyWQNY2awsWrC2yqYmalVAxRXZROtOYl0gVgXctcrSSsCFxZbFYiv4WRogSugniPVrBamCSjL/93nPuZNJMjNZCMlk8vzg5N6528yce+7NPW/OPTclpISIiIiIiIiIiChJpPohERERERERERFRUmDAi4iIiIiIiIiIkgoDXkRERERERERElFQY8CIiIiIiIiIioqTCgBcRERERERERESUVBryIiIiIiIiIiCipMOBFRERERERERERJhQEvIiIiIiIiIiJKKgx4ERERERERERFRUmHAi4iIiIiIiIiIkgoDXkRERERERERElFQY8CIiIiIiIiIioqTCgBcRERERERERESUVBryIiIiIiIiIiCipMOBFRERERERERERJhQEvIiIiIiIiIiJKKgx4ERERERERERFRUmHAi4iIiIiIiIiIkgoDXkRERERERERElFQY8CIiIiIiIiIioqTCgBcRERERERERESUVBryIiIiIiIiIiCipMOBFRERERERERERJhQEvIiIiIiIiIiJKKgx4ERERERERERFRUmHAi4iIiIiIiIiIkgoDXkRERERERERElFQY8CIiIiIiIiIioqTCgBcRERERERERESUVBryIiIiIiIiIiCipMOBFRERERERERERJhQEvIiIiIiIiIiJKKgx4ERERERERERFRUmHAi4iIiIiIiIiIkgoDXkRERERERERElFQY8CIiIiIiIiIioqTCgBcRERERERERESUVBryIiIiIiIiIiCipMOBFRERERERERERJhQEvIiIiIiIiIiJKKgx4ERERERERERFRUmHAq1a2S8GmXMnZ9LYU+SlNy8H+/n7777zcRPOXiIiIiIiIiA5ESkj58Uap4J0JMuNz/yKsnUzqOl4GtvAv69zbkrPwLsmXLFk8RN/HT62oYT5bfaje96+9YPsZktt3poxr1HlFRERERERERPWtkbfw2i6bPy+W1Xsqpm2y2S/RcBL5sxERERERERERJa+kuaUxu+t8CQ0JUvRWQUV7tvux6KqaLzq/NrfYVfXZ8L7V224Vn69a9L32+NG4orxXLb9/fNX9PDVX5f4kIiIiIiIioqTUBPrw2i5570yQlIXDJHPZVTbs9U5k31NVzVd7XpacZcMkRedn2vw1fsaBKP++2G7KslzJKxf8wa19mP6yFGzCsu7z2WfcVBbMKXgn9rScHf61rt/L1tX3wnepsHzU99Jxy4cafX/9Xn77wXubHbk2Ldhm1Z8nkv9sCydE5E8wLVcK/BSnGvuTiIiIiIiIiJJakge8EHy5SsZvL5aebW+SxV1vkuwWIqu33yWjLLhS1XzQZdY9LfkItLTIkOy2GTpppeS7mbVU9r7SIktyO12k76vb3bNSxi+rGMBRe56WQYW6rOgy3uo9H/mxt2WB/6iVp2XISdaaTF9jfbyXfsfFnbKkp05dXXhfhQCbqvReNf3+beUcLKPyd7xtQyjas82GPdt2lw41+Tw1Up39SURERERERETJrpF3Wu8DHJWCJL4z9T0vS69lT8vqFhfJlr7nSwfMipzWVWRUvPmYFryO7KA92rRK4ny2vt+XGZXWL1set0DOPhrTgs7bRXp2ekhWdWxb+b3Dr6HCtMjvVQFagA3aXsV7QW2+f6X5wXeL3Ql9+c8TfJZg+YqvsUYwLcrnirc/dVJhYaHs3LkTc4mIiJqE5s2bS/fu3f0rIiIiouSXNAGvni2y5OTD/WTpIRNP6yYdcBvdupU2pSdaUBl0HK8DBEA6/a9kxpuPAEmwjXLBoyjBlkrifLaj17j3LbfNsqBPWcApWqCnfGBs4p4JklmI98DndsudswPTissHrnS9gk0vyYI92+T9z9EaDK24ogW8KgSlavX9KwTvWkQJRMX9PBU/S7TPFuUzVLW/9b2P2bdPLrzwQtm1a5ebTURE1ATgjz2PPvqoDB061E8hIiIiSm5JE/AqC9xECAdrMiT78HZ+otdiuMxu8VL8+QgW1UHAq9Jni7rN6ga8RIo2BQGtm2TSnrtk0Oe6HR+8w7QR2+/S940WHCoLvr3/+UoLBB2cgFfZZ5S2N8mWFs9XCMBV9XkqfpZony3KZ6hqf4eDf0RERE3LmDFjJCsrS0aPHu2nEBERESW3JtBpPZwhE08bL7MjU7ngR5z5Lb5v/UvJnv+VLTZB7flI3vejByRym7JdNn/uxk5uET8w06GFC+as3v68zEDXVIcfIx2O7iHZftqL1qLpDDknHLRaY8ElBJ9W9XXfb1K4xVkVavn9Oxx9hltv+xq5F32VSYaMONp/rwP5PIG4n6Gq/U1EREREREREySy5A15HD5dcBH32PC2j8ATEHW9LwY6XJeedCZKDTsyrmg8tjpGTbWSlDNJlMM/1T3UAgvf128zbhKcgutZgaEk1MbI1WDQ+uCV7iu1zZB/dTX8e4zqo99MsCIZhpO1rJG8PbiWcYC3JqqW2379Fdxnhv6Pr8D4iABeo9ufx302KZfw63Td4CmO0z1Cd/UlERERERERESS/JW3i1lXHBk/rwBMR1d8kgPHEQsQ8LoFQ1H7rJ7L4X+VZOK3Weu00v94AaDJW9rz2ZsTB4CmKWLO5adotjbN1kaPj9gycxlj0dEVwQzEMgyObhKZBXyaBCnd82y82rUm2/f/nP457O6NX48yC/gs9QbJ/BnsJY6TNUZ38SERERERERUbJr5H141cR2KbKgUtsYAaWq5ovO3x53fu1U/b51B++l71PL4E/df/+afx58hg76GapWn/lKRESU2NiHFxERETU1TSjgRURERNQ0MeBFRERETU0T6bSeiIiIiIiIiIiaCga8iIiIiIiIiIgoqTDgRURERERERERESYUBLyIiIiIiIiIiSioMeBERERERERERUVJhwIuIiIiIiIiIiJIKA15ERERERERERJRUGPAiIiIiIiIiIqKkwoAXERERERERERElFQa8iIiIiIiIiIgoqTDgRURERERERERESYUBLyIiIiIiIiIiSioMeBERERERERERUVJhwIuIiIiIiIiIiJIKA15ERERERERERJRUGPAiIiIiIiIiIqKkwoAXERERERGZorxektIrT4r86/KKJK9XSpz51VEX2yAiIqoaA15ERERERFQNHeSEk0V6jjhHx2oryjYKciQlJUcK/EsiIqK6wIAXERERERFVy8DZIVk1rvbhLqiLbRAREVWFAS8iIiIiIqqWgpwUSclxbbEw3iuvyE1L8cnm+dsW/TQsE6niNlIG5etYvgyy5XtJ5OLltq3Jr2YqvX/kTCIiavIY8CIiIiIiolpZPT5TBsliCYVCElqcLZI/SFJSMuXFEVts2pbcnrrMqHJBrEho7WXrSbYsxjZCqyRo/IVA1qD8YLpbLn9Q+YCYvf/7ubIF82cP9FOJiIgY8CIiIiIiotrKXlwWaBo4VBC66pm7JXzLYodzRkhPWS0bt9jLGiiQBfnY/GwJh7EGTpTcnqvlxVcjIl49c2XLqnEH0KcYERElKwa8iIiIiIioDmTKST39aKDDCXKyH62Ros3yvg7yB0Xe0pgp41eLrI6Mnp18AoNdREQUFQNeRERERESUgHpK7hZ/O2Nk4q2LRERUDQx4ERERERFRAqrNrZBEREQOA15ERERERNTA3pfNkR3bdxgnk6wP/Bwp/+zFIimK0QE+ERFRJAa8iIiIiIiozOrxkhnuNwupYtCpjlln96tlfCbeq+wpjANnb5HcnvkyqNxnGSWvutlERERxpYRwIzwRERERJa0xY8ZIVlaWjB492k8hIiIiSm5s4UVEREREREREREmFLbyIiIiIkhxbeFE0O3fulMLCQv8qOXXq1EnatGnjXxERUVPCgBcRERFREtm3b5+sXbvWv3Luvvtu6dy5swwYMMBPEWnevLl0797dv6KmaODAgRb0atWqlZ+SXHbt2mXBrsUFBSJa40lJ8TOIiKhJYMCLiIiIKMlMnTpVpk2b5l9VhmDX/PnzywXAqOnp3aePTJk8WbJ69xFXJUiuiNDKlctl+vTpsmzZcvfN9AdjXkRETQf78CIiIiJKMgh4TZkyxb8qj8EuglLEtzSVaPqmpFT268h+G0ZPpcEKCZKifcbKSZcMuWVL/d/43U8iImoKGPAiIiIiSkLRgl4MdhEg9hPc5FFaKlJiKST7NSEAVqLzKibcDpiWmpIwKdpnjEz2XTTpqAX3kEL6gy28iIiaDga8iIiIqH5s6yWyLiJtzBH5tMjPpIMhMujFYBcFQr6dE36i5ROCQqGUFElB0mn4WfFfoon8bFH/2fdxyyKohxZq+L7szYWIqOlgH15ERESNGDqcXrBggQ3h7bffloyMDGndurW9zurdW3pn9U6AzpqLRNZlinzpX0b6Vq5I13H+RQLYqJn1qQ4ztoi06+CmNTLorBvlori42F6/9NJL0rZtW+nZs6e97tyliwwdMjQBygXVNwtu+WHfvr3l5lsny4/PzJJUtJzS8uACRZULhs62dCCCake07dfU/lI/UkG45ZoOVq5YITNunyZLXl9mrcLSNeE7sNwTETUNbOFFRETUyCCYkZubKz/84Q8tbdiwwaajmnfNNePk1FM7uwqtJnRcfvTRR8mYMWNkuVb+EuLPXCfph8jS1DXXvf5yvAsw1daXVbUS0/nRAm1hydHKDE9nnDVrlvTp00fat28vK1euDAc3Zsy4Qy688BfhcjF37lz5zneO0GkXyvwFC2waNUVBS6gUqxQg6IWAEFKaTohMmHagXnvtNXnggQdkx44dfkrtVfx85VNZcMskxImPiIjqG1t4ERERNSIIdM2ePdtuS7t45Ejp3LmLTk0R3KxT8Tc66nqY9MknO+W1pUtk3tx50qpVK5k58wHJaN/e5tefiBZeCHgdWWFatVtTFYisHORahX1vo0hxvp/eU7e7ym/Xwy2Uxav9C8/eR1N4Gy+6ZayV2TnRW6GFP2/iQmuum2++WXr37i0jRoyQM7N623Ts/0rlIkXLi07cvXuXlYsXX3jRxn/9619Lt+7d67lcUH1DeQjKBVp43TJpspx5Zm9JSxNJQ+ALUSKddzBaQc2YMcNuq33yySfl1FNP9VPrllVt9MPjFsbly1fI7Wjh9doyC36lp6Xa8GB8NyIiSjypfkhEREQJrLCwUE488UTZtm2bvLlsudx3/wNaYexinTJbZ9N4wlp4vDSiA+qQHPm9NnLRyNHy+pvL5OJRI7WS21dyZ860iiHqho0SWoUh2PWtbE2YsNr1CRZW4ANZOv+kxSIZOoTiUWUBLdsGAmLuNj+RDiLfDsZBx78V+TrxoLUfWnShxdarixfLQw8/Ij8+s7ff/74zct3HlcuFSIvDW8nPhv9cXnr5FZk0ebKMnzBBrrjiCmsp1mjLBdUSOnMvu5XxYAWEsP20tLTw+0T6/PPP7RbcrVu3VkqfffaZX6pqZd9Bh+G3YYEmImqKGPAiIiJKcEuWLLFbEl9+5RULdH3ve60taIGk/y2oheocghR4jVpeMI5WDuiUuqQEwTCRn547RDZt+UCKt/3DbnFrkODGlwUin+ZFtKbKrl1fWSdtEek6W9NiPyE/4tbIgf62SZ1/pI63wxDTV4t8YQs4aPGVtUqX832IRbYSy5ir0yu0Gksg69evt2DX5MmTtWzMl2OPzbB9HgS0gn3vhlgjpaxM+Hn2RDsdP+PHWfLWH1fZ7bADBg60QFq9l4soivJ6WeCiLOUglFkjlbdRtp1486or2jZyavohE8lB3O9B/kSzePFiueSSS+Tiiy+W0aNHWxo5cqRNQwvGkpISvyQREVH1MOBFRESUwObMmSO5eXny6uICOaFjJ9daRxOCEaiXYqhVSGvIkKq/1XG7jvXDY8mNB9VLhMWC4Me99z0g5w4eLH369rHWE9hWvSkeJLJxvAt2oQUWglI11lPk20GQbGBZUKpcf146vi1H38s/FbJSP2G6jSMbZ6f0CIKiNRYCXWdm9bGgVZBsX0bs0Mhygb6NXLnwjV90OSxqT7HTkUsuy5YZd9xp5WJr8db6LRex9MyVLVrQQ6HFki35MiglRXrl1bDftfA2gjQbpcaJN6+6wtvYIrlarPIHIbDTS2r6MZuiL774Qp555hl57733rE/C7t27S9euXS2dfvrpctppp9kDF2IFyoiIiGLRyx0iIiJKRCtWrJDnX3jBghotDm9pwQy0ykGlHFD9swBGSsh11KwVwvQ0l/AanTZjWjjIYUEP96sfLXt+NuICmTjxBhk7dqyr6NucemAts5D0HRHsslsS61qByMpMd9vjFyeLfFvTQXmf+ofbW/EwAgRBj23XrnygS2EPY1+7jrsrlws8ic+VC5QHt2wKVlIIep3WtZs89vgT8otf/EL27t2bGEEvM1BmazldnC2yevy95VthFeRISq+8g/v4gWq9RwcZtyoIfK2W8Zk1b5HW1Hz55Zf2sIXdu3fL3XffLffdd1843X///XLPPfdIv379wucuIiKi6uJvDiIiogSEvmwmTJggzzzznBx6aPNyQS40dEBrHQto6W9yBDbStDIYBL3wy92GFvRw892yvsNmvx1s8qeDh8opp3aWqVOn1WPQq4PIt5D8y1qJvDWxoKz1FrYLny5wwyMXu6DaSZq+7SY1ZrjVELe3/vbxJ8oFQW2f2v52wU0rExbgqlwuXHlx8w7BfExDuUCydxE55ZTOcv3EG+QXeLKjForECXqJZJ6U2P2qOR1k3Nxc6Sn5MoPNvGIqLS21QNdhhx0m3/52EhygRESUUHDtQ0RERAlm2LBh8vjjT1pQA4Go4DZGBCSCAIXdtuiHLljhwhU27l/bPx23AIcOsTwCIRhiOraNDstfW7pU1qxZW49BrzqwUb8AOqpfN8hPyK7c3xYCX7jNEU9srHRLYwxBx/Xo4B7br+569eCmm2+2p3Pi9lbX2k8n2r50QSzbv9jXeoVn+9hm46fb32XlIniN1oFYPlXSfXAM6wH6ezs2o53k5voHHLjJDW7LxtUiPU+STP86YXU4R0ZoUVq9cYufQBW988479uTZs846S4YPH27lmIiIqK4w4EVERJRgnnvuOenYsZOc0rmzvcbth6gGIhCRqhXCsgAXAhY+eGHjLgWC1xGTXHBDJ6alpYa3g6DJgw8/Ir+68koXQNFkw4SG/reyRT7N9x3f6+vIvsCOnKgJgSudj87xizFNl6+OdpN867PVbvsJ4t1318vba9dKds7lFnwK9pErE24/Y9z+2TCiDOCFF55m424GBtiGre/nw/XX3yAPPvigfLkXDzfwAbYGVJCTIoN0l2RPGod2gtW3erxk2nfzKfLWxHjzqM7h1sSvv/5ay/O78tprr1ln9Oeee6712cXbFomIqC7xtwoREVEC2bt3n9xyyy32NEYEGILb1VwrnLKWWUFgoibCy+sQrb3c7W2pkqIbxW2N7TLa2dPQXEyjriMbHVyfXXhyYl099TBjtm7P9wWGJy2Wu0VS3w9PXIycj9sa7f39ExwrrRPQ+da/mK5bl5/3AKAsTJs+TW6bPMWeuImHD+gns6Cltdzz49jHtSkXwSooV+42SBdY/V7rNnLu4CEye9ashgt2RQSkBuX3lNwtIZmNXuXRp5afnoIoWGTgqmLQqmLH9KsiAmbx5tXkPaha0tPT7emwTzzxhGzatEluvfVWOfHEE/1cIiKiusOAFxERUQJBwKlbt+7yvdatrQNxsECGDi2hom1Taw/rB7GLFB1ztzqmyHXX32AdRNutcjanvhW5WwjjpUq3F3aooi+wqubHEfQHlgD+XrhJNhUWWvAp2C8IWGrRcOXCl5FYioqqDs0E62PoWoq5sodWXvfe68qFKxv1rFxAapWMC3bLwNllQSr0ZB+5XGTQ6kAc0HtsEXf3ZcLffFmvcA5LS0uzp8PioQjf/e53bRoREVFdY8CLiIiogaBj+khah5aFixbKuYMHW7ALgQXUA4PAgwW7KtYLi4ritjKJFejAZmzb2Ka9Dsnp3brLJzt3ytatW61Cbx+oXm1xtxDGS1/u8Msmr8rlIiQvvPC8DB9xgWvZ5XdLtYNdeb0kMzNTelWj8/SgfGEQbL/1UW2kY8eOsmL5Shfsqu9i0UgV5c2QfOkpI85JjMDpTj220bKqIeGWxX/84x9anl+Q4447zvoqRPCLiIjoYGDAi4iIqIH06dOnXHBjr1ZGly5ZIj9FKx4EFfQHAg4uBqHjbqRMUZ70ysy0W6xyFleMTxVJXq8UC3RgXjS2bf2BZMENTWf376+fYakPuNV3K6/gVsM4qd0lfjzW7YiNH4IA69ev96/cfsBDBc7u19/tj4j9FbTEissXDAxcKguaRYPtQrhloS78k7P7yWuvL7X1GqSVV6Pij73xqyV7cUSLtAZWWFhoZashg16HHnqobNu2zW5nxLnpl7/8pRxyyCF+LhERUd1iwIuIiKiBINgVBL0QhHh77Rrp3LmLNGvW3IIaQYuuoKVNJR3Gydxc90TB/Bm58oGNIUCCWNgo0fq23YJ1/UAX4IgWpLCABpK+ES4KzjwzS956y7XksVZeVO927dpl5SIIen311T4bP71bN9sv2F/V7cPN7UO/oI6W2H2yeB1/3wbbtvKXmipnZvWWt1auLAt2JVrZwK2HdXUbYyzx3qNcx/eZeuxly2LNI+trLIEsWbJEzjvvvDoJeqGz+T179lh53b17d5UJy37xxRe2Ljqtx/h//vMf+fzzz6MuH5m++uorW4+IiKgmUvRCKMGuWIiIiJoGVI4hIyND3ly2TDasXy9z5s6T51982WIS1rF8qus83McfyrFWWKEiyTsjU65bI9Jj5hb50zXHS0rqEslJGSSPSU+5f/Of5OrjyoJmQRAtEq4EEMYoLRVZtmKFzJg+TV5/c5kFVdLx3tHenA6a9u3bWxC0VatWsmzZcjm8ZUs566y+Urj5Aws2YV9iv9g+rWLnIEC1Je8M6TRhtXS/f7OsuKaD67MtFeUh/r61K0Sdj9soP9i6VfqddZYUbvlA0nUDrjyxbDQmK/TYRiAVe67/gAHy8suvyKBBA+SWSZMt0J2e5h5WgF1anf2K26Xvv/9+u1WyqlZaCJo2b95c3n//ffnLX/5i0370ox9Jhw4ufBirOlKqJyVsG0E6pOre/oitYZPLli+X2/V8tuS1N935DE+nRdlluSUiahLYwouIiKiBIbhxVt++Whn8m7Ru3TrcgsYFp7RmFqUu6CahE/Hj5cqbL7NXayaMlJmbQ/JqNoJdIt3vnyNXZoSsVQ+e7GeVQFuyPLxFELw4qk0b+eSTT3wwza8TbSU66NBypm/fPvKnP/5Ry0Ubt+/0RzjIFQwrQr9uPn34wQeyxe/10tAm2by5SDZvKZIPdPoHH8TfsVb0/CJt9P0/+WSnvQ6SRUaoUVq6dKkMHz7cAkoHIiiLwbkqWsJTGdGaa+HChRbs+n//7//JOeecY/3CBaKtFyTg3+eJiKg22MKLiIiSWtBapjFol5EhF108Um6ZNMVaIaC1BVrygK/3lYOWN/v1t/j+klIpuDJdfva4TuzeQ2StNfeS95ZfLRk6H6sekoYno2nyLTgqCm5V+/DDYjmp0wmyf/9+N4MaXJs2beSEjh2lwLdSwT5Mi9VCy/p1Gy+4m7VquO1utgzQsWhlAnCViLKBoGmzQ9i5eHLQva0FJzU1TY79/jEy67Hf1qqFF4JluDWxqqoEglYfffSRXHDBBfLXv/5VTjvtNHnsscekU6dO1Q5kIWhWk76+sFVs+vd/+IMM/9nPJCXtECktKdG0X0KlJTrvwAJ9yQatSfGwEgyJiJIJW3gREVFSC/rHSsQUCbc1XjL2EvnnJ59YZdMqnTYnSmf1yip0blS3JfKTB38vo/ACwS415qar5dgSF6iwZbFN3VCFtw2z4In++2rfPjn++A7yxVf7Zd83JRZMK9GKbbTPz3RwEspCABXQO++6S/btQx9GCHC5wmB7K0q5kA7nyK3Z2XIZ0mXZcqmmS3r4eadfKqPGXipjLrlMLrkU84bIcSgf+p6xuZaGX+n745Y0lIu9X6NcoGyxXDSmtHz5cr9Pnf79+8sx3z/Gv6q54DbFww47LG7CMkEC3Jb4rW99q1rrBqm2Hdt/+9vflh49ultrSfQXhgAd+h6Llj9NOeE8gzwiIko2DHgRERE1MNeH13I56Qc/sP5wEKFCCCJqQCOgC2A+FkEfX/LhZtno5pj3N22R/T7YFSynNZv421Sf/HOn3VYJurit79emeoZKKPp2+/EZP5ZPtFxgL6By6vah2zMVhaSD9H90ljzyyCz5zSOPSt5Dj8pV57mI12nnXSv35T0iDzz4iOQ+9Ij85uEBkuGDovo/xhYhZLcz4rbKoCygZCHoRo0Tgl0vvfSSBa0ONjwd8plnnpG+fftKr169rAwj8ERERHSwMeBFRETUgBDsWrZsmbRr105atmolu3e7v7KHQwkxIlQWxNIfdntbyocy+7LrZJ1OHznmUpu/7oaxMutDtxyWQUzMNoUoVlSYHrKAW+s2ZYENahgIdqHD7S5dutj+QMApEKNIuAClD3Ii2Lm/FLe7umCW0WEJpmGeTv8Grfd0JVvPDytCGUOygJeVCydoGUKNz4ABA+SVV14Jt7g6WNCSasuWLVJQUGDDX/7ylzJ48GArTyw7RERUHxjwIiIiaiAIduE2o+AWtm7dusuGDRtk37591Ys3WZ0xJB/8ZqTcuFZHuz8gV+Y+LE+NxvQ1Mumy30ixVi4R7EpFexwfvIjnrZVvyY/PzPKvqCEg2IVygWAXIDBxaucu8ue3sZMRbLJBdLp7MR+LIKiAnopKIpa3vtr0Nfp/K9WFbRzLa4pXNFauXCFnZrFcNHb1FeyCvXv3ypNPPmnntKuuusr67AIGu4iIqL4w4EVERNRAIoNdCEShEtqvX3/5/e8XWgAiHL2I54MH5ZJr0W9XD7kz/2ppr2N9Zy6UizDvz9fJg0td7CwFUa+4m7KlZOnSJdKvf38dd303xV+HDob58+eHg12Bs/v1k9df050Zhv1VGW4ztI7tNbmhSHrEohb81Ks/PMDAWv3ZNLdAtEAEpiG9tvQ1+cnZKBcO3qeq4CklFgScULbqI9gFhx56qGzfvl12795tLViBD8MgIqL6xIAXERFRA4kMdlmASX+eO3iI/GHRQhsPVRVtSimSB0eOF4S7ut/3pFxxPKYhEDFArrizuy3y5NArZIluBk8lq2p7a9eulTat28ixx+rnwqIIgDCmUe+CcgEoG/g3/IIL5Hcvvej3i5tXEYqRSyELaOHJnEgndBwuo8deKtcP6iDpNi3V0qGpOp6OJ/O5QBjeJxrc5rppU6GceeaZfop7nyrLJyUUPO2zvoJdCHItXbpU/t//+3+SlZVlwS8iIqL6xoAXERFRArDAhiYEvP789tuyc+fHNj1eSCGl4F6ZYA9lvExuuKqDxacQuEjT1OFXT8jtp2PeYzLkyiU6z20/FrzPPffcLddNvAGRD0vWKswwsNEgNNut0ZXuhk4dO8kJHTu61n9ulpsXBVpspeoS2H0IcKUPHCe/efhR6d8Bfb6lulZfmK6prH83lA+/gUg68Z577pHrUS7wMki2fLQViEQ++ugj+fWvfy1HH3205OTk2NMSiYiI6hsDXkRERAkgCF7gEfzT77hTJk68Pty3UrS4BqaVDpglX+8vlS+/flTO8j2TI3jhWu10kMvf/Fr+/cU3sueh/u5JfKWl1odTNBs2rJfi4mIZPHiovacLbKDVGZ/G11BcPMm1/EO6ddJkmXH7dEx04uwWBKMs8IWkhQKBLpSNNN1ecDsj5uE9Yga71Mcf75SFCxbIpTmXuw/klzfRixI1EbjVFR3T4zbFyITzDPrv+vLLL6VZs2Z2TiMiImoIDHgRERElABdCcAGmESMukE2FhbJ+/bs2NVpTHlteJ6Pzca1zWufkiEOkp7rb2A5NT7Fxq5TqTBc8i94qB5u/8oor5KGHH9FNuveyIEjwr/IqVE+CrMd+OLVLFzm9WzeZPXuWC1y6XRVTsN8wQIArPS1V0tNT9eIPW3Mz/CJRoeyg1d/VV18jzQ5tZuUEy2O7wZCarv/93/+VO++8U6677jq58cYbw+n666+X559/Xn7+859Lr169/NJERET1jwEvIiKiBIDgAVriIDABL/zuZcm+5BL5bNcui2sg2FCRTdIVU/S3OTopx+1p1keTDoO+mYJb1tzSLgCGFGnqtKnWWX7X07vZvOCzYFh2WyM1BNf6yu0L7MvbZ9wpT82bK4V/L7SgV5RiUQ72nrXwQrAruIVRy4W17nKLxLRgwUJr9Xf1+PH22sqDDq1IVLUyJb0vvvhC3nvvPfnzn/8sf/nLX8Jp9erV8q9//Ut++ctfyo9+9CO/NBERUf1jwIuIiChBIA6F4AaCEhntMuTu+x6QX/7iQtm7dx/muoUiBMGHINjlOilHoMu17jo0PdWGFuDQITozDwIogfnzF8iGDRtk0pQpbgLmYxCRqGFhd9ku0wLSslUrmf3bx+XSS8ZaMBTFokL8spxgV+vuLysrtkE3PZZ3333XWnc988yzUlqCIKlbBWXJyk+c96Sm4fjjj5eHHnpIfve738mzzz4bTi+//LL1+3bMMcf4JcsgoI5bHomIiOoDA15EREQJAgEFF4twrazwVLyfDb9Azj/vPPn3Z66lVwDjaH2FljppuiyCXbhlLQhsYDpeI+iFFl9YBtMiPffccxbUePzxJ+3WyHBQQ5fDomzdlRhsn2Bf235MkU4dT5Rbb5ssPx00SLYWF+vc+NEnrO/2qw5T3LLx9iye1jl27Fh5+pln5RDcyqjTUB6wvmsZ5sonNW148mLr1q2lbdu21jl9kPD6yCOP1DISu5BUbGVKRER0MDDgRURElCBQP0QV0YIbCCxounjkKLnqmmvknEGD5O9/LwyHNoKqJIIQuF3NblVLCfmWXG4+hq7lV6pNt8CI38CECRNk0aJF8saby+Twli3DrYRcQKNsSInD9imS7puz+/WXBx96WM47b5gsX7EibgDByoMm7FNXrvyMKGbNmiU33XyzvLFsuRzbrl042OVSsG6cDRDFccopp8hPf/pT+c53vuOnEBERHTwMeBERESUSCyr4oJMFqUR+0q+/PPb4ExbcmDB+gnz88cfh1lgWiMAwMvnABH7J4zUE0xcuXCDt27e3YAZa8BzarJnrAF0XsG3pjyBoRokDu8MCVrpTfbGQUzt3kddef1OmT5smw847T7ZuLQ4HRGtqxYoV0qNHD7u99dXFBdKixeESeecZ3jMoEiwbVFv9+vWTa6+9Vo466ig/hYiI6OBhwIuIiCiBBLGEILBhwYWQSOYJHWXD//xNvn/ssdK3b1+ZcO0E62epYgucijDpk092yty5c6VPnz42fHPZcrn66nH25EZ7eiOW0+Ra/7jb1SpviRqc7hQLRuooygegT6/X3lguF48cKYMGDZQrrrhCli9fXq3A165du+S555+XYcOGybRp0+T+Bx6wJ3Ue6p/I6LhWYUiuFSFLBtVe8+bNpUWLFpKWluanEBERHTwpId5ET0RESQxBoMb4q8595hQp0WGJ718LkQ50wfT557vlqXlzNM2TnTt3ytChQ60vHejWvbs9We8TnQ4rV66UwsJCGTBggIwcOUrOzMqybWG74W3qwAU1/DhGKCFhl6FsuGAlOgDXfeZ311f7vpKnn5ojL774omxYv97KRbt27Wxe5y5dLMC1zfr8EmvJhVZdKBcjRoyQwUOG+u2ihy68CyC4FpK01FQXCMU/Fo1GD8e9K0ciffv2llsmTZYzz8yyPv8Q1MQubuz7Ofh+y5Yvl9unT5Mlr71p57ign0OW4/LQ6heB8oyMDD+FiCg5MOBFRERJrfEGvIJhSHBnmQU48MMLKqWffPKJ/H7RAvlk5yc2/amnn7Jb0zp06GCvs7KypHdWHwuOgAVJdDTYEhoKIcAVBLuwzWgtxSixBPsRZSLYny4g5Vro7d61W8vFwnCA63e/e0mObttWevbsaa87d+4sQ4cMs+1gx2OAcXvpdz8GDHYlH+xjlBcMGfAiYMCLiJIVb2kkIiJKQEGFDMEoPJkPlbTIihoqdCX648jvtZZLL7tcbr1tihRv2yZbP/xQVq1aZa25Jt02Wc7QimzQSmx/EBzRhKBW5HZRGcS2GexqHIIWeQhIuVsNUSZcwAqtvloc3lIuuniUlQsEsjZu3Ch/+uMf5fRu3axcnDt4aLlygWG4zy7dhtu2D6Ax2EVERESNEANeRERECSoIMmCIAETQEisITrkQh7s98dJLxsi8uXMw0Vr1nNW3r3y4tVhKSkX2l4SslRiWhbLtuW0iyIVpDHY1Lthf2IcW8LKygZ3oAppBuZg+barMuH26Lb9v3z752XnnSUHB0rIAqE7H8oDVXbnA9tASBqEuN52IiIiosWHAi4iIqBEoa5HlghwYutvNRHIuHStPzZvrl3S2bSuW/j85S4qLt1oQxAIXmhDQSE/DtiKCG5hBjU6w2zBEF+Dp+gNlxLXMErlj+jS5Y4YLdgUQ9Lpg+HmydOkSsVt9NWF9lIE0HzzDEH13YRsMghIREVFjxYAXERFRIxCEHSwgkeKCVAhM5Fx6SaVgVwBBr4Fn/0Q++kexrRf00YN1kdB+h+GMxi3Yfxa41FfYrygXd94+vVKwK4Cg18+Hny/LXn/NysQhvlwggOpadWE7LBlERETUuLHTeiIiSmpooZJsv+rwbRCO+Oyzz2T9+vXhWxXxNa+79loZNWqknNqliwUusHSbNkdJx44dXRDDTbLWO5RcrJjrfv1q3z5Zs2ZNuFzA3XffI106nyr9BgwIl4vmzZrbUz1dcMsVChaL5IdygrKB4aBBA+1Jr61atdQpbv9XPDdg/qGHHirf+c53/JTE8NFHH8l3v/tdad68uZ9SHr7jrs92yffatJaFi161oHC6BXV5/quIndYTUbJiwIuIiJJaMga8IgVBDqMv+vbtK5MnT5HevXsHE8O1O9bxmpZwqddyMXbsWHsS3+jRo4OJLBdNFM4ZKBsYbt/+sfx9U6FNRyAIt0sH5QHhryVLlsg999xtAa/p02+X008/3c9tWHPnztE0V9q0aSMPPDDThgH0bIjPju+IvuoyT+go32vd2lowpuuXZMCrMga8iChZMeBFRERJLdkDXhX16dNHpkyJDHgRiYwZM0aysiIDXtRURQa89peU2sMNXIjI3TKNuXg1b94cueySsVjFoCXVS797Rfr1H+CnNIzbp0+TGbdP869E2rXLkNffXGZDY1/BPdCjFN8VI8pu67aAF/qnY8QrEgNeRJSs2IcXEREREVETgViPi/dEPJggFJJSTWgRhSe7zpnzZLlgF6Dvt+E/O08KlhTI/tLSBknT7KmjZcEuQF+FZ5/VVz7Y+qFbrgRPIBXRUQnhSaQW/Aq5QJiFwYiIqKlgwIuIiIiIqIlBnAv9t7lb/HTopz89b67kXHaJf1Ve8MCD119b6qfUnztuny53xngQQ/CADgyDoFYQ2sITae1BHzpuwT0kIiJqEnhLIxERJTXe0kjEWxqpPHdOdOdGtIAqtYn6OkXkrZUryjWEuu+ee+TULqdKv35ltzLi9sbTu3X3rw4+BNr+/PZa/8q5/rpr5eKRI6Vz5y5+ikjrNm2kY8dO/hXg9kwf2EuN3ik/8ZZGIkpeDHgREVFSY8CLiAEvqszOinpuDM6OsU6Tl+CBB1lnyqhRiVV2zsIDOqZM1nId/1xn8S394cJd+J1gA4rAgBcRJSve0khERERE1MQg7oM/CJQFgnQsSsJsHYs6ryFTjT6XfUPXZxkRETUdDHgRERERETWkoiJNfryeIQgU9OUVLel/v0xiJf1frc+FZYLAFxERNS0MeBERERERNZSiPJHMTE0pIgV+GhERER0wBryIiIiIiBpKhxNEemIkWyTTphAREVEdYMCLiIiIiOhgiHabYqVpA0VWhURCs0U6+EkVNdDtjkRERI0ZA15ERERERAeswHUY1StPJC/HjeM2xZReYn105egwmNZL54f59Wy5iNfRtsNbHomIiKqNAS8iIiIiorqyerzI+HyRnnafIiaI9dGVr8Ng2mqdn1NF9Cq8nWx/y6OuPyPPZhEREVHVGPAiIiIiIqpLi7eIrFolsiXXT+ip4yE3bXG2m/T+ZjeMx7YzW2Su387qF3l7IxERUTUx4EVEREREVGd6imRW7Izr5Nj9c8UUsR10bE9EREQ1woAXEREREVEjs2/fPjnqqKMkJSXloKY5c+ZIRkaGf1ciIqLGgwEvIiIiIqJGpnnz5vLxxx9LKBQ66Kl3797+XYmIiBoPBryIiIiIiIiIiCipMOBFRERERERERERJhQEvIiKiaikSyekl0ktTgZ8EeTluWk7kRCJqegaKhEKaVpV1UN9hnJ82209QA3Uc01bpPDehwnpRthN1GhEREcXDgBcREVF1vb9aZLWmQFGeyPh8N22oVkiJiIiIiCghMOBFRERUK0Uio8a70ezF1gAjqiJdjoiIiIiI6hUDXkRERLWRN0oEjb165orMDqJdBSIpKSK98tytjhjPzNRhhdsgiYiIiIjooGLAi4iIqKY241ZGRLuyI/rhibB6vLvVsafO72kTRAbl2CwiIiIiIjr4GPAiIiKqqfH+VsaeJ7lhNIu3iKyarWmxn5DPVl5ERERERPWEAS8iIqKaWuyDWGjJFTWI1VMkM3iU2kBrCGY2sz8vIiIiIqL6wIAXERFRjQ0UybV7FWt8q+KCBQskJSXloKW1a9dKmzZt/LsRERERETVNDHgRERHVxri5vn+ufJGcis28Vots8aNoAqaLmBM6yNChQyUUCh20tHfvXunUqZN/QyIiIiKipokBLyIiolrpIDI3143mD6p8a+OgFJGcHJFeOs9kW8MwIqIGEe2O6rh3WetM3oVNRESNGANeREREtdVhXIxbG3VadrZIfr419rLXW2bbHCKig69AJCVFpFeeSJ6emzCeqSmll0hRkUiODoNpvSrclp3n56Vk+nU05UVEvoL52LbReb38clH7NCQiImoYDHgRERFVSweRVSGRkKbIllrjVrlpoQoBrYn6OrRFZAvm6TJBH/ZERPUFD9YYny/S0wfmEYHPzBTJ12EwbXXkbdk6HI952e7hHLn+iRvjR5W19ho3yQ2Dh3YU3OsC+9m6PFuxEhFRAmHAi4iI6KDpwEAXETWsxVtEVq0S2eJvwbYWpyE3bbEPaL2/2Q0RsUIAf9VsHdXxcTq0RVZH9Euo04P1BvUSmYFOCnWbExntIiKixMKAFxERERFRUuopklkx6n5yFYH4IncbJG577KUpeOhGpIETbdMWCLPWXZPC2ywsLJTDDjtMoj1Fti7TihUrpFWrVu5NiYiIomDAi4iIqM741hG8hZGIGiX0/ZXpboN8/2SRkzX5Ox/L2+ICXYFwCzGxp8TiabHRniJb16lLly7+XYmIiCpjwIuIiIiIiEQKFrgh+uPCbY2zNZ3sJpWTN8MN8XAOCPrzIiIiSiAMeBERERERUZn8Be5pjngiY6VbGn3H9tZv1+yyJ9XOCJ7aSERElBgY8CIiIiIiItc3VzYCWPnuaY7jdTRoxRXIGeSGuXPdrduRT23MCx7lSERE1PBSQrgBnoiIKEmhc2P+qqOmbsyYMZKVlSWjR4/2U4jiKdL/HdgXYRPRvn17Wb58uWRkZPgpRETJgS28iIiIiIgoAoNdRETU+DHgRURERERERERESYUBLyIiIiIiIiIiSioMeBERERERERERUVJhwIuIiIiIiIiIiJIKA15ERERERERERJRUGPAiIiIiIiIiIqKkwoAXERERERERERElFQa8iIiIiIiIiIgoqTDgRURERERERERESYUBLyIiIiIiIiIiSioMeBERERERERERUVJhwIuIiIiIiIiIiJIKA15ERERERERERJRUGPAiIiIiIiIiIqKkwoAXERERERERERElFQa8iIiIiIiIiOpJUV4vSemVJ0X+dZkiyeuVEmNeddXFNoiSAwNeRERERERERA2ug5xwskjPEefoWG3F2EZBjqSk5EiBf0nUFDDgRURERERERJQABs4OyapxtQ93QV1sgygZMOBFRERERERElAAKclIkJce1w8J4r7wiNy3FJ5vnb1v007BMpMhtgL0elK9j+TLI1uklwSrltq0pYjVT6TNUXIAogTHgRURERERERJSAVo/PlEGyWEKhkIQWZ4vkD5KUlEx5ccQWm7Ylt6cuMyocwIoGLb5sXcmWxdhOaJWgARiCWIPyg2lumfxBZcGwgH2G93NlC5aZPdBPJUp8DHgRERERERERJaLsxWVBpoFDBWGrnrlbwrcsdjhnhPSU1bJxi72sgQJZkI/Nz5ZwCGvgRMntuVpefLVCxKtnrmxZNe4A+hUjahgMeBERERERERElvEw5qacfDXQ4QU72ozVStFne10H+oMhbGjNl/GqR1RWjZyefwGAXNUoMeBERERERERE1OT0ld4u/nTEy8bZFShIMeBERERERERE1ObW5FZKo8WDAi4iIiIiIiCjpvS+bg+65OoyTSdYHfo6Uf+5ikRTF6QCfqDFhwIuIiIiIiIioPq0eL5nhvrOQKgae6ph1eL9axmfivdyTGAfO3iK5PfNlULnPMUpe9asQNXYpIdykS0RElKRw8cZfddTUjRkzRrKysmT06NF+ChGR0759e1m+fLlkZGT4KUREyYEtvIiIiIiIiIiIKKkw4EVERERERERUx558ck7ErYLJmfr06WPflY3pKREx4EVERERERNQEFBcX2y2MkQGLitOOOOIIWb9+vV+DagsBoG3bimXylClSUhqS/SWlSZeKPvjQyk+pfj/7zvaTKHEw4EVERERERNQEoJ+ueP11tWrVyuZ36dLFT6HaSknxASD9sR8BryCVJE8qCYUssKejUooR+8JEiYMBLyIiIiIioiYiVtCLwa66ZfEfHwiyFlE+4IXgEAJFFVNaWoo0OyQ1YVK0z1iWXJALLdcA3w+j+K5uClFiYMCLiIiIiIioCakY9GKwq26FQq6xE54SbUMJmnuBvtKXFVOiifYZIxPge0IQ7IJgGlEiSNGDkEWSiChB7dy5UwoLC20cw3379oUvRjt16iRt2rSxcYoN/ZEk+686lIu1a9faOMoM+tPo3r27vUYZQVmh+JI9D8eMGSNZWVkyevRoPyX57Nq1K9zvEPYfXgfnS1TqK7ZmIWrKcKzgGMH5bsKECXLDDTfID3/4Q5vXu3dvG1Lt4aoD/VpNnTrVgkG3TJps1yOp5YJGPmrkpfn5ieIb33qrovA1VShFPty6VQacfZa8v6lIP7/IIemp+h0S63tQ08aAFxFRgkFFbcmSJfLCCy9YkKujr2ifqMPmzZuHK3SYh4r4yJEjZejQYdK+PStz0SRrwAsVlQULFsjChQtlxYoV0tlX7I/SMoGKfWTwBoYMHSoXjLhAKzT8632gpnk4VPNwxIgRFkSpWFFJdMka8MK+CfYh9lewD9vr/kOLlcgAGF5j/+F8eeKJDAJT04PzHK4tcI2B46GlJuit54YNGzbYORFw3OB3Rv/+/WXokCFy2GGH2XSqPlx14NJjypQpNrzltsmSmpoSDmrZb5AKv0fw8kB+s+Ba5/PPP7dhy5YtD/j3VIx4l31GtFvD/K1bt8rZZ50lf0PAS79Yehq+HwNelDgY8CIiShCouN199912IZrVu7cFJ87Mwl9ZXYeg1hren7KDi5gNelH61FPzZKFW+LDOr3/9a2nTunWjq4wfTMkW8EJLpLvuukvmzp1r+3yIVkb69etvwVD7nhW+L77/psJCWbhwgbz04osWJL3jzjvlh11+iEWbpEp5OHiw9B8wUA5t1swvUflY21S4yefhC5aHd+qx9kMfXGkMki3ghYr5tGnTLNjVf8AA24f9+g+webGOg/f0fPniSy/a+RIt9h6YOVMy2mU02eNApEhk4yiRL3Q0Y5XIkW4qJR9cV9x8880+6HuBHTPt0OJRjxEcJRWPld27d+txMl9eW/qavP32Wmv9dcUVV/glqDpcvpYPeKWnpkpaqlhAKFpk60BPRd98843cd9999jvuuuuuk8MPP9zPqZ2yUhGFlZ0U+fDDrfKTs/rKxs0fWJCLAS9KNOzDi4goAaDy3aNHDzn22GPlnb/8RR5++BE548wsKSkttQ5B0UGoeyIOOgZFcq9/cEpnuefeB2TzBx/Kmbp8T90GKoHBhRYlF1TuTzzxRBv/y1//Ko8//oT89Nwhcmiz5r6cBGUjKCfu9fEndJTrb7hJ1v3lr3LVNdfI2LFjNY2RvXpR3NTKSZCH+Np/+eu78lvNw3OHDJNDDm2meaj5td8dWyWlKeH8w/RM5OHEG2TdO5qHV19jASQk5CHVr1mzZtmtVzhf/m3j3+18+ZN+A6y1QfTjwJ8vO3eR6TPulP/520a5aORI6dunj1x77YQmeRyEfbFa5EtNiWKj1pJXatpW5CfQgcAf0vpoOc/Ny7PfF28sWy6X5eTIMce203NdqT82cJ0RHCvuePmvFofLLy8eJU8986y89adVsn7De9K+fXtZvca1eqXacicaFypyAa7IdKAQuETrvHfeeUe+/vprP7X2on3GIAU/iRIdA15ERA0If4VDpRl/Tf3bxo1yzbjxPnjhn36DihsqcPo6ePINEip2eB2u4OmCv7hopLz3/kabNmzYMPls1y5/aVUPvqyqchJvfpR5VW4v0HQqRbm5udYiadXq1XLb5Cly+OGt3L7X9I3ufysvFcoJkpUTlCdd4Jv9ITnr7P7y53V/kR+feaZV+HGrV72VkwY2U/NwjuXhGsvDFoe3tDwL8tEdU0EqDecf5u1H8Fkn4Hj8Sb+yPERlErd06GJUD9DXEG69QrDSnS9doBJ95YSffhbtOMA8HCc68xut6J9z7hDZXPShfP/YY+18iRZj3IW1FPd8rfO+9KMxNZ3zeH1C4ANle7Ke6159dbGc2qWLlX871yHpMjhedDTiePHz/HkRwbAjv9dGfvPwI/L6G8vklptvlueee47HSm1pxqX4fwfLoYceailonRwJXWG8/vrrlt544w1Lr732mqxcuTJ86351uc2zJFDiY8CLiKiBoIKFi9EztdI844479QLFtdLBxSdadOGiE3+tw0VLil5UBE3Eg4RrDVxw4HID62CIViroGPXikSPlPAS9PvsMb3WQaCVlYy/31/h1mW64scDP06FNzxPZhmV0PsbjzouyvXU5FSpL8babvBAU3bZtm/zulfnSuvVR4cqIq6xgzwdlxZWLWOXEkv7AeheNHG2VmAt/caFVjDAvmQV5+PLLr8j3Wrd2x5n+sEAIhj4DcLy5Yy043twQ05HH4fV0+MuLR8tDloe/aBJ52JDwx4GBAwfKsce2k4cfeVQOt2ClD2LpfkFC2QbdVRWOAz2HWsIxgLMp9qULXv7q6vHWcq9P36YV/K29yHOwnp/D52s9H3/qFwE7P+s8O0djqCncaivaeVy3heWCbRT73wGR26Rqwy2MuAXxmWefkzN79y533nIBYfwuiPydEXG+w4iyc57ODdZFq7BFf1gsCxcukqlTXEfs1DiU6kXDv/71L5k3b56MHz/eEv54gHTNNdfIrbfeKn/961/90kTJhQEvIqIGcuGFF+qFxjgZOWq0XTi6llzugtRdgLqLT9cJaKqk2xCvxU3ThCfipOtrLIsaXHD9+dNzh8p9DzwggwYNki/3utt1gspg3dCKCyo5n64WOXKxyEmavqWTPx0UUalRX47Xigtul+npXkcqN29j2fa+lS2SkatDnf5lvqsIVRRvu0kG/a6ccEJHue/+B6yCYref6BB/nXflxJWRoEwcgrKiBcOVFfc6spxgHUCg5+RTOsvTTz8rV1x+hW+lVBY0SCZBHt7/wEzXqgHHmabgq2oWuuNKR9LT3PGF10EeliU8fcrlOdZFsBG3FT+FPLzS56HbJNUxBCxHjhwl14wbp/vPt1LRzA4fB75vHOynqMdBug51QczDPsQ6gDJ/xo+zbB9e+PML7Y8EyXoc1Ck7B+v5GedrnPtFz8cbg3N1gTs/Yx5+N2ToEIpH6Xpu1JQ7j58k8u3I87mO43cA1RiC7+ja4I03l8mx7TLs1sXgeEGxRvkPzml2XRGM+2MlfNzgd4suq5PC1xdoUTlPj5Wdn3wisx591I4THC+U2BDMv+OOO6zl14033mhp4sSJlm666Sa56qqrwt0lECUbvTQgIqL6hr+qoaPxfv3764Woq4AbvcB0f2F1FbND7KLTV8ZxUarj1umpTUMFz/011l2guso44AL0lFO7WF9DY7Wi6FoB2TVr3fjyVVdx+Vau1lMGihyp6Qc6Dv/UeZEytohkrRLpOs5PiBDM+4FWdqwipBWjrrNF2umyXef6ipRWqqL9lT/edpPEo7NmWUvAG268ySoraM0S7MJwMNSSC4hGlpMgoUygbKT5AICb71q7AP5q/5uHH5ZfXPgL2bvvK51SV4UkMQR5OFEv8N2tOmXBDGRBGo4dnyfIK5evZcdZOF9tHHnp8hDLYX0ky8OHNA9/oXmIADM2TnUGActTTz1Vho+4wAW5NAV5jH1m+8v2T3BuRMI+xX5zQ51k04LKPNZDCo4D9NE24847k/Y4OChO0nMwztddF/sJwblafx9kaf5hHn43tMMQ01e7DvIjRZ7HT4roOD9Dz/9dI15TtWwtLraWXb975RU5tLlvNe7noai748Of03SIY6DsHOjOd5HHCubZckj+WMH1xIN6vlu0aKEUFBQw6NUI/N///Z/1X3nkkUfak70jEx5k8vOf/9z6aCNKRjinERFRPXr00VlWKXYtFdzFI6DiFVyIouKm/12lTH/YPx0Pbsuxi0+bj4tQd4FqFXUkLO8vTH82/AI5vGVLmT17llXfgukH7IuNboi/0K/r5dLfdLySnlph6eDHK4qYF2zvWye5odF53/ajlfqIibfd5PDuu+tl3ty51rILZcSSn4f9iMpJUD6CYflygjLikk6yZYLygfGg7ACCo5dmZ1tFyd3ulRyVl3fXuzy811rHuUAJDoQgb4K8sGAXxoNjTl8ja4LjDTlo8zFPN4H1LGiCCQo/LQ8v83mo75EcOdjwCgqWWIuVG2682R8Hfj8q7K+y4yAYYm+V339u32L/udfBcWDnSt0OEqClF/plcw/+CKZSdHoO/nZwDsYfPfxo+FytQ9zyiNvU8fsh6q2JyX8er084LH5x4YVyv57vvte6jQ/u47ZFV/bdsYJjQYe6rBb/mMcLSj/GI4+VYDrgGJz79LNy7XXXysc7d/J4SUDYn7Bnzx75+OOPpUOHDnLEEUfYNKKmBOc7IiKqJ3v37pV77rlbbps82f7yGlSKcVliF5U6ogM3zS4+yy48o8F0LO8qdG4b7sIW67mt3zppsjz44IPy788+K3cbV53ALSffPtmnbK28aPreOX4mHYjp06fJxBtusIcYoKKPIAr2N/ax/RXeKvgoI266/o9bToL5SK6coNy4Cg1cPHKUbFi/Xv767l+tjNRpOWkA+PzTpyEPb5Rm4TzUapn/7jjWguMlHCzR8aCSEAmTMDV8TOK1JgtOI/Dlp188crTl4bvvvsugVx255Zab5Y477rT9h0o29iHOd+58iX3n8x//wvvJrVtR5Hy3nu5D3Ymptg/dMr+6epy88MLzskMriFZm3GSqEfTRleluefzC/36w1rp0sOB8gxY8rdu0kdO7dw+3ZMV5CWXbnef8uD9W3HET/XjBtGAehlgWx1vQkhypZatWFuTHNQ3g+KTEgX2PvrueffZZef755+22xbPOOsvPJWo69FKNiIjqCx6nP2TIUPvrK64NrfKmF464bcAuLPUH/mGa/q+RYPmUFFchDCrmuAC+9NJsrfxPd5U3/VF316UjRE6aXT61O4C/2H/pW3qZorLbX77VtFoBoGUSbk0ZrGUl8hY8/NK2ykbE/q1NOcF64UABxvUH3uPW2ybL7dOn63u6ZeuunNQ/BJ4sDwcP8cEu/731B4Il4XzASA1gHVtXN4ghtoeAGcZxPCMPpyMP7T1dotqZrxX4du0y5JTOXcLBJ6vA69CCleHjwJXjmrB9qP/smEKy40GkefPmWjG8Rivx95QdB9yFUUTenlhQ1oIL5+pPF7hx9O+I2xrxeyForUsHDQL8t+n5xwWG3TQcFy4w7Mo4XruEI6B6sCiODayB64vgDyZ4fWl2jixcsNACxMBDJTGkpaXJp59+Ks8884wUFRVJ7969LdjVunVrvwRR04Hf8VTf9rwtee/kSs47L0vBHj+NImyXgk0ufyrexETUmO3dt89aWl038QarvIFdSAYXoXitl4vxrkNx4RKPuzB128MFqauMp9hF6VPz5lgH9rgYjvMW1XPkRPcXe7ulMUcrOKjw5LnbVyI7ra+uYHvoAwbb26bbQif2QT9hTagfFxQN3FKFiktkn13WokUT9icc6D7E+lZObJuuvJw7eIgUF2+zgJsV0eDNGxl87KlTNQ8nl1X+LFCCYwPHmM63IIktXTtl2wuOM5efLg+L3VMb8d5ucaoh5Bsq8JOwD33Q1/Ja89kCln7nxduH1Tlf4p1Q9jEa7FOcLxctWOBu1WrMB8LBtlFzDR3VrxvkJ6CVrx8FBL5wiyOexFjdpy0GHdejg3tsu7rrNXFo3WXB4VM72/ECKN9WtlPcdUVQxqOp6liB8DY02TlPU/Nmza2v0HvuvtsFpS3Z4tSADjnkkPBTGQ877DDJycmRb3+bUWc6UDif41b1xvV0dAa8qqngnQnSa1lkypWcTW9LUU0DVnte1nXvkvHbV0r+9qdlxo7tfgaV+UgWFCJ//iSvMiBIjRQ6yY6EC8AVy5dLx46dpDVad/kLwuDSM7iIjHUxCkV5vSQzM1N65VXjwlQTLnRxyxXG0Wrh7H797aIYIZQDv7Wxg8gP/JMZ8STFjVrh2TjeVU5qdetKhe0V67Ys2KUVqB8kb6f0+/bt82NlPtOy8/batbq/BoT3EfalJfxQ7mcErazEKxWxKjPYTlCJCQKvw4ePkJdefDFcRg6snBx80fIQx9/bb2sent2/fHBZf+C7Bq/LqW0e6nawKUt+m8jDF1/QPLS3Dm4uplgq7kNUmgv/XmjTUYEPyqEFZ3UY5LMfRBWcL3vmxj9fWuBTEw4t3OaK4EDz5s3sgSILFy7Qfej2H/dhReh/S8/Pn+r52h44oq/RmgvwB4wjEbjCHzBwayOm6bLV0W6S/x2y2m2byol2vsMp7oUXX5DhF4xwAX6dhmPEWnb58l0XxwoEx0uwTWwfD5N4Ud8fn8Odbu1HkxVtH9W3b775Rr766ivbT3gyI1W+Lq+aHg8I7qAPwpVa2pHsD7xVHyfJa4u7Vf3TF/15v3FgwKtatsvmz4tl9Z7ItFLyC++SzGUTJK8GQZmiHX/Cr3CRtjfJliHzZVXHtjadiJILHqGPFh5h+nty4cJFcu7gwVIacTEYVOCCi9LqsItKPx6f2x42i4SWJ3/4/SILZLiK+AH61kCt4OiGsvCkLjxpC+N4qhZuP/RP6cLrSgGwGPOibQ8VqHLrx9tu45ObmytLlizxr9x+XbqkQLKyetvj313loXz5qFRKivKkl1ZWMnV+ToGfFlYkeb1SrDKTEzxIrSJ9kyAQhJ/nDhkii6yi7/5aH/4QCapiHsKSggI50/Kwefjj2/fTH+jDy2dlGc3DnkEeVsqniDyslL+ObVdTagoeNhEtD/2CFBWewlj+fJki8xfMt1t6kXfIQ+yy6ga7KkL2V2cX4BjDsYD003OHyO8XLbR9aO8WFKSkoudqO+dqqk0r2gw9P9v5GtuIPCfrdvHExch5uK0x/D5V/H7AOsHvgCbUurc6du7cadcXkfbt2ysrV6ywAD8EwSgcKza0qXFoNgeqc7qy7WoK/kiCbhPQumztmjV2rGL9pDxcqmnYsGENFvTCvsftjGt0X8ydO1fOPfdcGazXneR+z1S8VohNf9lbsB4Bfa25o79asD/w6vSNMS4GYkFrWATManMHRHXVx3s0Ugx41VB21/kSGqKp701ouK2K5cUYrbSK9sRuvdWzxTG4HIgq3npO7PlVr4tl/EgcsZapzvZrZnu1Pk9t1P1nJao+/CWpT58+ZZU4vfhbuXKF/Fgr4cGFoP5a0qSVKzQtqELFC0iMVxW0chel7oIUFbh+/frL0qVL3MUs3rKK9atPz2Z12sdWXW8vceGiGBfHwUUYKgsrV74lZ5x5Znh/o3jYvtQdht1WUej4cTI3112M5d+eJ0UR+7Uob5SMx19ZeuTK9VqPxCwLwESwQJq9hysraIW4a/cu+fhj3M4VrOOWTUSV8lAT8hBP2wvge1k+YtxNKsfycGYPG8+foXmIaf47F+WODOfhRORhjLxA/gX7yvJQzwE7NQ+DFhcxViNV8XyJPH4L+/DHZ1rAyeWtO1fG2oeRKgYZ3S2RSH5CFOHjAOOaUH7eWrnS/4GgKVTitdTjFsJ4KerthThf+9FK4s2rQhPrt7Em5syZEw56oUziFvR2GRlyeMtWVk5Rfu2PGCjTVahYpoMgfVVFPThOggDxmVlZet7V40VXtN9UVb910sLvooYKeuFWxvT0dNmxY4e89dZb0r17dzn11FP93Kat4rVCXLhrwVowaW3fAvAI4OvwJN9S9VOdfzBut670RPKGpJ/lYLTiaoDvyIBXbbXoJkOjNs7aLnnvTJCUhcMkc9lVNuz1zttaZHT6Mp1WiHbdIqsLMS+ydVis9eBtydHXKcteloJNWEbn63hZcanuurnSy5bR1/reOTtsgQjuM7rtRC4Tb/sVlW2j3PZ35Nq04HPje+Cz4Lu499JtbooXoPLfo1yeBdNyEYf3avJZiQ6uoBJn/SHpv8LCQjnhhI5uJq4HcUFqc+LDfFyUlvgr05BeUWK8OhelWMAuTPVHqyNayVf6C3/v3n22PazrN0kNKLgIKygo0H2VYuUEARO349y+M+GRMsHuO+7quXI/4jVrxsvIvCJBX9ulocVyr4vUyANzx8lxVmawNPZ7+R0fbBkBG6SOHTtK4aZNth1bsvJbJ5RyF7L63YJjLfiW4cpflO+BZZCOHzevLA9xa48uWxoqkHsmrNGJPS0P2yNw4pevRCda/tlO0zzs1FE2aR4GWR3lrSlC+Hz57rv6SvfhpkLJ1HKIco/yirw1UY6DSG7/pMh+n/E4X1olHC+r2gm6kJ2XNX3rsMPs9vNt24pt3Wqt36ht0QocblWJkxKqMta0hYNeWiY3FW6yc7ZBGcYRoNNRXKs4XJReT9hRo2N6oOwPHy9lvy9ism2798rU8+3mzXq+wxTbAOY1XfhddF4dBL12794tf//73+Vvf/ubbNy4MW7C7z0s9+9//9vW/frrr21d/B7CMNo6SFgHy+C9kl31gl5aqwyCWWiZGhm0P1JfB61O0XetPZFWD4CVvSKCQ8G0HB3Xc+Y6HQ+2V5zp5tlrv9y6PHfrpI1jfsU+Dw/kPQJ+mYrTPw3eN6JPLvS5aNvW7QTrxG01VtXnA10fffzae/nPV9NWcgeAAa/a2vOyzPDxmZNbBJEvBHuukvHbi6Vn25tkcdebJLuFyOrtd8moTSInHJ6BHg48HW/RTk6w8XjrRQSB9jwtgyxgluFem5qsu1KkRZa+LyYUS35hhaAZtoNgki6T3RbL6TI7Xq7e9sPayjlt3efL3/G2DaFozzYb9mzbXTrI27IA30PfJ1e3t7iTvpfOW114X41uD62smnlBVI9Qieurlbg/vvVHadWqlZ/qrhNdJdxfM0aDPoU0faBpM5K/gCwNbZLNm4pky5YPbJ7+jym42MUAlThU4HBLRDjgEfPNqT7hIuy8886zizCUmcNbtrTKRrDfrKy4RcvBNCxXEjperrz5Mpu2ZsJIyd0SkiWXn4MedKT7/XPlioxSKSlF2QnqIZW3FkzB+7Vs2co+h6u4IODgZyawyAtZfHYcbxYoQasg5J9llls2UlCx219ynPwqIg9nah4uzhkkj+lr5OGV7YPKIJZ3ga9I2L6bpu+pPy0Pd++yjHXr2EyKw86XffvK+nfXy24dRx6ClX/sRx0Pymkldi5058stmsrOl1tks54rcb7EfP0fE8oJ3sCVFz0OtAx99tmuiOMmmQW3GcZJ9gTeeLcjUn1C0GvsmLHy2a7P7Fixc4wvuybWwWLHgU8ffFDu2gLHibu20PSBmx5P8BZH6LFivzN0SnB+bOrnPAt6nTdM9u/f76fU3Nq1a63D+dGjR8sll1wSN40dO1YuvfRSWbVKj02FpzTefffdNh0p2jpIo0aNknHjxsnbb5fV25JZlUGv4CmzFR/CEQgerPHFZjeMS8+ZwfJGx4PbIwN4+BNunUSftXZOXe1a1FZbNd4Dy3zPT7NAnffl+274vXPcEIGqYtzCqZ/lpMUiGb5FGx4iUuvWXvpLF0GuT3W7eHIvtovviVZy9XT7ZYqelJr46ag6IoJB5WRIdqfrZXbQD5d1SP+0rG5xkWzpez6KVqVpsmmCtfLq2emhsv67qlzvGLl34V1WcSm3HtRg3eyuD8nso3XdYL5+/ty+M2UcAmDhaVmyeMh4XM44VW7fT4tUaVtB/kW8XwUF7wyTQdvdLaOzj0bLLXzmyOXjTfPvU5vPGgEnP/yyJqoLuDUnsjwdfvjhmlrK5g+LreaUliaSrhU4VOSisn6Zxrs+/6qULYtDs8uO2wrcxWeKlJSWyg9O7CSHfetb0qrVEXahGuvtk8mf/vQnOeOMM/yrxIKn+SEF8HAB7Jvlb/3JblFBJ9rBkxkr7qrgtzda++0vCen+DcmSX6XLzx7XiT16iKxZo8OZ8t7yq+3PJNgWypx7pDwqRbZ6OQjMIDDW7+yz7JaINm3a6PtGXzZRRM3DI3wetivLQ1QCdVAJjg90TP6NfvFvNB9fuypKHq64Wo7TZZAP6bpBbDPqPkGKkYf+f4PBX/8RBMTnSTT4bAjEB/A5cf788qsSe42Hb6TrD+R/1Dys0/Ol2484nn5wYkd/vmyVEPuQGpd//OMfcswxx+i5ou7aF6CyjiCIo6VSz0PdunWTs846W265bbKd23G+s3MelqhYYGt4rLxaOlsGVVHocawsWvQHufSS0XLyyaf440T/1cHBgnN7hv4ubExWrFjhxxy02P7Z8BG2f9I1U8Lnsmrkz//8z/9o3i6yoFm8coR+uxDAfPbZZ62zetzGOGTIEPt9WFLizqOxYP5//dd/Sf/+/eWUU3T/1QCuGT7U69rOp54s/31aV3+Oth/4Xy+qW0Yq/p5B3qCvsy5duvgpHlo9bbSas0jWbDctElpAWVAoV6TrCSIr8ZTanjoe/BEArZswLWJ99K+FllUZW/wfDiBYTp2k063/28hp+pvIAm7BtNq8R4Qv8fTz8ToSrOMDUV9GbjeKYLv2eeJ9lhifr+tJ7n0tv/xDqILPEjntIGLAq1rKAl49W2TJyYdvk/ztrqVVuQAObttbt9JGe7YIDrxiWW2tplzAJWrAq8r1gqBVlIBRrdaNEjwKtlMxMFSN71T5kCrLLwtgtYgWdNouBZtekgV7tsn7n4tuz1VWDijgVavPWqZigILoQEyYMKFcJ8zXXDNOFi5cKBs3F5W/II1xURAKFUnB5fcK/s5kFTD9Ufr+Y/IkrnO7XypjfhC0EEMaKhNnDbTyje1Fg4uSUq2Ed+l8ivzqqnHSoUMHvVBGEKRuLkoT2X/+8x+7mEtE+As9OpYN9O8/wG49WPrmMhes8fsoWnAFUDaCgNc3+3Gra4FM+Pa5MsfPH7uwRB44GzcmumDXobpBbNOVG5tcDlqyoKxc9MtfakXt+9JPPw+Cs3abnkrEshIzD994U9pltLcKRrzvXDHgtb+0QK6NyMMxmoczI/LwEJ+HVQUhI/MQ9RTsR6zQUFmIv/R37txZBgwY4KckDny2yL+2jxw1WubNnSNffq0VNc1LVBA1u2MfB3rhXpAT43x5up4vT3HBzuqcL7EudiPKxI/P6CnnnT9c862L34duG0TVceGFF8rMmTPrNMiMCju2a7QsHnHEd2T48OFy5Pe+J7feNsXKOc41uL7wi1RQJIv1WFmoY3as6LD0f/LlCX+sjD7ZHWda3PUaYZhMfHSAdIhx3AXwO2PZshUyceJ1ctc999tnwLkSWz/Q4wW3OS9fvty/ahzwmQMIqgw77zw57rgOtQp41cSf//xn+elPf2otu36pv39mz54t3/72t/3cgyMIeJ354zPkyXlPWzkJrhnq+vvFUt0yUvH3DFrNPfnkk/5VhHoPeFUIOFVatoqAUnUDXuEAl44iePXtWEEnXW7bvSJfvK9JX6LTfqhtwOskHVh+qnDLM90mPkc9Bbzwi52q9FEo982hIVkwNJS93U3ZUjjeXsubvwttcZNCoe0z/bTxoex1M8unwo9skWC9nv61qXK9taFszF8wPpT7uVslrFbrRpkW3k7E94FqfKdowvmzbm2U7xy8v057022rZ7n8reZnDk+bGVqMl7X8rEQHQ+/evXEdaWnKlCkhrUjb+Bdf7Q9pJS701TeloRK9UtD/lWBaSWlpaL8u8PX+ktA+XfmLfSWhv97Tw7bR9e6NoV1ffKPbKgnt1fT1fiyr6+jyulpUOts+Q+s2bUIf/mN7aK9+Bmwb7xNrHTr4UDaCctJ/wIDQnv98GTozKyu05PVlfh/5chJjH7myEgp9pcvt2bc/9K/37g919dtzZeXvoX//5+vQ7r2u3H1j28M+j75BbOsb/WGf4bU3Q19qea3qMzS0yDwcoHn4ny/K8hDf2R0fsb8zpmI+jrM9mk//rpiH9yAPvwnt+vIblx+6nOWhW70SvA3y2X0Gl4df2TruvRqKXtyH9OLev0os+GxBfo/ScZTBdu0yQhs3f2DHAV7HOldhEhL2IfId+/E/el4sd77UfYdpmIfyYNvTFK9MlH2GorJjESdSomrKyMgIbd261b+qG9hecKy0OuKI0F/eXR967PEnQhePHOWuLfT3ujvfuXNRRZjkri9CVqaxzrv3lh0r/9Jz3ef4faHHC85b1T1/hj+Dne/ir1MT+FyNTbB/mjdvHlq8uCA06bbJoVsnTbbrv680v3EeqYOsKWf//v2hpUuXhk444YRQSkpK6Oc//3no3//+t5978KAsbSn60M6Vdk0aPl/7BepBdctI5O8ZjMf0RW4otEK3uaKnjvtpkf6GeZr+htqnpkrLBtOy/WsVrFMcWcuOtq6qtOyBvEcFxboNLIPPHoxH/Uya/qzb/pumP/vX/4ycH+2zxPh8/9Rk29P52F5kivdZ6xAC+FQLHY4+A3FMQd9Y91bq/P0MmXjaeJkdmSJvQ4yptuvBgawbYc//ottSL/IJijXbfjh/tq+Re31ruBG4nRJ2rBGL87a9SVb1dduadLjNqZk9H4m/87iCOsoLojqglXGZrEnPt9YfzO5du8v/ZQ+/eiuy39/uNoGSUrQ8CYleP8p+v2yoVKwvociEZUsFXdXGYL/iQ/LJzp3Wj5cTfAhqaGh188or8/0tje52rjIx96pBWcIf01NTPpT87OtknU4bOeZSm7fuxrEy60PXuiVVt+PKHf7yGm/fp1g5df0nBf2x6GeIt0oCcHn4iubhYfbZd6P/LC/e98Uca3WJlFoksyvm4Q3IQ7EWE9byAUmXjb1Fl8/Iw1Y+D6l68Bf3J+wv7il2HHyO4yCi+EfbjZiEcyLOgTgX4nyplW3RUYPTaTBNK++2DOZhNm71jgVlBn2wtTrc9QUXnJeJEgGOj2XLlkmXzp3L+s+ycopjwrWuiXa8YD5ae+/XH3b9oMdFULQxxPRv0NrVH0ulOsTs4JiJxfrc088B9jns2Ip9fCU7/C5/Zf586V8PLWqR3wsWLLAH31xzzTXSo0cP+eabb/x+oIrweyZqy67At87xrZRWixQX2KQw3IqHVlRwZIwb47+sTt9ekfR90JLK6PsF24/3pNoav4d35Ag3RD9l/0TLLa2t262UXtB/Gfra6jpbrNP+2jQSjPr59L2xvcgUtSVa3WPAq7ZanC+TfAwl3Dn70cMlF7fa7XlaRi3LlTydXrDjZcl5Z4LkxOs0vbbrwYGsG+noHmh0qFbKIN1Ozju50mvZVZK55/u1236L7jLCbjtcKfl2S+EZco69jrB9jeTtwa2NE6z/rviOkZNs/WIZv07fG09itH7CItRVXhDVEQS7pkyd6l+J3U703nsb/Kt4UuyCFJcqJTpSqhctpTqMvHTBxacFxHQehjYPP/R1rIucDRvW2605lFgQqJmvF8a4QIZTT9VyovuqOqw6obsbAZhtD4+Sm+22lPslZ+bD8tRozFwjt1z6oGzVhcpuoY1ePgLoIwZPpjuhU9mTIhNdZB6i/NuxVs08NMgXTVsfGhPOw8tzH5GngzzM1jzU+Xabjw7j52BEHuJpm1QtZcEunMZCcqruww0bqnO+xP7Aec+dE1FBx/kz3GuNTrdzqA5dX4a+Eq/TogYEPPQLg4BlUIknShQIduEWrqDvIfxef68GxwrOdziHlVhAS8J/TMNEHEc4VuyY0Um6iJTiRxXee+89OeXUU/2rpg2/h/D7CL+XDjZ02bB48WLrcB79xV1wwQXSSX93o18uBrwqqzLYZTpIuLN2dKy+rpdYJ/IYWh9YCgEh618rsyw49jcsF7FMpKBTeXT+jm0FQa0Abke098BtgKDvH+4wv47eA8LBvHx/S+EI/7oCBL7wVF7cvhltO+VU8fmOnOjmo3P+dfhcCOrlueXqqdN6BrwOwMCjs9zI9uf90wXbyrjgyYB7Vsr4dXfJoHVPSz5iLRWDPeXUdj04kHUjdZPZfS+y7YhuJ3/7St1ehmQffX6tv1PwtEZwT2f0EJiyebq9ZVfJoEI9rNv6vIwJ3/Mi36quWN/fP4mxXMOtusoLogN34403ylQEu3C94a85zj13iPxh0cLyFyFRK1x4shxmocUJ+q5Bq5KgFyXHWuxoCvrqwDyrvOmPqK1ZdBL6EDt38GA/gRJB7969ywW74NwhWk5+v8i/gij7s6IP8mTstWt0pIfMeOxqaa9lrO/MhXIx5v35OsldGmwjRvmI8NrSJXJmVpY0b9bMaj8oXVbCEvTauVweWvl3efj7RWV5WNWFP3Ik5cM8ueS6IA+vkQxdp0+Qh2tdHiLv4rfughRZGuRhxH6l2FBJC1dCdFfZPhyM42Ch2zlerN1oJVSXs3Oi/rD+tvw8sHMoko27hH0Zr1gsXDDfyhHeH8tWddwQ1QecUyKDXSjCx7bLkJatWsp7613QywWAoxfu4OyFnzhOUv1DOIyV9eAYcceL9VuHkSosWrhABusxC+5YiXNwJbn6CnYB+ut67LHHrNP6K664Qo444ghr3UWVlfs9U5Uj0QLJB73Qh9WnCBChmYXWRDPwpMGgdZfWbn+Q60ZtOU3hYFiEdpPKgkLYVjloZaXvZe/hX6N1VVhdvEdAtxU8rRHCT2f0EJw6EvN1ffT3hZu08NniqurzYb6+tqCXbnfjIE3jdTl9bZ+3HugJkQ6Kj0JbPtfkX1VfbdeDA1k3ArZRsa8wU0fbD4v1PvHhM1Strj8rUe2gnwYk9GmwqegD6+cg6GdDJ1n/FxVhmutjA314oU+aUusbYdf8+0Mjx1waen7D19YnTdBfgutjw/W/hPeKBtvr2KlTaMP//M365kBfNujvJtbyVP+w/7DP9+k+RTn5+5aikI66vlD8MtGUlm4JPdDDaheh0+8rDP3fnm9CO3Z9Fdquae2vu9t0kctCv9ft4D3iwfyRo0Zbfyzob6Q6/YglEnxE5Bf6kHF5+EFEfzJumWiQhzMj8vDTPV+HPkYeflY+Dxf5Yyb+tsryEP3ZlMtDv0xDQJ8lidqHVwD5g3zC+XLXni9CLVu1Cn32+Reaf/58GSUD3TpuH+tpLdyH164FD4TPl5994fvw+tr1Saf/bZ1Y+xGTs7J6h5a+vqz8cYAPQVRNB6MPr0goje58V2J9RN1622TrzxHXAyjb8Y4X6+9OyzXK9p6FD4RGjXXHSrgPL51enT68YNmyZaEz9XjBOjhecM2yX9drqn14BVxehw5qH14ffvhh6KyzzgrddNNN9rpEN37RRReFhg4dGvq///s/m3YwoSw1lj68ak9rk18g+ZexYJmqlFumYt9XB+M9aqsanyWaKt8b262Lz1cz1YjZU+20lQ4tNPlX1Vfb9eBA1o2AbURtEVVH2w+L9T7x4TNUra4/K1Ht4A+dlnQ8o117u03n9wvxfCT7DW3DirAs/grrWiWgxYJPA8ZJ3kOzpF+Hsunp+Ousvgjew/6wWgHeZ/36DdK8WXN/i5V/X1s2+meg+ufKiu5b3Z+/uvoaefg3vxG9KvZzYwsV3CvWuEsukxuu1LOebsf9hV6k/a+ekDtOx7zH5NzLC3Rv2w0tMe3c+bGsXLlCzh9+gZ/iuWtKN94IIC9dHj6or9znjvvNNQ8n+DyceOXxtgq2gWMsMg8Hax7qdXzU4wyQTXiKGvLwZ5qH1kdUeNnGk38NxmcRsuyw5ofJxRePksfyZ1u+2qwo+Y5JdtxYwj5LkXQdpva/RnIfelT6HY9zJJ4ah/Ole9pjsE60fYL3evfd9dZ/F1rpBWxxJKJEoWU1+J1xaXaOPD1vnnz55V49R6FfrsplG4Kyj+MFxwOepohriwdxbeGPldSUkB0vOJZci8n4LRzz8h6Uq/V8C1gsRdf3b2TT6ODYuHGjPPvss9KrVy/p37+/TcOtjFTX9LoK/WlV1RopXp9bgbjL1Md7VFc1Pks0Vb43tlsXn69m9HRGREQHW3DZN+m2yXLHjOnWRwbEuhx0F416ksbFpo4ElTkkdxHqb3UMlvPDaPBWv7ryCvnNIw+7Cfqu7h9GY6xEDSKopKDygsAogic2JUblBVNDA2bJvq9LZM/eR+UsXQ57FJWYQ1BOUjpIzrJvZNeX38iXD/V3gQPff1FFmHTP3fdYxcVuZ8SWdBrKGSo78So8CUM/b/A5L6uYhzo9WjZiUqnm4VffaB7ue0R+YtuokIdvfm15+MXD/e3YtXyMsi1k2d333O3ysHlz2w4+jRvqj2jrUJjlk88zZNZ1E2+woOXevftc3kXNdLd8sK6dF7HfNOl/HXfnx3A51mXxGsOoZVonTZ82TSZNmuzfzq1jY9GWJ2ogKI5BiWzTpo3dgosAsU2NnFkBJmM2jg0bYlF7jWME1xh6faFL2THjl48GhweCw8XbivW9h+rxgil+HWyIDqq//e1v8tRTT8npp59ut/ZDrEAnUVPGgBcR0UHm6kx68ZeCjpi7WIfaT82dq9Nd9+FxL090prt4dBejaWllF6eWMM8WjA7XPgsXLLQnM3br5u7ZctehaKWiI3HfnOqV7qwgwHlY82Zy5dVXy7333ONmoaxE21c6DdNxkRvMRvk4ND1Fk/vrPV5jmaAjYqdyqfl7YaGsWLnCgm0oJFgC/btYeam8eELCZ7WPqz8OO+wwa+WFPLSvjRTte9hMl79oUIdXCJYcgvzTfEQrSlQMgzzEfKRo29qEPFzh8tC9py2JreOFy0uKD1mlGYXjwCrxg10lPoRWK5jtsjQq2/c+odyjBUvwB4Ig63GMxbPeV+AHB/13+f3GCjwlJCujrrxfd70LEOOhGRb4iHOwWHHW2SjXLkCM854L9GNbNj8YxoBZ06ZNk9tum6znxlK3LVtHf9j7u+Wo9rAv0U/XP//5z3LpX//6l3zxxRfy3e9+137XUWM0UCRLD5KsVbVrTUXVxoAXEdHBZheVuCB1F5b33Hu/PKQXpVu3fmhPC4tzPVnuojO4GA2SmxdvbZGdn+yUe+65W+574AF7rwBWq8bqVI9QSXD1k5CVlcsuy5FNm1wAxSlfe8Ard4uiL2AKlQ27dcvKiFjQBg82wGy/6bKdHwEtaK688gp5+OFHpVmzso7WsT1T/q0Tm35m1zIhZK28Nm8utFsMXQXQL1MOlnQBQ+wD5Nchaa5116F60CEvgzwEayEXcSwF9mrF5PLLr5CHHn5Y87CZfY6gMpmCXp+DDVBcyCbklKs8p8itkybLSy+9aAFZp4rCaPle/nyJoJdtFxuOIzgOHn/8CQtuAj6HJbyo4q2JGkJQRlu3bm2tIq+7doIVVUtxyiyOB5RrPTzCtzemo3UXJmBGFeX9ueees5asPx08RBd3x4g79/ptY4QOyNq1ayUnJ8eeLnjJJZeE00UXXSTr1q2TG264QU7l0zGJ4tLLASIiOpjsok+vOoNrSDxFZ97Tz8jw88+3SnJVfwjFOkj2V1gdOUQvTN223IVlLPjL4NgxY+SOO38t3z+2nU2z7egHwlMf465MDcLtEtfS61uHHabl5FmtvFwrW7duDVdgIrmKuP7TFVEm0rSAhCsuOm6VfkxD2XGFxgV+KrhWK0gjRlwgXU+3zqpcedXl8Xks4Udj4b8eyjkqY/OeelautzwsjpqHmOIqjDjGfH4hD9G6S/MAwa/IPMSyFTMEWXrtBM3DC0bI6ad31yk+73Q5tC2ycSxI1WOZ5VpWHfGdVjJXz5cX//KX8tlnu2Lswwj+XIsgpavAI3Dmd1mcFXFc/OIXF8pErUCe0tk9AQ+rYD1LfpwokVi59AktGRHkb6bnvbxcPDXNBfOrgnKtpzh/jnPnzuCcGMuaNWtldn6+/PbxJ+z8B+73kRvGXZmqDb/DjjzySAtmfu973wun73znO3LKKafIoEGDrJVXU4aWwOi6gCgWBryIiOqFu/gLrgM7duwkt942Wc4/b5j8e9cumxdcNEaDtVGBc313oWLuKnGxINg1ZswYGT7iAjnjTHS87BYO3j8l3ptRA0Jl3d1+hUpHq1ausn/+eedZwAZ1l3DlAj/0hZUHXTZolWSVFq21IDiDcZuuCRUaLIv9H1kHuvnmm+0lKkqRFRe3LH64aY2LC5bgOGnp8/Bn50fmYUQG4LvqAMsimGx5pRNwvCEAhnwMT8c2LV90hYhN3HJLkIeXR0625WxZJKo+lGvN6CDrMtplyD33PSDnaOVu167dfh/akpVYmdW1gnMk9l8QqLRZMYwdO9b6whk82PVFFJQR+wMBVoyzLlGDQvH0CeM4Vl57banMefJJmx3rWAFXtMuOFRfsss3EtH79emsJ+fTTz8qhaM2q28fy2Eawbrz1qfq6desmjzzyiPz2t7+V/Pz8cJo3b55kZ2dLenq6X7JMaWmppaYCQUFc8xLFwoAXEVE9sItAXEiGx8X6prnqqnFaiRsof/97oV0hxq/EOba+H4+muLhY+vTpoxW3ITJy1ChfOYyovOGiFhVAm0KJJNjPNvD7uVPHTjLvmWct6LVixXKbH1lOsCwCNO6v8y7pf9sW9jdeYx6Sq8y4Cs2uXbtk2LBhVmF56KFHXDnx2wyCBXh/pMYE3819x7LjDQHmec88I+efP0yW+1tEw0EvP7AWQbqs5aGt77YT5GE4pZVtN5yHh2oePvyI7yPNzbf1sJBNoZpAvruhTzqOJybee9/90lfPbe+++67Nj32+9CMRokwy2Ic4XyLYNfHGm2wfBrd/4xhAwrqx1idqaCibdm4Phjry4kuvyMqVK2XChAl2rot1rIAdY/6gsXEbi+7555+XK664Qn7/6mJp3aaNnj71/fT3j9uGS1R3sF/S0tKiJmupH8Whhx5qiYgcBryIiOoJrgODCnQwfnb//pL/28dl7NgxMnXqVHeLoy0dXbyLSfyF66677rIK+MOPPCrDL7jAVd78la4FuXR9nPjjvQc1LOwjKye6v4Lr2cwTOsrSN5fJtGnTrbJhTx7UnYjlghQEMoPaSlBUsL1gni2r09D3Cir5I0eOlMmTp1h5CP4e7AI1br3wRhob/ULICvve+M46fsIJneS1N960J/BdccWVEXnoVsHQ5ZF/HST9EcxDwrbx+rnnni/LwylTLEjiDrWgdZlfF5Oo5jQzse8sId9V127d5cWXX5Yrr7zSWiYiWOVPb1FZ/sfZAY8++qj06NFDj4HJkn355W4f6h4LH086tPW5E6kRcGVWh1pg0eol//En5Nhj28mP/vtH9seSeMcKxDtW8Ic0XFssWLhQ3li2XFq3PspfW7iNYt1g9XjboYMLgTDspwv0+u9b32JP6ETAgBcRUT3CdSAuBu2pYf6iEBXxhYtetYvRH5x0osx6dJZ8XIP+CFDpmzNnjvzwhz+UXbt3y5t6MXpq5856MWp1RoP3sgthHcG4f2tKVLrf8AvaVfjd/mp5eEtZ+sab1kFtz549ZOq0qbJVKyEQ7E8MI/dtxX29cMECq+AvWrRIXn5lvpw7eKiUaEFBxQWtAIL3c0MtK369xgbfG0Xf5aHPF/3RsmUrC3q5POxpQWaXhwhzOMGykWyaTwsXujxcuGihy8MhmofIP8zXBcJByPBrHaEaQx5CUBbRihGOPTbDjoMWhx8uP/rRDyU3N7dG50v8YQCtVE488UR577335I03l8mPs3pLSYnbhxAEu8JBLz+dKJHhkEFZDTf80QJ91TXjrJ8t/LFk4KCBsnx51YGvSIWFhdZKLAjuP/PMs3LIoc3s94U7YPyxguPED6nhIOB17rnnynnnncenNxJ5KXrCqsFpj4iIDhROujjzojWBa4HlpsOn//xEZtw+XRZppbpTp04y4oIL7JY2XEPiNf5qi/4zABeiS5cutaf4DRk61B4NnpGR4batyb2Pb21iCZVGXow2FsH+wxCV8aCcYH9+/dVXcu89d8tT8+ZaP1+DhwyR3lppxzx04IpygKc7AVoyLVy4UBYsWCD9Bwywpzp169a9rAzaUq6ihPKBIuKCNm56Y2Z5GBxnGPd5CNHzMMu+e7w8HKB5iI7Nu3fvEQ4WIvcwRN6V3Q7pjrlEgT79svT74WlfjYntQ+w/HcGwxBdYBKN279ql58tp8uILL9j+wvmyS+culvd4jf0anC/RQgX7cMmSJTIU58vJk+1WV2zfnYvLyn04UGopcfYhNS7t27e3ABPKYn1wx4obltrvDIy51zheXlu6RO675x57+i9+FwzRc16rlq2snPfu3duOFfwBDYLzHa450FfUNePHh39nYHv2JwKdYOc8+wOe+6NBXR8v2F5jrapaPumPKVOm2PAWvUZL1++Dh6Igm+o4qxoEytiHHxbLT87qKxs3f2DlAQ95cUFQv9BBVt/HGTU+DHgRETUAdyHkKlmoNEeeiXGBl6oXj3986y158cUXLLCFFTZu/Ju1TvjRf/+3LYdAWP/+/bWiXtbJckjXxQVpABdU4QvSiGnUOATlBMPIoJfuRduv2JfvbVgvixYttP5asOCOHdtl27Zt0qNnT1vyqDZtZPDgwVZOUHlBWXPBH92ebtCVN7c9t01XQJKpnCDfLOiFvNRxJHxBBDZQUXtvwwar4L2FPNTv/cnOnRYg6da9ux03CIBFy8Og8odlkF9BsCu40K/ryt+BaKwBL0AeW57b/isLekFwHPz57bflpZdedAEuXfaDD4pk9+7d4fMlOr4fMsTtQ8D2rGUeRvzZMdiHyXocUP1qiIp4cKxgiKCXDa2Mu7KM4vzJJ5/I668ttd8bFuDS2StXrpAuXbrYQz6wDM53Q4YOk3bt2oW3GZzvwP3ewPHnA/w2zc2rS3gfd4w2PkG+MeB1cDHgRVVhwIuIqIG4iyFUuFKs4mUXk3ZGdqdlu5DUKwZcM2zTyvdPftLXWjS8+eYyObVzF7cU1sdAEyr1flW7kAr354HtuMlJcYHV1Nhu9fsZD15CgNSmo7D4i0rsVlQMUHk5Wy888Rf8l195Rfr3H+CKhP4oC/ZgW1jDbSf85E9sxxeQZCwnQWUN2RfOC32Nr4rvi+8efG0cZ2+9tdJaQGAJt6ZbL/I4C9YPKn1BPkKQl4miMQe8wLJdf7h9gPOl3w2YqHnt8t7lebTzZVDkbd/71ZAwEfsK58sg2BVIsF1IjUxDVsRxnrJyriPhc56+Dop0WTl35y68dOXdn+/8+rYeRpQN9EXktUVwzB2sYwXHZmOtquJT46Mz4HVwMeBFVQnu8iYionqGawGraOkIOgm328k0paSk6oUSgmAuuPHh1q12MYFKHAIafXX8r+++a/P2a3LL4cIKFTd3EYUnybnb0xjsauyw26yc6Bj2aeTTFnERjX2/X9O//v2ZlZMNG9ZbS0A81fHVxUtkvxaQb3QhKyeadFHlKvnpCHbplYArdzYjacuJBY/1y1llTVNwYGiWWB7a8aQZ9G/Nx7M0H88/b5g88eQc+VpnYjpSSYnmny6n/209bMJtL/L4dYnqFnIU2Ypdh8AU+vRyLfTKjoNvdB99EON8We440GVRUcNexJPObN/Zttw04C6kxgzHCUJXwTGD4oyE0o3zF35n4FjAcYDrCCQcPzhG7HyHaTqOZV3CVQnOc/gDiR4vlnSC4rFCRIkMv9+JiKiBBNeJuHBEskqcDd3FZHHxVun/k7Nk2zbXOTmg1UK/s8+yW3dw8YpAV3gdTW5drXS7ubYOL0gbt2D3YYh9GQRYgvLyuZaJ/lomcHtjAEGvC4afZ/28BeUEZQJlA+sicBYERrFNF6hx6yajIO8wRMAE39+Ch/paB2bXZ5/ZsRXkY/alY+WpuXOtsqf/LR9d0AzbkPA2glsZ/WboIEH+Wv4HCeUf+e+Pg3/oeXJANc6X4eNAV3R/bNCkI+4YSO7jgJoOd4zgWHHl24b+NYo4zmnBua0ssBWkspZdwXrB7xwkHCM8VoioMdBTFhERNaTgwtEqbjq0C0qd9tE/tsnAs39SrvIWQCVuQL+z5P33NujyroVCcCGLIa5Bg4ohtk+NH/YjUlBObF/rcM/u3VYWIoNdAQS9fj78PHnjtdescp+eniqHaOGysoJKi4UAMGwa8D3dd3VBYgtcoSKoLz7frcdU/8r5mHPZWHn6qXmW9y645fI9nIdug00mDxsa8hl5jn2GFoq2P3Qc58sBZ5cPdgXKnS9xHGjCcWABTzsOHO5DSjbueHG/L1DuLdCrL3CdYeVfX9vxVCnpMv53RRDUD+YF1xZUC5ptuGUU/xo7FxBlOaDExz68iIgSjJ2U9ceTc56UbcXbwpdF6FQWsrJ62xBatWop14wbbxeswWUHwl28Fk1+QTlZsGC+rN+wwVquYO+js3V0vj5y1CgsYZo3bybjtJw0P6y5lRMrHlpImnIxsfzCgaKDz3btkr59+8gG/0S/aB5/4gkZNWqMjrnbhNyR5jbRGDT2Pryi8UXe9uGcOXNka/FWm46J2Jd4eAOevhnAUxvHjRtn49hvbjc27eOADp5E61sIxwsOGRvHmH8dnApNsIAdH/iTiGsN6Y4V+1+vEFxrrFXVIG/Rhxd+J59xZpblpQsaumUaO3y/Xbt2y8KFC9iHFyUsBryIiBpKQY6kDMr3L1T2YgnNHuhfuAsJ91dAvdjUC4dpU6faK1w8AS4EAcvZqI4E06jpqFhOVqxYIdOmTZNly5bZfJaTqm3dWmyBQqNZs/7dd2XuvHky84EH3DTQPEOwGTnXGLMvGQNekSoeB3OefFJWvvWWPPHEEzafxwHVt0StiOMYwIks+CMJjpyKcGwkwrHiPkflz9cY4FPjo3/w4Ycyd85cd3bSbAwHECEiW1fq724E5Tt36eKnJIZXX31VOnbsKB06dPBTlH0Z9/2wf04+pbP8dMhQa3HLgBclGga8iIgaialTp9qwYsCLKFKsgBdVHy6ep0+fnlR5mOwBr4qefPJJeStKwIuovjSWini0qmCiHC/4HI054IX+0ErwIAAdwWuEuoIWXpFZfPv0aTJDf+fAY48/Ua6FdkO67JKxMm/uXGnevLm89PIr0q9/fz8HdN/o98J3xD7CA3EQ8DokPXiwgVvqYGPAi6qS6odERNRI4AKQlTeqCstJ7QX5xjxsvLgPiaonOEYiE9WBkOatjeCnJh8YKkEqLUvTp5UFuwBBJtyiHblMQ6RLx7pgF6A/0OHnnydLCpaUX06/Ex5woKP2LdG3IksPJRoGvIiIiIiIiIjqCOKGFurSH2jtFLTsctwtowh03XF7WbArkHPpJfaEYCzTECkb7z/PBbsC7snP58trePKzXw7c93MPOMAwmEaUKBjwIiIiIiIiIqpLFgzyT/jFE2JTkfDUS5Ffz5gud2qKJeeyS+TZp+bZEzLrM12u7/t0hWBXwD35+Xx5E09+1u9gCd8n1Q3xXcv1UUaUABjwIiIiIiIiIqpjuM0PyQWFXPALHbujX9b96N/Lp8mTp1iKnDZmzGhbtj4T+j+M/Ax4WMuby5aFX//niy9l0KABZev476P/7Xsy2kWJhgEvIiIiIiIiojpksZ9Q+dv+YiUsgxRtXkOm6nx2JAt2Bd+ZKIEw4EVERERERETJrahIkx+vJxbIwtC9TGoMdlEiYsCLiIiIiIiIkldRnkhmpqYUkQI/jYiSHgNeRERERERElLw6nCDSEyPZIpk2hZJARkaGFBcX+1dElTHglXC2S8GmXMl55+WqW9zuyJVeyyZIzg7/mjyfh5vednm4523J0Xzq9c7bNpeIiIiIiJJEtEpTpWkDRVaFREKzRTr4SRXV8+2ORHTwNe2A156XLWBkadN2P7GhfSQLCldK/vY/yat7/KSotkueLrdalzmphZ9Ens/DwjWyBS9bHCMnSbGs3v685MXNUyIiIiIiSlwFrmOsXnkieTluHLcppvQS66MrR4fBtF46P8yvZ8tFvI62Hd7ySJQ0mnTAq2DT07J6T7FLhS/V6NxW8M4wSVk4rOECZXvWyosI3rQ4Q85hwKsKbeWcthk6LJYXdyRKYJOIiIiIiGpl9XiR8fkiPe0+RUwQ66MrX4fBtNU6P6eKGl54O9n+lkddf0aezSKixq8JB7zelgUW+8iQnhYwWikL4twaWHTQWgZtr9W2i3b8Cadj6dm2e+xWuVG2W9V7Fe2pKiAU//NWvX51xN5G3O3rvFgtkTscfYb9Dlu9fS1bKxMRERERNXaLt4isWiWyJddP0Kv9LSE3bXG2m/T+ZjeMx7YzW2Su387qF7XS4UaJqHFrugGvHWskH8O2P5e51vpHJH9HxT6etkveMteSK9OG6C/LTRvk4y6rC6+y+a4frbclR8exXNmtc8G03HItyAo2TZBeNv0qv+2atBbbLq9ud53zndyirQ3D77PsZeu/CtsOPnPenu1S8M4Eew+btqz8Z7HvGZ7vvg/6u4o8z1f1eYt0fuT6KeH1q5MnkZ8d29Ft6HjZ+1fx+fa8LDn2vfSz2bw1fkaEFsfIyRjuqepWUSIiIiIiSmw9RTIr/tlfr/ZjtQSIKWI76NieiJJKkw14FexYacPso7uFW//I9jURgSAEtq6S8QiOtMiS7LZZ0rNFseTv+EhOONwFyBy0EMuQk/yr6nlbFhQW23Zzu94kizvptnXq6sL7qtnH1Eey0ZbT9614O+Oep2VQoX43/Uz2naRYxuv3GLS92D6nTduzUgaFO3D33xPz2+pn0c+Trdtcvf0uGRUOaFXxefe8LKMi53e9SLL1M9aYfXYE8iLzt6rPp/PXPS35tp8ydD/puttXumBmOcf4vCr2eUdERERERBTf+vXrZcWKFQc1bdu2zb8bEdWlJhrwCm5nzJKhR+ugRXcZUfG2xqCPLF1mcd/xMvu08bKq73wJndZNBp42Uxb7hlU9O12v02fKOGyn2rrJ7CHzdb3xup5ur+N4mWTbq2kwpp2cUDHgpbK7PmSfaVXfi3zQK0Ny9bPbtK5ZNkU+/8i1kAr3BXaRzMV3088zu6tbr+z2vyo+757/tdsrRb4v52D+0edrfp1f8z+wqJ6dHpLQkJkS6uvXr+rzldtPM/V9I783ERERERFR7U2bNu2gp+LiYundu7d/RyKqK00z4BW+nbGHZKLfpz0SbrUVvq0xCOK0+L5k2oS6tt1uPcx5xz0lMrhFslr2fCTv+9HK0OoruM0xED0wZoLvuedpGRU8sXLd0z6AFSnO5z26h9hd8roNd0vhy1JgQaiaypARR1f47FV9vmj7Kbh9sZy2uo/9KBERERERUTXMnz9fli9fftATA15Eda9JBryC2xll+13WJxQSbvlz0yJvazxY0GeVvmfhSnn/83Zy8uHtfMf51RQ1oHOAWmTY53DJ3cKZHe4Qv6rPixZgD8nitu6WydXbn5ZBlfoJO0BxP191bJfNn/tRIiIiIiIiIkpqTTDgVfZ0Rhc0KUvuNrgKT2vc87+yxY8iaFLjJypGa40VbmF2k90miNslJ9Wq9dE22VyrllTRnCET9XPgs4RTR9/aqlqft63d6rlqiOtjK+5TL+O2UIslxudr8X233yL3U622T0REREREiW2gSCikaVVZB/Udxvlps/0ENVDHMW2VznMTKqwXZTtRpxFRY9bkAl5Fm54PP52xXPBEk+uXyt/WGNymJyuttVLOO7nSC63BNrlbHjNbuFsg0XE75uVZcKesY/Tx6ybY7X8py6LdHuhtX+OeoLiphrc01mUH7EcPl1xsy24ZxPd4Wwp2vGyfPafiUyNjfd4dyJtg3TXyvn2moEP9GuZJRVV9vnBrt2A/4bbHaNuP09E/EVFNFRXxkeVERERERAmsiQW8tsur/tZFPJ2xooFH+w7d7bbGbjK770WutdKelZK/faWs3pMRXq9Dx5/7lkzFNm+jTW0r43yH6rIH0/2TBSt2qYUgDp4mKCvdExQL9fO09e9dLWX9Ub2/p0aRsijwmf2TD/V7jl93lwzCUw+x2SAwVNXnbfF9yyO3ruYTWs91vV7G2frVzJOYqvp8bj+57WM/6f7V7edW3H7Q6qvFGXJO8L2IiMopEsnpJdJLU+Q92Xk5blqOn1iUJ5KZqSml/HJERERERJQwUkLKj1Ms6Nhe2kqHaIESzGuh8/zLQJFO71Cp8/iKcItkjO1WZUeupKxbKXh64ZbgiYYHzN+yGeX7OFV83nj5pKqXJ/HE/3zYfsx5myZIZqELhuFJm0SN0dSpU8sNqa4VifTKFGsiulh/NQ7EJAS3xtvc8DREuXoN0uWyRbbMTrjbHvB4czzxCR3g1i8EDEdJ3HvKJ63yeZjYGi4PD54xY8ZIVlaWjB492k9JXrt27ZK77rpLNmzYII8++qhkZLhW+UT1qX379nYOYfmrvZSUFGFVtWH16dNHpkyZkrAd6if656OG1zSf0lhTCKLECvLECLBUL7ATZ7tVCd/q9yd59UBvawzD54n+fZwqPm+8fFIHFuyC+J8v9rygZV+G5HZksIuIqqtIZJQPdmUvjgjU6Mgq9PGReMGuBvf+apHVcRLRQbB+/XqZMGGCBRhQQcZw2fLlsu0f/7DKEKYdccQRFvSbP3+BX4uIiIiSHQNejVZbOcduK0Q/Xgd6W2OS27NWXkRQsO3P/W2WRETVkDdKrLVXz1yR2ZHNkgrwZ2dNvSwmRoEOPhCItEXzzU9GyzibpikyG9EPGtEBeP755y24hUDWsce2kzeXLZP9JaXy6b/+LWvWrJX/ef9vUvThVvmmJCRbPvhQfnxmlsydN9eCX1OmTpW9+/b5LVFFN998swULGyKhhSUREVFd4C2NRESNBG9pPNgibmnMzRUZj9Zd2a4lVzkIeA3SYU+RLYn3JKfEuB0vIi/Dt4J6eb00byNae6H1XLmAYsPjLY2JDfsHLbo6deokd9x5p7TLaB++7am0NCQ2FlzdpmjCuB+mpKbI57t3yYN5efLUvLlyww03yuVXXG6zqQwCiXfe+Wtp06aNZluQmQffvLnzpF27duHfc/jbQmPFWxoPHG9pbHgIQvOWRmrMGPAi8lAZKC52DzU4GHbu3Cnf/e53JT093U8hqhmUz1GjRjHgddBEBGkCaN0VfqR5IHbACy1OZs+uGCCrX+i/CJXUgoKG7FE/RsAr6BOtZ7bIpKE6YbMI7jCbXTGPGxYDXolrzpw58sILL1igq3PnLjYNQa5SDHFFq5e17sI2xcbDtOJsDTPLXso/P/lEZtw+3cYffeRRmxnMb8qQa8e1by+vv7FMjm3XTl9FZExEltY5fY/bp021t5oydVp4f2HYGDHgdeAY8Gp4DHhRY8eAF5GHPkBQUTxY8NdoBCu6dHEX6ES1gfLTqlUr/4rqVmSQZrHIIAS1MK6/Jss1QIod8EJgu7Cw0L9qOGj5gqBXw4kR8CrI0XzNjxFIdGbNmmUBjYaUGEHDupUMAS/8HsW+eejhR6RZ8+Yu0OWvYjEou6INWUW5XHAGLyNeu0AKgmAh+W3+bPn9okUyf8F8aa7bbaTxlTqBPELI8LjjjpPXXn9Tvn9sO+RmMNcPDwb3HnfcPs3GbtMKbHoq9k+K6KBRYsDrwDHg1fAY8KLGjgEvonrCEzJRoqsQpNkc3HpX8bbGxL6lMTHECHiF887LzhWZOI5Bw3rQ2ANe6FOqWbNmMnnK1HCgq7S0VEIIhui4BbgUfrpAlr00waWu+4nXZeNueZHXX1sqv83Pl+eef04Oa97czWyCkC/IH7TwKnj9TesbLeDyOMi5ulS2sxDwwjtMum2ypKeluKCXvg72b2PCgNeBY8Cr4THgRY0dA15E9YQnZKJEVzFIE/G6XD9TDHhVLVbAC3ReziiRfMyEaP2kUV1rzAGv5557XhYtWijPPPuclJSWiv5HTdhVhFPcE5iCIBfCIjYZ4/hhr3Gpq8v7YA0CZm79YJ5b9rH8WfL+e+/JI48+Iql+3aYGuYH8Of6446Tg9Tfk+8dmWF6k+fx0uXUwhGy/zrh9mr269TbXwitdd26wbxsbBrwOnJU5f4w2GvorrtJ1QbRpYTqzSGcm6LVEotdfBg4cKOPGjZMBAwb4KUTl8SmNTcZ2KdiUKznvvGznXCIiqopefc7NdaP5gyzORXVB83X2Kq3fLraYoWYu85Zievfd9fLgg3ny28efkBK07Cp1QRlUgnGrG4IiaZowjiEqyKl6dYsgDaa5FDGu66anpfrXug0dQTAF27v0shwbznp0lpTqsJFVs+uQZojC90feaHb5PA7ZuLW8qqNk2/Pbx2u8n1N2IyVR4sIfwLSk9soTyctx45ma7CnO+OOODoNpvXR+JDzABfNSMv06mvIiamnBfGzb6Lxefjn+zgxDS2y0DCeKBb/3qUn4SBYUrpT87X+SV/f4SUREFF+HcSK5FpURGVThYpVqDn144aIffWMVLHAtwBD10ut9omimT58mE2+4QQ5t1sxaHgVBGBewSrGgiAW0ELiycT8dLzyMIwXTMQvLIciS5qcjwS2TJss999wje/d+Za+bbtBL6Ze3PNNR5G9aKgKF7nVdJbdPXEASuwDTANOIGo3V40XGo39Kf72AX26Z+osNLZmDaat1fk4QqdIhukzAA1zQZ2iuDmH8KNcaDMZNckNsG6sV3Ot+Z6LFeblW00QUDwNeREREpoPIKq3h4faJyIvJcWiNhOnBbXc6017zdsYayzzJXfTjgQDovB7BrsVzmY8U1fwFC+xQGzxkaLhllwuS+BZHehWLQAzmVDc8Etwe5wI3LtBlLcOwLZ3euk0buerqa+Tmm2+yABveFJ+hKbKgk373cPDJ8u3gJMC+wM6xt7NMb6IZT43T4i16DaHXBVt8y3Dr9kDLMKYt9gGt9ze7YXAdsUqvKwbq+Dgd2iKrdR1bQOn0YL1BvURm+N+ZEyMvUIioKgx4JaXtUnSQWnEV7dnux4iIiGKJETxEizlM26JX9KgIIGg4kNEuqkxLh+Tl5cnV464JB7sAwRAERtytiAhZRQRkasithmCZuz0yRX9g25dm58hT8+bKF3v3anHFOwfv3jQhl5FXtcvlyjZu3GgpUm33IVFi6CmSWfF32clV/DGnyN0Gidsee2lCPKuigRNt0xYIs9Zdk8LbxG18hx12mDsPHsS0du3apHqACzU9DHg1Ctslb9kwSVk4THJ2+EmwI9empSxz/XIVbJogvfB64VWS6ZfvtSlWgOptybFlJ0heODgWTMutcGu4vv87E2x7mcuuctt95232BUZERLXTQa/YGeeiOD7+eKdsKiyUH/+4t/WnBa41kAt2QVUhkiL0oVMFVOiwpVRNaVbBE2nevLmc3a+/LFywUNA/PkNedWP//v3y8ssvy+WXXy5vvPGGn0rUFGlNC3134TbI908WOVmTBbYq2uICXYFwCzHXd9VeH5Q/mAnvgacWEzVWDHg1Cm3lnLbuCS/5O962IRTt2WbDnm27a73hbVlQWCzSIktyu94kiztl2XlzdeF9EQGt2kCw7SoZv71Y30e3q9vObqHb3X6XjIoZTCMiIiKqHQSXFi5Y4G5ltEqXm16jYFduL8nMzJSeeUVWaYvHYl4mZON4i5+eO1h+v2ih6zfMIl4h2bdvn1xxxRVuUaoxBBdPPfVUe1poWlqan1q1sWPH+DGiJIE+LAH9ceG2xtmaTnaTysmb4YbZ/tbGoD8vIqo2BrwaiQ5Hn+EC/9vX+PPcdnl1e7EOM2TE0W112E1mD5kvq/qOl3FHd5OBHcfLJEyWYtl4IAGvPWvlRazf4iKZe5puV7c9u+tFLpi2fS1beREREVGdQoBp4cKFcu7gwRb8QqDEWnfpD8SmwvGpGCw+ZT8x4sb8q5gQ6LL3sfEUC7Yh4GXr6o99+76SYcOGyZIlS2x5im3BggVyyy23lEvr16+3IBeCkEcddZRfsmpjx46VOXPm+FdESSZ/AZqiuicyVrqlUWt86Ngeta6Js8seoDMjeGojEVUHA16NRYvuMqIFRlbKAtzWGA5EnSHn2HTYLgWbciXnnQnSa9kEGVQXDbD2/K9rSbvnaRml28R2e617ulzrWiIiIqK64FpjhaR4W7F8/9h24WlBy66qol0uQBWSEvdSQuj/SycGKS4sYIEvkcMOay4tW7aSnR/vlL379smw8xjsqi4EtE466aRyqWXLln4ushn7s+oqyKWXjJW5cxnsoiSEvrmyEcDKd09zHK+jQSuuQM4gN8z1D3aJfGpjHpscEFUXA16NRvnbGot2/MmCTu52RkD/W1fJoMKV8v7n7eTkw9tJz3AgrA60yLBtupQl2W2RgvcmIiIiqgspFnf6ZOdOad3adZQcxEYQ66oi3hUObCHQ5SaI7NdxuzXRwmGxuf68yuCJjdv+8Q/52fnDZCmDXZVs2bJFXnnlFXn++edl8eLF1rk1dOvWTS666KJyqX379jYPvvzyS+vPK56cyy6RefO0ok+U0PzTFiOf2hw8nCX8ZGc1UMcxbZXOM7rwbF0nFPEAF9zWiGWCB73MxnRN44INB+8VOY2IqpIScn9Ko8Zgz8vSaxlaV2VJdouVkr8nQ3L7zpRxCGyhA/t1K0Xa3iSh07rZ4gXvDLNWXtld58vsoxEQu0vyJVin4uvy2188ZLw73wbbbXGRbOl7PgNcB6BPnz4yZcoU6d27t59CRERUP8aMGWN9J40ePdpPSUy4KEWwKi0tRb78qsQiXDoqaamu/66YAa+iIutmAeuX6I9Nvx8pQ69bI6ff83v57U87SrqumK4/UvRKBs9MiMXqkzosKQ1J3z5Z1m/XO+vWuZmqVatWMm5cUGlNTsiD3/zmN7Lq7XWS0S5DDklL1f1ROdiIQNa///1vOe200+SJJ56QwYMHyyOPPOLnRnfPPffIrFmz7MEAkyZNkl/84hc2HXmO950ydaosWrhA3tuwwaYHcP3U2OApo++++65kZLg/WFPNIQjNqirF01h+t1HDYQuvxiTitsb8SrczetvXSN4e3NpY1S2Nx8hJtm6xjF83wW6DTLFgVwVHD5dcC4bhlsZcydvxthTseNmWz2Gn9URERFRHLNiE5F9bhEUnVGx5VVGoKE96ZmZa/1AnaDrxhEwLdsGfbzhXTj3pBDnpxBNsXmZmjizWbcauRGO6m4fb7o444js23tRUdcsh8g9Pifvd734n/fr1k3POOUfuvPNOPze2H/7whxbwmjlzpu2vaHAraTLAd2Swi4ioYbGFVyNTtGmCZOJpjKpnp4dkVUfrmV5tl7x37rOnKToZkt22neRvXxmjhZcuEm7R5eApjJPkLhm0PaKFF+zRddfpuuU6v9ftd71etxu8P1WFLbyIiKihNIa/gluoSX/gyYzHtD1a1vz5L3JUmzaSnoZO632H9RViX+4itkgKcu6V+foCl7WYVvr+YzIHd9idfqmMPlnc+rpuSspQuX7WQEGoxb2uHEzD+mjhdfJJJ8nzL/1OHrjvXnnK316HAMbWrVttPBlZ3pWKHH9ceyl4/c24LbxKdcGNGzfKNddcIw888IB06dLFz6k5vC/2PVp4WdVE/98xY7qbqVhdaZrYwouqwhZeVBUGvJLOdina01Y6VGz5FUfRnu26fHUCV9i2DnRZ3tpYcwx4ERFRQ2k0AS9NCLicfNKJ8vxLL0unTp18wMsFraIp1ZX264+SEk26comuv+mhM6XbjWvktF9vlCVXZ0p6qr8tUjeBYTpuj9Tt4XVF9hn0R9ujj5I1f35H2rRuI5f7PqUY8Crzf//3f3LZZZfJyJEj7QmWBwLvGxnwunXSZPn1jOly++0u6MXqStPEgBdVhQEvqgpvaUw6NQt2QfWCXYBtM9hFREREB1fHjh1l86ZNLhISA+rBSGgRhmGJ/kCwa79/HUAQbH9JyBICWZiHITYeqzK9a9cu678r6Dj/t48/IaNGsUIVQOsu9FGFP+Yh2IW+u7Zt2+bn1o3bJk+RyZqIiIhqiwEvIiIiIkogIfnp4CHy+98vLNesqGJsCg2+LGFcE1qAoWP7NB1GrKbjZbdDBrcwomUXxoPXFS1cMF8G62eAYLknnnhSRo0aZdOaOnRqP3fuXElPT5cbb7xRnnnmGWnRooZ/ca0GtIxvjB3WExFRYmDAi4iIiIgSgw9qDR4yVF5futRaWblWWNEDUzbHAlIhu00Rtz9aCq5wdTU88fEQnXBoWqpbRlOs2yMDL77wovxs+AX+VfCxQjJ16lQba+pOOOEEue666+Tzzz+X73znO3Lrrbfa8GCYMoV5TkREtcOAFxERERE1PB/sQijqiFat5PRu3eS1pUutZZfNihKjwiTErtAvV5pe1SKYhT6nMk8YLqPGXioTB3Xw04JAmGsFZvz7RUJw7eOPP5bCTYVyZlaWn+reo4oYWZMycOBAGTdunNx0003WwmvQoEF+DhERUeJgwIuIiIiIGlwQVLLbDPX/rbdN9k/qc7ckVrqn0cM8rINWW2n6AvGstAHXSN5Dj0q/490tjql6xYvktl+WKtGJ99x9j1x99TXSrFkzTHDb9/OIiIio8WDAi4iIiIgSQ7iVV0g6d+4i7dq1k4ULF0hpachmxYh5uYAUhim4vRHBLbT4ci260PILwTALXOmPeGGrjz/eae93aXaOLezWwUrx1iIiIqJExIAXERERESWEICAVBK7uue8BmXH7dPls1y6/gBtEYzEpv34Q7EpPR8svN8/PjgnBtCuvvELuu/8BadasuZ+q66BlGEZiBNuIiIgoMTHgRURERESJIwUXqK51VUZGOwt6XfTLC2Xv3q9sdqxWXkZnBrc2Bn12paWl2jQXEYvtlltultNP7ybn+qcz2rZ0fVwsY80qVicionrWvHlze7gJUSwMeBERERFR4kBAK8UFm9DSKysrS3567hBrffXl3r1ukVi3NvqolN3SqOMu2STXSiuGR2fNko937pSJN9wY3ja2ZcEubJPBLiKihNO6dWvZqeduolgY8CIiIiKihOFjVhZjspZZ6rLsHOna9XQ5f9gwf3tjKE7Qy49EiBevmjBhgmzYsEF++9snXD9hSEHrLr1Sxrrx1iciIqLExIAXERERESUUBJgQ7ErVEWvppa/Rkfx1E2+Unj17yPPPP69TYge9wBpmxYlUrV27Vnr06CHHHnusPPzwI+FAF6SlplrLMFs/zjaaBP3+yJd4eU1ERJSIUvQXGH99EdWDPn36yJQpU6R3795+ChERUf0YM2aM3Ro4evRoPyXxBVeoJTpSWipS6id8+s9PZOJ110rhpkL59Z2/lgEDB9QoJlVYWCg333yz3QZz/wMzpVu37rZtJLwFtoVO75EQVAtuk2wKkMPI6+OPa299mbVs1dICj8iBg50NyPsVK1fIj8/MklsnTZH0VLcfkP9NaBdQBOx7VlUpnqlTp5YbElXEFl5ERERElHAsyKHJAi5+CEd+r7XMffpZefzxJyQvL0+OPuooueKKK6RgyRL5+OPKfbmgQ+MVK1ZYhejEE0+UYcOGyciRo2TV6jUu2FWKYJcLuOAdEGSxWJdqSsGuSJMmT5bDW7a0ABhgiPwJD+sqRW5PxxHsQn9tIXvVNPOeiIjqDlt4EdUTtvAiIqKG0hhbeAVwoYqr1ZJS1wLLvXaXr7jd8Z87d8qiRQtk0cJFsmHD+kodGOMpXt27d7fvP+KCn0vHjh3DAS4EVoIr4chgVxDoamrxLmQFAoD7NQX5bXmiCVlh+eHzq65gc9ifGJb4lnwIbh6i75mGPtR0vKntB3LYwouqwhZeVBW28CIiIiKihBUEWlzgBS293GvUgxGc+e73Wssll10uv1+8WP53+w7Z88WX0r//AMnIyJCiDz6U/+jrN95cLrfeNkUyT+jogyousIL1UaFGgKWpB7vKQwa7YFSJ/tivP5C+2V8q32gG1mXCdvEeLsAWKgushUeIiIhqhwEvIiIiIkpoQewDASkEpyz5q1gEZRC82r+/VP7zxV45/7xhsnTpEikuLpaz+vaVD7YWW2AFARULrOiyJaWlLrii20lPS3WBNN04g12O5bflh45oPiGX3T+X33WbXKDL3kbhLbF/7TPoj6a+L4iIqPYY8CIiIiKihOcCIK4VFoJTFhRBQMTP2/fVVzLiZ+fJa0uXYnGzbVux9DurrxTrMGjRhcgK1keLrnTbDgIs2IaLuDTlAAu+OvICtxLiKZXpmhmu5dvBT3gf2yf65uEnZBIRER0ABryIiIiIqFFADASBkCAoc4j+SE9Lka+/2ic/H36evP5aWbArgKDXgJ+cJf/7v/+wdbB8EMhx23Itu1zyKzVpZQEo5NUh6an1mtL0PcOt7XyrLyIiotpgwIuIiIiIGhXEpVLspwt+vbPubenerbtMnjxFbtM0ePAQ6dy5s0y6bbKlkaNGyaqVK6zlEJZ3fYEFgRW3PXJc0M/1a2ZBQH1leVYPKdgXSMFrIiKi2uJTGonqCZ/SSEREDaUxP6WxKsGVLAYIkODSdu6cubJy5Up54oknwtMRvHHLomN0F+giosTljllWVSk2PqWRqsIWXkRERETUaLlglmsRhIiWi2OhQ3pXYbaWSlhOk2tJxGAXERFRU8CAFxERERElBbsFzyf3OkiMcBERETU1DHgREREREREREVFSYcCLiIiIiIiIiIiSCgNeRERERERERESUVBjwIiIiIiIiIiKipMKAFxERERERERERJRUGvIiIiIiIiIiIKKkw4EVEREREREREjUqrVq1k9+7d/hVRZQx4EREREREREVGjgoDXrl27/CuiyhjwIiIiIiIiIiKipMKAFxERERERERERJRUGvIiIiIiIiIiIKKkw4EVEREREREREREmFAS8iIiIiIiIiIkoqDHgREREREREREVFSYcCLiIiIiIiIiIiSCgNeRERERERERESUVBjwIiIiIiIiIiKipMKAFxERERERERERJRUGvIiIiIiIiIiIKKkw4EVEREREREREREmFAS8iIiIiIiIiIkoqDHgRERERERFR41KQIykpKWUpp8DPICJyGPAiIiIiIiKixmXgbAmFQmVp9kA/g4jIYcCLiIiIiIiIiIiSCgNeRERERERERESUVBjwIiIiIiIiIiKipMKAFxERERERETWY4uJimTp1arkEFaetX7/ephMRVQcDXkRERERERNRgMjIybDht2rRwqvh627Zt0qVLF5tOBK1atZJdu3b5V0SVMeBFREREREREDQotuKZMmeJflTd69Gh58skn/SsihwEvqgoDXkRERERERNTgogW9GOwiotpiwIuIiIiIiIgSQmTQi8EuIjoQDHgRERERUaO2du1amTBhgvTp08fSjTfeKM8//3z49ZgxY2T+/PkSCoX8GkSUSHbu3CmzZs2SgQMH2jG7dOlSm45O6vEa02fOzJWtW7fadCKi6kjRX/z8zU9UD/DLGn+t6t27t59CRERUPxDwycrKstYSyQIV5LvvvtsCW+jwesQFF0iXzp0FF7bt2rWXI1q1kg0b1uvrkD0BbtGiRbJ0yRIZMnSo3HjDjdb5dUqK2xaVt2DBggZ7Gt748eOtXx5qGlDWcBzjGMWxOWTIEGnerLk0a9ZMunfvYeVw9+5dsnffPnlt6VJZuHCBlY9rxo2T0aNG8xhu4lasWGEPNFi+fLmfQlQeW3gRERERUaOBDopxy1OPHj3k2GPbyV/++q788U+r5eprxsmPz+xt6fs6vcXhLeWMH2dp6i0Xjxwtv/vdK/Lpv/4tgwcPljFjx8hYTVu1kk2VobXcrt27/av6s3LlSpmZm2tBS/5JPrkhUPHDH/5Q5s6dK/c/8IB8tP1jefjhR+XsfgPsGO7arbuUlIbklFM723H8k7P7y733PSBbij6U3z7+hKxcsVKOO669PPfc8ywrRBQTW3gR1RO28CIiooaSLC280ArkwgsvlH79+8uNN95krUBQKUYzD1zS2kWt/oh2eZuiy6A1CBqEYPypuXPkwd88KL++89cyYOAAm04u0IRAwhtvLpN2GRmWn/Vl+vRpNsT1UqrfWdwvyQcBawQ3Eejq3PmHWsT0nx23IqX+2I11DFuZ0FkY/8e2Ypl06y027YknnpTDmje3Y5yaDrbwoqqwhRcRERERJTxUbIYNGyaPP/6ETJkyVQ491AW7SnWeDVFZ1hex/paLqSU6H2m/LvzLi0fJ628sk7y8PJk5c6atF2PVJgfZgMDD/pKQfFNfyfahS25/6qfgDkkq+/bts2MYEFA9tXMX3delUqL7H/s8OI5j7XU7RvX4xTG/X9c75th28tQzz8q55w6Ws/r2sducWWKIKBIDXkRERESU0IK/4r+5bLmc0KmTBay0juwqx76Gi4YdqfojVX+kpaVqwtAlTMNFL+YDKs4IqOC2x0V/eFU2bdokd911t5tnP5smfHcXaBLLXwtC+Lw62MmCHRawdJ8BQ/1v+4oaPwS70PH8yJGj5LbJU3Qf635G8Er3b5Cwx3GM2rFsx3FkSnXHsZ+PFl5YA+XmZ8MvkN88/Iht/+OPP7bpRETAgBcRERERJazCwkK5+eab5Xcvv2IBqsigCFjlWH+kaQX4EB1JR0XZv05PTfVDV2lO9ylNX6PyDKgwP/ibR2T9hvXWAT5qy6wwa/6WuKBTOH+Rhwcx4RZG/e/3bYomN+4+ATV2V1xxhYwcOVIGDxlq+7ZUfwSBTQiO0+AYdccxhu4Y1kluGJQZfR2UDGzilFM6y28eflh+ceEvZO/efTyGicgw4EVERERECQkd1KPPrqefeVZatmxlFWRXSQ65QIxVkFPDAa2gBYgNNSGAEoyjsox55QIsuo2gpUj+b5+Q2bNny5o1a13Qq8nWmJErSmsJqZrSkdBiTvMJ+XyIjtdligxyYH8hge0bN0qNHB5E0LJVK3t4hDuGXZAKUrWQ2TGsBc2OYd3pdqziGNWE8hA+hrUshgNemlB29L/BbY6nn95dLrp4pAXXEFBrsocwEYUx4EVERERECQm3MeIWqHbtMuzWuiAIhUpwWYXX3wYVTj6QVTHpD8yxdfWHVaC1Bm0tRTQ1a9Zc7rn/frnyyissoAZNN+jl8sqGKakuz9KQ5y4IVlcpRfedBTH0DZACEaPUyH388U55MC9P7rjj1xaAci33XMDaAlcoWziO9bU7dt0xivmVEubrCBKOeZShYBt4je1frOeLXZ99JgsWLrDjtwkfwkSkcG4hIiIiIkooqCgvWLBALsvJsdsOUXlFhde19HAJXCUY1eSqWWXZD7G6Jf1hTwRUp57aRdq1ayfz56OyjKpy064uRwYf3C2HLp/rKgXbtBea1zYdPyzbGapIBtdeO0HuuPNOObRZs7Jgl+5kC3LpvkarLisCSLq87f8quOVc2UEZckEvtx2Umltvmyy3T5seLkZ2KBNRk8SAFxERERElFFSK7777brn6mmvsaYxBfRUV2qCijJqsVXwxWgu2rv5Asoq3/sC4VZZvnx6+7aqp15U1V1wg4QCjBlh/9+7dMm/ePFmyZImfWsYFvjSZpp7ryeHd9evl74WFMnzEz+1WRgt26XTXIqss0Bzs9ZoK1nOBL2zXlVU8/RGB6wXz5/uSxPJE1FQx4EVERERECWXvvn0yd+4cuSz78nJVVVRqUckNWnagcnsggm1hO27bKVZZbtmypSxfscK1DGFd2efRgWX2/v375Q9/+IP89re/lc2bN/uplMxefOEFGTFihB1HdiwptKhEUbLiZMdcbEVFRX4stqBYVgx6/erqcfLgg3ku0KbvwsOYqGliwIuIiIiIEgYqxkuXLJUzs7LsNqiKFWWIWknWynG86nGsyjO2FQS90KcUXp87eIgsWrSwUiuvOXPm+DGqqfT0dDnvvPMsAJKGDsGqKVprMEp8OGbw1NPhIy6woBPYMaZDHMsYwXgsRXm9JDMzU3rmFbljMDgIowifF/xxjAouzh8bNmyQf//7M7euX7+4uNie/EpETQMDXkRERESUOLTCunDhQgs6oaKKeioqsmi5Ya263FLlFeVJT60cZ+r8nAI/zQuFiiS3V4pVnjEvWsUZ23QtRFwH7ecOGSK/188Q9DmEDzF16lTrRJ/iy8/Pl+HDh5dLf/zjHy1/DzvsMJef1bR06VILklHjs3btWmndpo0c2y4jHPCyOJc/gKMex9HYMehH4xQd267ffhD4GuwD11gNaevWYunTp4/s3LkTqxBRE8CAFxERERElDq2Zrt+wXk7t3NkqqajHoqLsqqy+YltBqMM4mTuzh43n354rRboolkb6IG+UTFitIz1myvUDsESwpQp0Ilp4paam2lMhd+3eJZ+hdYjOmjqNwa7quuCCC+TBBx8sl0477TQ/17X0QqrK66+/Lj/72c9k3759fgo1FghM/f3vf5eOHTvZeLjllR5bMYPWEXDM4amswQv3hFa89tNiwHYt4b00nXpqZ2vlVVpaKlu3bpW+fftYCy8iajoY8CIiIiKihIA6Laq0u3btkpYtW4VbdASV2Gj1XUzCcu2vmSf3Iea1ZoKMzC3SSi4qyQVyj4t2yX1PXCPtreLsVqrY0si2r++E3n4w3krfH0GvaVOnyXQGuyrBEzR/9atfybhx4yw99NBDNh39nx111FHlElp2QUlJid1OhqADghCxvPHGGxY4Y7CrccKRtXPnJ9K6dRt/vLljyubYsAo4PoPR0hLZX1JadntxMCMmF1zDwi1b6TGs55LibdvkrLP6MthF1ASl6C/7Kk8bRHTg0IR6ypQp0rt3bz+FiIiofowZM0aysrJk9OjRfkpiCiq0eGLil1+X2DTcypieFgSiyteWg6vYEq0NoxVIyeLL5dtDHtMpPeT+wlWSeX+qDNaX3e/fLG9cdZxtN123kZrq6t2VtqcJgTJUrn/St4/djvX0U3PdTNWmTRt57rnn/KvkE+T/Rb/8pby58o+Sod//kLRUQZdbFeMUgwcPlv/+7/+Wrl27ynXXXSeXXnqpDeNBYGzFihXWwmvUqFFyzTXX2PTgfadMnSoffPCB/OHVAtn7xX+ktGS/BcaWL19my1His6qlHlcPPfSw9OjRU668epyk6h5OT0frLpQjH5CqKKIPvhLdxKY/jJQh166R0+/9vTw2KFOPWy2H6bi1uYMcf7y9RUz4CDgnLFu+QibderP885NPZNu2smDXzJkzpUuXLv4VNWbr16+3W+CXL1/upxCVx4AXUT1hwIuIiBpKYwh44YoUF6W4NE1PS3UBL52go5KmP1xluTxbR3+ggoxWIPtLRZb+Kl2GP6Ezu/cQWbtGhzPl3eVXy3E6CYEzrTPb9rGtipVmbAufAY2P+vTJko93fCwffFDW2X3z5s2le/fu/lVyQp6uW/dneWf9/8QMeCGfnnzySStX999/v+zZs6dat3zu3r1bDjnkEJfPmv7rv/7LpiPP8b4IeP3ud7+TDz4slhCCXT7g1bt3li1HjQP256bCQhk3/lq5ZsK1egxrGcJxrIWoYpDZWB9840WP1mrIlldLZ8tAHYsV9LInM+qHWLZshVx++WXy4Qcf+DkOgl2tWrXyr6ixGzJkiIwfP96/IiqPAS+iesKAFxERNZRGEfBC0h+orB75/74jGzd9IEcc0cpVlLXCjLpttAou1kHrrv0lIfnG0mK59r8GS9Aua/T8b+SBfujTJ0UO0Ro3Elp6xdyeJrQO+e8f/UjufyBXrrt2vLy3Yb3Ny8jIsL6AkhW+O4J9xx/XXgpefzNuCy946aWX5Nlnn5W5c+fK4Ycf7qfWXLDvEfD65ptv5L3/+Zu8vnRJOOAVCsW+/ZESS3AM4yEPGL/1tinWojJdjzl70qpfLlJIiqQg515ZoMu7shCS0PuPyRNr9cXpl8qok93xa0HvlKFy/axBkmnj0csltoFyPH/BfJmnZRP9Ad5x+3Q3U6E1EK/HiZoGPf0QERERESUAX3tF/13oPwtcixBUYWOwSm/wBMeQpHy4RTb6WfC3zVusAp2KDul1WSwHfhDT7l27pO33j5HXXn9TOnfm7U8V/fnPf5ZZs2bJ3Xffbbco1lV/W9jWM888I2effbafQo0NDi08ofGTf37iJujhG7Vll3JHdgfp/+hseeiRR+XBhx+V3IcelavOcw+hOO28a+XevEfkgQcflZm/eVTyftNfMkp9n14+VWLTQnYMoyXXLZOmyK23TbZZRNS0MOBFRERERAkkRTp26ihbNm3yr514ASrX8iMkaalbZVb2dbJOp108+lKbt+7GS2T2h65Vl7XswrI2J7avvvpKPvlkpz2t8fCWLeX1N95knz8RPvnkE3nkkUfktttuk+OOO05uuOEG2bFjh5974HDr6AsvvCD9+/f3U6jR0IMLNwYj0ISAEw44BLuixaUAx2LI+s0LyX4d7t/vW2r6FTAPrTe/3l9i03W2lJSiBZf+wDJxDubNmzdL5gkdbfy226bI5MlTbJyImg4GvIiIiIgoofz4x1ny1lsr/av4UN9FECs1JVW2PjRKbrHboO6Xy2c+JE/bHZxr5JbsB+VDVLwRGVNYPp6VK1bImVll/Uah8v7mm8sZ9PLwRMZly5ZZUAqd1+M2TzyNsS4h6IX+vAYMGOCnUGOBAFe//v3lrZUrZe/evX5qbIhbuV52UiQUHJvhpltouanHN4LVOkQALLjFFYG1eCoex5OnTLFERE0HA15ERERElBis/hqSc4cMkd8vWmiTUOG1inD8uq3IB7lyyXXo9rqHzHjsammv6/TNXSgjMW/tdZK7VIe2kao2JPbUr5+eO8TG7VYsTQh6JfMTGmsiJydHXnvtNRk7dqzMmDFDHn/8cTnssMP83LqDoNcrr7ziX1Gj4A+xVi1bWd9Zf3prpb7UCTEOYEzFIYZbjdO1Zmr97OnIIRHBadfhvXtaq81LT3MBMCwSY7s7d+6U4m3Fcno3PGRCl9GFseSUKVOT/sETRFSGAS8iIiIiani+3op2HJ06drJgx4b167U+ixYdqLC6+RVhVihUJA+OmiDWuOveJyXnOFcZTpEBcuVdri+gx8+9XArwHra8f7MKMB0tUpYuXSKDB7uAV9mSIftMJHLMMcdIp06dpGvXrvKjH/1I2rRp4+fUPeZ5I6QHHwLFPxs+Ql566QU7Ru0AjnLc4bDGsmlpCGilWsDr0NQU6dhxhIwee5lMPCfTbkU+JB0PnBAbIhbm42FRIcD2wvPPy4gRF9hbYvt2PsAPxTJF1HQw4EVEREREDc5VSDXpOFp73DppstwxY3rM4FQA64QK7pVr0bhLLpPrrzxet4H+vFxH9sdd+bjMOB3zHpPBlxcIboaKvcUUmT1rtgwZMtQ63caCqFjjM7kfRBRP5HE84oIL5Y8rV8onO3daH12xDiKbisCU/giCWWkDr5EHH3lU+h3vWnelYZrOwLh7QIUf4s0q+GrfPnnwNw/K9RNvsNdYIjIRUdPBgBcRERERJQat9Ab98uC2xm3btsn6DevdFDf5/7d3L/BRVnf+x3+TBEHdVtzXWqntn0ubqGVZwW6pmFQQVCBxy6X9F9S2Al6S1loTVLR18QKi1qKSeCkmKhdrb7Qq2DUR2wr+/01WVluhSxFJrKF/L7R2K3hFSTL/8zvnPJPJMBNymUlmJp+3HJ7788ycZybh+Xqe83Sg19Ba2qbdK/s/bJW33l8pZ5r5ervTYXk5MnhQjuTmFsg3nvpQ9r53QN69Z1pkN/GCtPf3vy9Vd1bJFVcucuuZq2N7QR0MARyS+2qF5fDDB8utt90u3770Evt909kHf+sc+zXzAZYNvcxfeqGq8+3tizrtv4O63I/GpU8P1dD6mGPbWx7a9e0LS/QKAGQjAi8AAACkibBrhWH+haoXtTcuu1kWX3ONXaItROJdqgaXsK3mL11Dt9fWIJH+gOwFtOsDTJe6oRFzxawX5FWVlTJ37jm2dZdOu5Yk+lrM33YjAIdmvmkaUpkxvTVYn3i6Zcsz9jtlv4Cd0eVmQ9tK0wy13y79LruQy+2zMy83N0tNTY352XGT/c7qVzd4LTpBcA0MLAReAAAASAv2YtSUHHN5quNnTZsmp02cJNd897tuhdhr5Q7Xri6g0g6uXV9AOW48Ty+YXasRvZjWi+54l7xPbNwoT/+f/yPLbrrZXXObfel6kRJvIwAH0W+Ofl1sYGzKz37+iHz7W9+S1/fs0SjsoK9xtOB7p9vq9/gwU3SYm+MuWzv7Hr7//n5ZsGCB3P/AKhms/XT5dXVLu1++w8CAQ+AFAACAtGGvSUNhd5FqivbD09zcLGvXrLEXygdlXmYlLXnmgliDLXuBbDa2YZeZjrT0MiNBH0BW1I6ef36rLF2yRB760Y9t2GVbohjBk+Dity0DEI/9Tup/ZqjfOW0xWXXXPfK1886zoZR+nfxXLAHdNmS+f67/LrML+7NA99eZCy5YIOefP0/Gf/4UO62ru9DNb2/nAhhI9N8SAAAAQFpwF7V6sesudHVYc/8q2fDYBqlcscKGUcG1cnABG7TsckXH/QWzLy740hYj7RfPQeK1adNmueSSb9qw66ijhtpbJ93FtrtQdhfMwZEAdIl+z+z3x5VTJkyQCy8ulTOmTLa3HaogWI7lvm7aFqz9O9j+vT3Y3r17Zfbs2XLSSWPl6+fP86G1W6Y/E3T7hBsDyGoEXgAAAEgrem1qL3Q1dDLjhx8+xN4W1bx7t5x37nmyx94a5UTWNX/Zp7mZbYLtVBCAaX9AtrWIGdetPvjgA7nllu/J0qVL5PHaOhkxcqS0tbm9uv35C2V74T1w2YDRF6Cr3LfMFfc9EvnKnLly1z0/kC/Nni11T9TZeYlDLxd2BSWRrVu3SnFxsW3Ztejqq+28YI/aQkw3tZvz8QUGpJD5IcPXH+gDkydPluuvv15OP/10PwcAgL6h/dpMmjRJ5s+f7+ekP/0HqgZQ+i/VVh2aab3w/cW6n8myG5fKnLlz5Tvf+Y4MGTzEzg/+RRvv4tgu0/lmqMt/+tOfypIlS2TmrFly88232FZdeizNu1zLML1YNkO7dfx9ZiOtprY2kU9/apQsWXazDBs2zLaQsbeBuj9JF5w3PcNr1z4o/2v4cPn3xdfbFnl67CD4QOYJzq37fumDJdyMt/btlfO/9lXZ/8F+WXHHChl38rhuf7b0Nufvfve7snPnTvnRj38ix59wgvt5Yfakl7f2+2t2qsV+hvx2AAYWAi+gjxB4AQD6SyYGXkr/maoXsK2tbTaMMtfMtrXIvr175e67quSHD66VadOmy8xZM2W6GXYWjGhLkJ/97Geyfv16GTdunO2cfsSIkTbk0X8N21sZzbjuQy+WtVWYGkgXyloXGkx885vflJ07X/D12R44paou7MWI+UvP9iWXlssXZ8yUQfYc6Pkg8Mpk9twara0utNbwWun3+P/+381yxeWX22B1pjnns2bPkmHHHmvPeTx666J+fzds2GC/zzfffLPMmXOO/bmg/K6N4AEWLvQCMHAReAF9hMALANBfMjfw8kNTgtBLUxedr9exf/3rX+SXG9bLY489Jlu2PCNjx43T1WXUyJEydOhQe1Gsm+xubrbTc+bMkZkzZ8kJJ37GXCS7Vl3BMVwrkPaWIQOxVYhWhQZeLeavFjPU9x90HK7jCXKIXgnqXwPHVjOu51gPQ+CVPfQU6yWnfrZ0PAi99Lzq+X1y4xPyH+Y7vMF8l0ea764+YXGIKRNOOUW2bdsmb+7dKx/s329bc2mrTA3HNBTVCE0/P7bYPbqw2nxs/HfY7R/AwEXgBfQRAi8AQH/J1MBLBf9S1UFs6KXDkBnqNe2+ffvkD9u22nl3VlXJ66+9Jt+79VbdVEaMHGUvpPWfvbqdhivBfpVury1C3FCnB17YpbRKNARsaQ3LAVO0Pmwx80NaMSmi5yKs4aM5mA41ZAseNEDglR3sd88MNfTSFln6OQsE59hcmMp//dcW+eCD/bJ//wcuxB471obVQ4YcLp8/xT19Ube0nxc75T4/yoXVGnjpZ9d9aPjsAAMbgRfQRwi8AAD9JZMDLxX8a1UvcfVC2bYEilww+ytaM9BMZtnSJbaPL6UdWd+3arW92LZXx+bqN7jwVrqlvdA2JTcnx24fzB+ItF60Wlta28T8scGg0hDBLU0Vd14CGlxE+vAy07TSyQ7BGdbvrn7OguA5mB851zrTDKLH9S/3EXHbBhvpKi4wc7cx2uDaLbLLAAxs2uITAAAASFvBhasOcnJyXOufXA2o9GrXLdCL4aVL2sMu9eCDa+WiCxbYC2QNyfRWKnexbLu2ti2J3BMc3W1Qyh9qYDJ1o/USPNXS1bOGCC70Sl0x58EcxxY9pik6T18NYVf2CM6k6yPP3Sqr43a++ezZ76n5K7i11Y636TAYd9M2+DIbaatD/XwEt93qZ0aLfmT42ABQBF4AAABIe+4iVi9wXfhiWwDlBuFISG5etsSU9rAroB3bl150gd9OAy4fctkWXWZbs47OV34wYGkd2QDBFA26bNFxU0EpL3ocfyzzx54LDd+QXYLvmMZcNvgyM2zn8uaLqOfdnntTNNRyxbcCM0XnB+sEQWnw2dFpwlEAsQi8AAAAkDEil7RmRFt16MXyzTcukZuiWnbFeujBtfKNiy90QZffxrUIMRfJZjwI0uDqV+vCVEt7XfVpMcc2Q9vyh5OSlYLPmPucufM+yJx415rQTJv5Nmz14bSGWq5FmCt5OTl2OghHgx8KfgAAEQReAAAAyCj2YjkYmnLDDde7vr1M0f6nHli1Ss6fN18OmPEDLa6sMvP0Yrk9THGhjvmDGFonQQjY98Uc170MZDk9z9HnXgPWvFwXculFqm0BlpvjhkEx0xp2mdH2bf1+ACAWgRcAAAAylrvY9eGMGbdhlp2nF8Uabum8YNy1CAmWA+h/9vuoxX43/ffUh1odS8fvto4DQGcIvAAAAJAV3AWzDt3FcHCRbC+OuToG0l7wHQ6+tx3CLl2mCwGgiwi8AAAAAAAAkFUIvAAAAAAAAJBVCLwAAAAAAACQVQi8AAAAAAAAkFUIvAAAAAAAAJBVCLwAAAAAAACQVQi8AAAAAAAAkFUIvAAAAAAAAJBVCLwAAAAAAACQVQi8AAAAAAAAkFUIvAD0iaaqIgkVVUmTn45ml4VCUaVM6vyywMHrxF8PAAAAAAACLwDpobBSGsNhCYdrpVRqpCQUkqKqmHgssk5QqqXYLwIAAAAAIEDgBSDNFEt1OCy1pSINFctpwQUAAAAA6DYCLwBpqWB0oR8DAAAAAKB7CLwApKXGHQ0ihaOlwE8DAAAAANBVBF4A0k5dWUhKakRKF5dLvp9nNVRIQXSn9Qk6wQcAYMBqMr8Ze/3L0eygqswUOhYAAGQuAi8A6SEqzCqpKZTKxrBUx/ZIH9tpfX1MIAYAQFpoEikrEikyJToz0hBJ55WlKEhqqhIpKDAl1PG43dYoUlFjyno/DQBA5iHwApAeOoRZ9VJOkgUAyGTbG0QaTAloGKUhks6blaJnDOcfb36f6kip0CcAAGCgI/ACAAAAUqpJZF6FGy2t1QcSp4jZcX1YJFwtnTaBTnTLo94OmWyp2CcAAF1A4AUAAACkUtU8EW3sVVgpB9+vn0BZSCRkSlVUYNTZPHsLo/lLx0NFUaGWn1dU5W6p1HG95VHXCW571NZnRTq/wC0vi3crYyf7Dpn9Rk93OJbuM+bWTgAA+gCBF4C+E9vpvPkHMv/+BQBktV16K6OmXaUi9eVuXleMtvcmiuxodEP9jVnjRw+aZ9Y91C2M5newvaWy0LwOu2vzmpaZ1xa0PrOBnFlQakpNcKAeineskiAUAwCgb4TC2mEOgJSbPHmyXH/99XL66af7OQAA9I0FCxbIpEmTZP78+X5OdluzZo387Gc/k6uvvtrP6RsTJkyQIUOGmLEmkaICFyIFtHVXdwIv2wG93gZZ6m5RjEyrmHmRfWsLqxIzLBRprPe3NQbzjNpGkWIzM7Ivs17tHJGSqOOo2GNbne07WC/OsTrMM5cdKbudEwCAjgi8gD5C4AUA6C8DLfDauXOnfPOb3/RTfeeWW26xoZdEB161tSIlPQl8ovdhtttVJGIzKjOjwYdOj+s8M13ZKO5pL52FUgnmVY7xrbGiA7lgeU8Dr+h1DL3tUhuNRV4nAACpR+AF9BECLwBAfxlogVf/ixdW6UR0gNQFVUGgVSuyo0Rke6XI4h0iJTVu3jozLwi/uhJuEXgBAAYQAi+gj2Rq4FVZWSkbNmyQbP5JUVZWJueee46fAoDsQ+DV12ICr+KoaX1KY1c7rq8rc+GW9q3VYDa225r5GioF8+IGVfFCqQTzenNL40HrBesYkdZs8eYBAJB6BF5AH8nUwOt087pnzpgpJ40ba6ZCYn9kBD81Qn6YafzrD+WE5MmNG2XPntdl9ao19jEePMlj4GmqKpLlx9fb68+6spAsG91orh1pgYDsQuDV12IDL50VhENR8w4pKixSseGZ6hCgxQmlDjlvsXld/hjayfyY7SI1kZ1HBV5Rx9WwbYwZHrRezOstNfO31/jXGr0vAABSj8AL6COZGHi1mTLl9MlyzbXXyRdOmyRtOiNIhDL9J4eGdeY9/OjBtfLb3z4t9z2wSvJycsT8IfQaYDTkKpFacx1W3GEcyCYEXn0tTuClglsUuxP+BLcDRgdWkf0YHcKzngReZp5EhXFKQzTz01BqYl5ndGinDlovar+lY8x8+8LddOTYAAD0Da7rACTWpplQWFpa22T/h21yoKVNPjTDD7QcaM3sYt9Dm7S0haW1NWzfV2tbm7TZ4t8/oOrKJBQq08u4vtMfxwSQRPki9WHzSzQ6jDLK69287rR0qvb7CUcFRpH9xOxfJ2LX7cq8/HI33djohhr62+PGvM6urqcWmXlhs16jLo8+NgAAfYPAC0Bcmvm0tLXZf89qIKRh0AENg8K6xMzMgqLhlr4vnTpg3tYB81dbOMRPRgBAijVpB5Kdl/5IvPO7mEp1dT1NuQi6AAD9hMs6AAkF0VCbhGwAlpMbktzcHMkzw7y83AwvIRlk3ktOKGTfowZfrfYNm7+0IKU2b94se/bs8VN9qUmqikISMufdlrLOryj1FseQdhgtNVJitymSKnOd2iW2lVbUsRK02LLHiKxTJEX6+np6zB7YunWrNDc3+ykAfaPR3e7XWdmVwi8+AAADAIEXgLi0ez9zqd0+bi68c830Ybk5tgzJC0XK4FyJlMNywpInrR2WJ6sE+w+GWuKt15VyWE6ODDJDGzKY96jBl3ZiT9SVfOvXr7f9Bx199NE+1AnJkiVL5OSTT45MFxcXy8p775XXX09tCFZXViAVDaVSaz7T4XCjVG4vsQ9AS6S42qxXW2rGgm3qu/hE/SapWqZd6+g2/liFNVISE7DZPsNqgn2HpbFSpGFMbQ+PeWgaNC5cuFBGjRoVqXs9N9rHYDCt52VFZaW8sHOn3wpA8gW3FHZSMvLhGfFunwQAoH8QeAFIKPqZFjkSllzzEyPXXBDn5Zpp28G7K7m5uZF1dTq4cI5eJxkl2G8g3jpdLYO0lZopOZHd6esPJtqPgZ7Zu3ev3HDDDXL44YfL2rVrZeLEifLSn/5k+4NraWmTX//mKXnl1dcj09++7DLZtm2bfPazJ8vs2bNTFLbUyfoakcLKRXpJZuRLeX1YbLaUdLrvan8clS9nzykU2b5Lb2Ty3OsprW1fL7+8XlLRYf7KlffKxz/+cRs0Dh8+Qn7z1CZpbQvb25af+93vpeklf25MeeCB1bK7ebd8yZwHDb80JGv/SQAAAABkBp7SCPSRTHtKY5v50XCgJSxnnjlFrrh6sUycdLoMyhUfFOXYoCgUFQy1tLRIXl6en0otPZbSoC06AOsq/bEXNttp0LJm7Rp5evPTcnf1/eZ95cpg8xb0Vkfdaw92DePee++VqqoqmTt3rlx19XdkyJAh9vOkxVR8JFrU8xA5f2YQtK/75WMb5N+vuUamT58u15nvzNFDh9r5vdZUJUUF62ROY8cWU4d8SqPemliirbWiA6yu0lsotVWZnyyslMb6ctfwIcHrsXp1zHZBi64JEybItdddL8cOG2azXfsdMMv1nER/j+1CneNn/fe2rXL55ZfLkMOHSOWKFXLCiSd2WDsb7N+/X84991wb0vY1/W6sWr1ahh07LOU/b3hKIwAAGGgIvIA+ksmB15XfWSynnTZRDhuUK4fl5UiuuTCzLaP8FZr+GGltbZU///nPcuDAgUiQ0ZMwqjMacH3iE5+IBF29CdjC+nRG8zpXrV4rT2/eLHdV3y+DCLx6RYMDvageOnSoC1eOPdZ8jlyEop8JHVdm1IcmUb9+9PPiR22YaqbvqqqUdT9fJ6tXrZYTP5OEoKVPA6/2oKu0NmwfZNZUVSQF6+b0WeCltyU+tmGD3LFihZw0dpytd31QgzsfWpsu9LILApEPvfsO6zdBZz355BOybOlSueqqq2TW7Nm9Pxdp5OWXm6Ww8FT58Y9/bKb69p1dfvlCueOOFe73gjl0Ko9O4AUAAAYaAi+gj2R84PWFiTL4sDwZlJcjeXphFueG6Pvvv1/+/ve/2wvlZP9o0f3t3r3b1t+cOXMi++9pqNbW5locrVrtWngRePWOdkCvtyJedlm5zD3nHHu7nNavO0+u7Vb7Z6K9BVE0XW7Ppx26VoS7XnxBLrrwQvvdmTZ9mpnXm5NSJ2UuRbIBVCAlgVecMCt+4FUhY2Jej9WLwCsIHocNGya33X6HRlf2867/tYeOib8/ukjPmK6hMaSuouWtffvk4gsvsKFJeUW5WRJ/+0yjgdeUKZNlV9NLZir42dU37+usMyfbcHiy+bmW4++vTtWRCbwAAMBAQ+AF9JFsCLwOOyxPDssL2X68tD+v/nDdddfJokWL5Mgjj7TTesHdk4tufSqj/vBbtWqtve2LwKvn9FYw7XT+nnt+IGPHjbOhigu7gmDFVKT5Y8MqndZz5jbtQNe0MYvdzs3Rc7tv316Z97WvylVXX2W+P5Nd68Ie8a2upP22Qhtwaaf1pYcKvLZLZbyWWIkcFGa5sK0m+pbGSCsw7ZzeB1t6rPWzJDxrffeP6WnwOGPmTDl/3jxpa9UaDdnWjFptUafDfr5dVbq/LTNq1zF/2VOgo/avsD1/us3FF10o48aeJBUVC+1ynZep9L3ZwMv8fH6x6SUb1Lr6CN59KoVk+llTZPG1+nthku1TUI+cqhCRwAsAAAw0dFoPoGvsRVhfXAR2TlutvPTSS7bjedXTi0N7adn/byd9aNBi6jJSYp4m2Bm9kNZb3caOOzmqZZdbpvvKzQlJnikakmr/b9pCUMeDEiwLxrWli/mjJ8nSWyTXPvQjuXzh5fJyc3OklVL3aUfytVLaUCEF/n1quNVYWeiXJ1A8S0qlQSoKdJsiqWrvdT6x/HJZa/ZbUxLU6TIZXRnbO75/PVIjJf712JBrUXHPjmnogwLGjh0r558/T9raRMwfez6Cb4meC70lOTgnej6CurfFLNPz4+bruXC3mGrYpdWudX/f/atk48Yn5YknnrD7DM51JtJANvj/fi2t5rOrdRa8IR2kqujAD+13xg91Hv8fEgAAIDnMP2UBIHOMGTNGnn76aT+FpCmujlz823LQPXbxacBy0kljZcbM2e6CXfSWMBd0aXAVhFkamgQtA3NzfagVKRq2aBBjxk2x25h18uwTNV3QctRRQ+W+Bx6Qr557rry/f397KNFtxVId8z6jn4xYXB3vvUdv0/UWV3a/0duVmzqOtO4KxLyeyP67f8y6J56QLVu22Fvk9FwEAYoy1WhbENl6tsXNM9Udcy5c3esyXT9Pz5meF11m5imt+wcf+rEsWbpEdrzwgp0XHCfz+Ddl6HvQ+jBv234OtR5SVXT/QX2qsCZe+lr0BUS9JgAAAPQcgReAjKKB1zvvvCN/+9vfbKiC/vP881tl48aNctXVV/uwy7VOCS7mzXV9JCjRYTSdCko0O8/85cIvDR5c+KD+ZezJ8vlTJsi9K1facCJjM5YUeP/9/XL5woVy9z0/sK2wtGj92LrUc2CK1qKtTzuuLcfcvNiifJVHto8+l7roqKFD5corr5JrrvmuDx8z+WwEbzbq/ZpiW8CZorc4J6sE+7Thoym2noMCAACApCLwApBR/vEf/1EGDx4sr7/+ur1gR/9ZunSJXHXV1TLosME29NCwS0+JPtDAhipmwp0iH6wc4nTZbbX4cRewmGKmzaimaXL5lYvkhw8+aM7/X1zo1S85i/bHFby/+KWoq/cgJoHW+7333ivTpk+X4SNG2LBLueDGdf4ftNIygy6dC+XWcyvqIAiC7N3E5pj/NmOm7G7eLVu3bo0EbJnMvl8/pnVmS1BnSSpBaBi0ZlR2mOmVBwAAkIYIvABknIkTJ8qvf/1rP4X+8PzWrbY/rX+bMSMSsOjluw1EzIjeiOiG7kK/J+y2puh+XKuxkBw7bJh8+Stz5M47q9yTB8Ou9K3Y2xAPLvXd7Wm+F/Z/8IGtjyuuvMoFT+b4WuftdefW84Nus/vyJzESQvqd/vu118nSpUvtuH3vdixzucCyva50mPRiDuDqKagtHWZ6zQEAAKQfAi8AGaOtrc2W4cOHy4EDB+SNN97wS9DXaqqrpbS0NBKwqOgWREHrlUSamrrWAsruz/yl+9M9asuYOXPnyrqf/dTFBGa6vUv2gUfrYP2j6+WUUybIsccea85FUGcu6NKaCUKc3gp2Eexfy799cYZseeYZee21PW6h/yxkMhvumWKHKZTq/QMAAAx0BF4AIjZv3ixr1qzxU+lHLxA1XNEnNer4q6++6pcgVZqbmw/6TGikoU/oO2vqdNvKSs+FXru7gMWFU51pqiqSgoICKaxq6lK7Fru7UDgSqA0fMdK29HrmP//ThW2mBKFbttOHBETTqtF+1M6aOtU+6c8yVaHnIeFpaGqSzuLGzsJI3aVt4WWGGj7quZ86bZpsfPIJ+4RD+9ACu2b6qqyslL179/opAAAAZCsCLwAdLFiwIO1DL3XmmWdGntYYtPzSguSL/UxsfX6r7bT8fw0fEQk39FZGG3z56U4F4ZQZuNsS22clovsN2nJp0KIBz8YnN7rtzcxDbJ411q5da8+H0ves9bZhw3rb0iqsdWHm5ehTAIPzEXtCmqqksKBACsyCsjq/D7fEaJKqopANIyPL2hdG6Lxg31q0L6/HNmzwgZtZeKiT2c+2bdsmkydPJvQCAADIcgReAA6iF9Qb1q/3U+lDL7JtP0GmfPzjH5d3331X9u3bZ5dp2BUsQ/IFoZdW786dO+WEE0604zaADEIVH4B0Rs9Oqxu1AY35Y4o7Z52dO3scP9TRESNGyp937/bbaNB2iANnET0PQej1+p49MmTIEDlq6NG28rUWQqZKbDurONUZzi+XB1cU2vGaGytll4ZkehKMpqp5UtFgRk5dIVdO1++SnR0ZBrT+bTHj+o+I448/QXa9+KJdzxYzL3abdKMd7RN6AQAAZDcCLwBxnXfeefLkxo1+Kr20trba2xoPP/xwG77k6JPo7KPjkEpB6PXm3jdl6FFDXZ4S9p3Ta/rRlZTDByJWuE1aWsPSaoMvM9fuJDEXsritNfDS2y3tLXRmW/tfuqcsSaTn4QJzPt58c69tbWeZtx+cC63J2Oq01WP+GnXZWrntVDP+nwtlftVLtmVWa1utfN+lXXLbqnIZbs6LnhtXowfXq84J+VZk/3j0UNm7b6+tf83O7HFijp2ONPQ6Y8pkeeutt/ycrtFbckOhIjnoQZx1ZbY+tHUcAAAA+l/I/AP14H/JAki6ICzoigkTJthWG8ky1FwQjx071k8lpgGC3jIV0Nfw6fwCuen7d8hpp02SwwblyGF5OfaWstx+ypc07NJwSy8sn3nmGXn22Wfl29/+dof5XaG3wmnIcvc9K+WB+++Tki/OsH0Tmbfnbgfz6yWyf/9+2zpEg7dspu+xqqrKTzkzZs6UfzlprFyz+Dpb34P0FjpTYbadVbyKi+ozSn/hvPDY+TLziv+Uz3//l1Jdki+DcnIlb5D5TEm+fPrTrk+wRPSc6W+tP+54Qc48Y7KUln7DnS97/Oyn5yK6VdK06dPl/ff3yxO/+o2dNqfCPSkzzmdY615/5bdqmFX7DTli5n1mzqmyfMdv5YQVuTLDTE64fZf85tJPmfnunOaZHbq+unQPHbn9ibSY79Jg88XRz4Pt38t8h9L5XGzYsMGGXYHPjB4t77z9jrzQ+Cdbd3nmh5u+dy3x6a2fBVIhldJYX24+tVHzxtRKuLrYzumMDQbNcMrk0229TZw4yR7X3hps5nfyFegx/R00adIkmT9/vp8DAACQ3Qi8gDSkQY4GKsmiF8jRF3iJZELgpT+ygkBEn9R4++23y+zZs+X444+3y7ra0qu3gZfW5+7du2XmzJl+TnaKF3hNNBfNp5kLdBtwmPrWOksUirg+oyrkP/1k50rl8bZqKTb7SVT/+gtLz92OF3bKmVNOl4vLvmHXtR3ld7JdtogNvKZOm25+VrwvdU8+Zes/z3x2E4UmWnf6HdGWW1rqLsmT/73KzJxwqvmhY87QqStk26Zvy8g2s605p7qv4NzqdyKW/utBv0Ma3ujPhX+/9jpzXB9+Hrx62ogNvD75yU/a9/LiS81dDLwMbc1VUiOltWGx+Zad3i6VjfVS7hKwThF4AQAApB6BF4AIfUqj9mujNOxa9/NH5PvLb5Urv7M4bQKvWD/84Q/lqKOOkhkzZth+vDQM60orryDwWrV6rX3fd1XfL4Nyc2VwnphhziEvOrW1nnaav3r1aj8nO2kIOmrUKD8lct3118vHPnasbN22TaruvEdyTV1pMKJ1FS8gCEuT1JUtl/X+Al9/5YS33yernjETn79I5o1xYZVuG5JZcsW9xXK831+86nf7EHlq0ya5cekSqXvyN5HPo4Zv8V5DNtFzoedEzZs/X664cpF85ctflt//4Y/2vdsWWVp/do2Dad3pLaQftrZJS1udXHb4FyWIuOevb5HKqW4d81WwLfcGmX3pfuN9p+y5NMPXXtsjn/vcZ+XlP79qj9tZq7B0EN3aduTIkbJm7Q9l3vlflz++2NT1wMuoKwtJyXZt5XW8LA+VyPbKRqnvStplEHgBAACkXppcsgJIJxp2PfLIIzJ12jQ/J31NnTpVfve739nxrgRd6Lnrr79errvuenuL7L69e119azqSgPv/KfkybeW9cvcP7pW77rlXqu5eKZd+STuQEvnc7MvltqofyO13/kBW3LVSqu6ZLqPMNhrI6KZx9+xn7m5utv142VjMnvaBde41tFi1arU5F0fb/rOCvs2suBXnaXWZYoOVlxplh5+t/vjiLlP32qNX2PzjQIMuDa38BnEE3zf9LGifbkrndPKRSCsadv3mqU22hVdPFC+qlMKGCikIlUiNlMriLoZdAAAA6BsEXgA60LDr0UcftX0DZQINX/7hH/4h0uoFqaFh1/U33GATjeNPPEFe1KfymfkaenSWb9hWQGYFbQvU0qatitwtcAHbYb2fp+M27PLL4scsKix6O+nwESP89MBiwy7fslD7kNPbnzV00nqJVF4CWqd6e2Juzp/k3osul2fN9PkLLrLLnr36Aln5kp5TDcTcPxB0/cTnwdn54k45wXwmMomGXZs2bbLDHssvl7WV7omXpbXVcuieuwAAANCXCLwARARh1/QMCbvU4MGD5bjjjpPnnnvOhi9BqxMkj4ZdN2jYpWGKKWNPGmcDlt279SmJ+pzEQ/Ar6MC1GnLTAZ3WWcEwcfOudvoE0alT078FYrLNmzfvoNtoZ8yYKY89tsGMBRXYOV3lpTvPl6v0ttIJd8i3qn4gP7R3uT0jiy++S142JyJynrqwv8cee0z+7YvtfdnZ7dLYiBEjeh92WXWy3D7ZUqSmpMxMAQAAIJ0QeAGI0KdDZlLYFdB+x3bu3Gn78EJyaShgwy7PhYoiZ02bJr/a+IRvwRU/9ArCRx3YvpFsyyLXJ5Sl02ahLbna95Prw0iLhFzLsHiam3fLnj17ZPwpE+z0QAo6o89F4Kyp0+TXv3rSVIRmhRpBJq47FW6qlAUL9TECp8ot931btIe2Myo3yNd04X9dIXdu1BGvs/34gzxpPgdB+Khz3LnoZMN+pnXY+7BL+/AqkZrCSmkM10qp1MiyquBZpAAAAEgHBF4AMp7e1qUX2X/5y1/8HKSCy5RspCEXX1wqD9xfY8cjQUuclMV1SO+KdmauHaGfcMIcmX/hxbKoOF9ytYNz2zl6juSZ/bhALGR26VsYxTLzfvrTn8icuXPdpDt8/HWznj6xVOSLM2bKf23ZInte3+NzpsSVEQ43SdX5C+1TMyfcvla++emgDqfLJbe4AHH1rG9IXVubDc00PEssJOvXr5fPn3KKfOzYYfb82yN3tkm2qCuTEvPxL11cLvlSLIsqC6WhYp6QeQEAAKQPAi8AGU1bdenT+UaPHm2fmohU0yhKZOy4k22n8b98bIMNRlziFD9oCZbYhltmmFt8mdx1z0qZ+mkzbmZoyKWbm9No+5eyAYyuGIf2V3VfTY1c+u3L7HEjqwVhy0Bh37v77/AhQ+Rbpj5uv225me1rIVFl1C0X27hLLparvvUp23earqphZP63Vsmyz+uy+2XWJXXtDw/Q8xuP2fDGpUtl8bXXuUlz0iLnLtEJzApNUrVM065aqfYdd+WXL5ZSaZCK5dzYCAAAkC4IvABkNL3I1pYlY8eOlddee00+/PBDvwSpEaRMYblm8XWy7MaltkFPUBJxQUjIhlo6ruFX9C2OWnTHdtCJ737nuzbsOubYYX6OZzfs7BVkF1efOuKGF5WWyS83rJe/7Nljvw/xUio7u7haPmxpk3c/WCln+FX0HGjLu8PyjpdLNh2Q/3nnQ9l3d7E7pwfvxtLZ6x991IaeJ40d516HmWdfk0qwXTZoqponFQ2FUrkoupv6YqmuLdXOvKSMzAsAACAtEHgByGh6ca+tvD71qU/Jvn37bAnmtba22nEkj2tT5EKScePG2dvZqleu9PUc/7bGaLqt3rJog65Iiy5f3CoJvbBzp2x+erNcXFpmAxUNV0K6H7uh28dAojUd1Ke28lp6081yxRULzTnQZXGenmlWtt8NU3SZjmvdDcrNcSXPnZcgRNbWX3Y9u3FHH+zfL0uWLpVl5pjRbeuC85jNpyK/vN7UT72U5/sZgeJqW29Bqy8AAAD0LwIvABkv6Kz+c5/7nNTV1UUu2FUwRHJokGEDJlOvOrjz7h/IL//jMXniiSfs8kPWtgYiZsO8nBw5LE+DlpDttN4vSmjv3r1y3rnnysO/eEQGDxliVrZ/fLhy6LAsK5nKdu/fnZM5c+bKiJEj5dZbv+c+9wk++7q+1pieA9fKTkMvM23mD9JxM09DNHc2D96HzjnXnIvrrrtejj/hRHscXVtvT9Wh+wsAAADoXwReADKahh15eXn2Aj8/P19eeeUVeeutt+x8pIipW61fe3uimXzwwR/LsqVL5fnnt9rFnYWMur7d1ozoLyANu2xLr05Ol/bbtWDBArnp5pvlf40YYXOcYD+uRZKOu3UHkuB961sPAqqlN94kW7ZskbVr1kRaaEXT1XRd7bMrL1dkUF6OHdf614cH6JMyDxvUHkTqXrUEtO4v+eY35bSJE21n+dpaTNn1zF/+ZQAAAAD9jsALQMbTFl5aPvOZz8iIESPk/fffNxfeQSjDj7lk00xDQxM3FBl69FD52c8flm9dcol9ap+ucejQy2wbhFVudlzNzc0yefJkKS0tk7OmTpfg9jm3vd92AAcsNvzTc6H1EXKf9R/+6Cey8cmNsnTpEnsegurRuoqEjaGwa91lxl3o6M6ntvYK+vTKy8ux5zmgweOXvjRbhg8fIZeVV3QI1HR7/a4FrwUAAADobyHzj+EBfKkAIBFtuXGgJSxnnjlFrvzOYjnttEm25YfehqYXyHphnM70R5tefCfSZq7W9T2uWr1WNm/eLHdV328u8nNlcJ7r00i37OzCfc2aNfapkKtXr/ZzBhb9zaH1p6GH7RPKDD/4YL+c/7XzZNzYcVJRUSFDhw7tVfihdVxVVSUPrFotJ40da8+ZBl56bl2rMA1vXFDTm+NkOv0lrnWid/YG50TddOMS+e8//EHuWHGHjBo1ytaT0nMVxGBae9F1p/vxm9tluqZ+jzZt2izXXPNdueqqq+SLM2e5827+0jXawzK3o0w6F/o+Xn65Wc6YMln++GKTfQ/ayk3fin87KaHH1Xr+/PjPyejR/2w7/+9KANwbGzZskPLycpk/f76fAwAAkN3S/JIVAHqms7ALvWcvzE0Jgicd17611v3iERumfPazJ8sNS26Q9/fv91t0nbYSO/nkk22g+OvfPCX/ctJJNqSxIYEZscc1f2kgYf7Y6YHM1YE7B+5cuApZfN318rWvny9nTJkiCxculNdff92GLMF6wXmLpttGL9u2bZsUFxfb1mL3/GClD7s04NQ9BXXvAkh9IW4aXdXS0uLHUm/mzJkya9YsPwUAAJD9aOEFIC69qM3kFl6HQguv5HCtrlwYZYMQM67Vtm/vXrn7rjtl+fdvlenTp8sMf7Gtrb50pei61d9C2un9Y49tsGHXhAkT5Nrrrpex2qrLLHRBl1tXt9NWOBrI2KCls5M0gAT1o7/Stb5abZ25mVpHd91ZKbct/76ccOKJMnPGDJk1e7aMHDHSLo+tQu2L7cEH19pzMmTIELn55ptl6vTiyHcm+ly4cMwMtXWSm51RtK76s4XXlMmnyzWLr5OJEyfZ4+rx9bB8rAEAAHqPFl4AgB7TC3O9NncBgbtY1wv5jx41VBZfe5289c67tpWRhoOfGjXKrqPhSFFRkXz84x8327tpvXXxpJPGynO/+7384uFH7biGAm3hkN2f0mO1h116XDdEe0AStNCywYmfqcHXpZeVy59fec0Gibt3/1mmTJ5s613LSSed5G55NOtrueCCBTJ8+HB5+OFH7Pk4c+r0OGGXO47ZPGPDLgAAAGQ3Ai8AQI+5kETDp6jQK+zma2DV2ibyb1+cKTX3r5K//u1/5ICZ8bvf/V7+8Ic/yHnnfdUsD0uLmfcfj9fKxaVl8rFjh5l5bdJi5usyDWs0TrHhTLB/Pa49tr4CBGx9mKJD/eWuHdLrLM2o7Lkw5QunTZTv33aH7Gr6kzkXYXnjb3+XDz/8UP71c5+z50HLs+b8XHpZhRSccII9D9o3mGsx5vbnzoMreiydhzopM5VRVucnAQAA0O8IvAAAvRKEXrbFT45vXeSXKQ1bWlrD0hoOye+f3ypnnDFF3nnnHbnjjtvl+utvsGGKFg1XooMu5VoSuV9WuTnuVjM33w3Rka0W85c7H6boudBpnW/qNGippfX8P//zdznTnIsXX3xRHv7FL+SCBRe48+TPQYt2gu87wg+adtnzYfZpW9pp4URYTVXLpEZKZVaxnwEAAIB+R+AFAOi16JZeOrRhi07bGW7+tq3Py9Qzp8jevXt1E2vZjUtk6ZIbbKsuF6zoNrovF3TZVkqmBPvTVew+kVBQPUEwleeHWm9atA73vblXpp51hmzbttWvLfLgg2vkogsvsAGllkBwPvRcaN99tpWd7ssvR5M8vq5BpHSWkHcBAACkDwIvAAOTXrFzyZ50GkrZoCVXi+uEWwOX7f+9TaafdYbtzD7WTTculZuXLbVnI9g+OqSxoZcuMOxpwyEF9aRDDaiCsEpbyb311l6ZPvUM+UNU2BV46IdrpeyiC8w5cOfCnkcz1PMRtOjSfZo/CDQ9LusaCqVyEXEXAABAOuEpjQDi0tY2wVMap5d80XYiPmhQrrnwdRfC5rI3Y8OH4Kee3rb1xMaN8tprr/OUxiSzdaz1Z4Z/f/NNufCCC3zLLvckx//askXGjh0ng4cMsfP087Toqqtk2vRppt59/et8cxJ0X5n6WUsHQf3pUOv+8ssXytbn28OuP//5z/bpmR/56EfttFb1+eefL/PmzRdzKuwcW/3mr2w7DdqSrbdPaWyqKpKCdXOksb5c8v28Q9Hj6rngKY0AAACpQ+AFIK4g8FpRWSn/8csNdp5t3WGG7mIsdVdkLS0tkpeX56dSRYMXDVPC8vUFF8vs/z1XBuWGZMigEIFXktlfMvZXTfsTFz/9qVHy1KZNMmLkSL+C0jNi2HSm8/pH9/lTYOtYx1306J7KOGnSJJk3f76t94CrfnciknsqmkTK5ols95PxLK6XVN0fuH//fhlig9ZkBF5NUlVUIOvmNEp9eVfjrj4KvHYUibzrx60xIh8bLXJMucgRfhYAAEAWI/ACEFcQeO1vaZMPD7TZK7BBeeaCzFyI5eXqGjlmVjKuyjr64YNrZNEVC+XJX2+Sk8aO83NTINxmO+T+wLw/7cBb34m+PwKv1ApCl0+NcoHXSA287AI3SMFHCnFEfvOb+r5gwQKZOGmSzNfAK2CWp+5cNIkUFYg0+Ml4as0LSFHgtXDhQpk3b56MGzeu94FXU5V5K+tkTmO9dCPv6oPAy9Txs6aO3/OTsY6pFRmdRrdg7jBv+A0zHNkoMqIbFQkAANAJ+vACEJdejNk8XP+Yq6+WcJt8cKBFPtAQ7EMtLUkvq1atktILF9h+nqaeMVmefe53cddLRnnvw1Z5/0CrHPBPpWsz70/7LUpFiId2Wr1BDeswUnR+sAApF9R3UOU67FCCBSmRL1KvP1i0NIoU+tkactl5pkRnMU1NfiQ59NbayZMny9atB/dh1l11yyukoXCOnJ3OGc1oU5+TtJi6Hukr+40SFzD1xnudnRezLFHYFpHc8woAABCLwAtAXNrOwHYebjutNuP+Uti2/Gpts0HRh9r6K0nlwbVr5FtlF7qDG/v27ZUvTj9Tfv/883HX721p0aDLvJewtIl25J2Xk2sutN3FfnvzFwD9pqrIJW8FBW5YVucX9F5yQq86WV8jUrq463139S/zKkfUt4dezVVu2CWm7p825+BZs83uMj9uzsvT5hxFB2e7zbQue9ose1aHpuwOgq3ofeh6uo7Zl64X7KNZ9xk1DQAA0AsEXgDi0uvLXPMTQgOvw/K05MhhZsagHHfLn97+l6zy858+JOWXXOyP3E5Dry+dPVV27vjvuNv1uuToe8q1t2jm2feoMV/YPhEwtS1cAHSqqUqkokGksFSkttaUSjNzl1uWJBp66a2ML+zY4ed0U916qZFSmZVpD2c8Zo4bvteD9/1ehUhzjcgR5rzYfsDMOdpRZhfZQKvZTOuy0eacjTRD1TyvY2svuw+9n1WDt9EiRwZN/JQZPyJ6GgAAoOfowwtAQvZWP1NawxoDmf/0p0WHJKj3Pz7+sG2rXHXl5X5K5MCHH8qLL74oY/7lX/wckaFHDZXq+1fJUUOH+jnJELyPsPlBqG/LtWbT/wugT6Y7VN5FH169M2rUKNkU3YcX+s2CBa7T+g59ePWZpvb+vKL77aorEympESmsFKkv9zPbbd68WZYsWeKnumfnzp2yZ88ePyXy0Y9+VP7hHz4iu/60u1t9eNWVhaREaiVc3f3Eq0/78NJbGo9xc633qsyyCjNSKDK+vosd2GvrrBI3OrrR7E/btEXPizlGIOibyy6PWj+2ry768AIAAClA4AUgIfvDwfyIaDUj2sH7IVOgJNjd3CxnnTlFdjX9yc9JPQ277AWunTDFvN9DXXASePUOgVf6SMvAS8OUkA9HVGmlyKJye1ee0tZZPb0d8dZbb5UnnnjCT4kNm5rNz50du17qRuBVJ2X6+sxr7kHelSaBV6nIpGo375CCsComJDsoqDLH3b1c5N3t7gmR7+mJNToEXnGCNgIvAACQAtzSCCAhe83lw6BBueZC0AxTXfQpkOZP3GWpKrnm0jMSdunADwH0l2KxHdqX+tvbaipECoJb50SGDh0qp59+eo/KsGHD/F5Epk2fLivvrbahd3c0VS3LzNsZ1Rvr3PCI0W6YNBpoFbhbHt8dI3KkKV1qPQYAAJAaBF4AOqWXgbbNgf7R1gd9UOxx48xPZbFvNOwGANJBvkh1vfle1tpGQSI1NlNJlunTp8sjjzwqgwcP9nO6qkkeX9cghZWLOjxMMiNo6y7bf5bxsbPdsFvMttpyyzInQ1tlqSPMuXpjvRs/xpyv8dUio0050s0CAADoDwReAA5JGz9oEGTDIL0PJ9VFxZufohK8N1p2AWlC+/AqMqWuzpT17pZHTb0K7NJe07Dr0UcflSFDhvg53ZEv5fVhqS/PkFvvdhSJPKvF/ICztzIaR1T2/NZBvf1QO6p/NrjltLTjLZMafL2ntzbGPMGxM0HH9drBve67q9sBAAB0gsALQLfY8CvFpa+OExQAaaZgtEhDjUhJieu8XsOu2rWRPrx6Y9q0ab0IuzJRg+tLS/vz0icgaqfz4w9+EEDXmO2PKRV5w5wT++RFM62tudQxi0zR4Mos0/7DmnWef1LjoYxY7G9/NK9T9w0AAJAEBF4AAKCf5IvUh8U+Ajb6/sD8cjevsdEUXV5vlienRdU555wzAMIuU1fjTb1NiinaWbx9wmIvjKw2+9LQTPcZ3fm82e9oMx29TG9r1OPaFmDmBNvXEb1NwCzTbcabbSPrAwAA9A6BFwAASE/5+TZHQao0uVsIOytxby80JyVhh/SdLTsE7QsMAAAgSQi8AAAABqRGdwthZ0X74wIAAMhABF4AAAADUnCbYSfFdm7f2e2IAAAA6SkUNvw4APS75uZmmTx5srz88st+Tnpas2aNPP3007J69Wo/p+/osbWe+sP8+fNl5MiRfqrnRo0aJZs2bUrKvtA7CxYskEmTJtlzO9C0mX8Bvfxys5wxZbL88cUmyc0JSV5ujpiBLamix9V/fE2ZfLpcs/g6mThxkj2uHl8Py8M0AAAAeo8WXgCQYTSgCP5Phf4vi74qGzZskE2bNttj6zQAAAAApCtaeAFIK7Tw6pz+wM4JheRAS6sdd+1B+saFF14gkyZNlHnzF0T+b0lPW6LQwit90MKLFl4AAADZiBZeAJAhgpZWqrXNlQPmytmWVi1tKSruGPr/R/RCvc0O9YX4FwMAAAAAaYYWXgDSCi28ErOtQsyPbG0J8u4HrXZcf4D3RYsQ/U1RdvGFctrEiTJv3nzzGkK2BYy2R+nJsWnhlT5o4dUsRUWnypoHf2RbT+bkiJiPt9Gzz/ahuH91haXN/H3Fwsvl1ttup4UXAABAChB4AUgrBF6J6QVym/lrkLkaf2d/i50XslfGYXuhniq669a2sJRddKF8YeJE+fr5GnhpKKDhgLtA766BGXg1iVQtN8NZIuXFblYaGOiB19/f3CtfPe8cef/9/fazHvlE2/Hk83mXpZH1ypoHZNTIUTZEJvACAABIHgIvAGmFwCsx/WGtgZdeGGvgpRfFrkWKa22lXACWPPZXhPmjtzBedOGF8oXTNPA6316YaxmYgVeTSNk8ke1mdHG9SJBdVZWJrDMzxywWqY4XaNWZE1RihqWmTqvdrDQw0AMv/Wy3tIZtqKvfH/u5tt8tv1Iy/5Xk9xkct9V8n3Wox8wzhcALAAAgeejDCwAykF4QBxfnwQV69IV6soq9ANdxnfCSef2fsbY3iDSYEmiqEqmocfNmpU/rLXRN8JnWgLetzYVfrl88139d0orfp+5fj6PHs98s8wIIuQAAAJKLwAsAMpReH9vgy1wta7sQO53korQVWWTa/JXsVmSZr0lkXoUbLa1tb/EVaDLLkaZc4GQ/42ZEgy9tcaXF/LGBVPJLcAz7AqwgUNa/+XoBAAAkB4EXAGQqvXI2f1wcFXX13EMHDhyQX/3qV7J582Y/x12At++598fISlXzRLSxV2Flx1sZtdVXkanBggKXYpSt9wuQLjS81VMTtGYMbisMAjC3PNnFBWx6nKDoP8bsP8jMMgAAACQHgRcAZAG9kO6N1tZWeeSRR2TJkiWyZcsWPzdA0JXQLr2VUdOuUpH6cjfP8q2+bBBWaBabUlPjFiFt6LdGiz6VUR/CYEMvM9FXJVeHPvSy32G+agAAAElDp/VAtmqqE1muLUpGiywyF+L5bna6o9P6jvQ4p59+uu3cXX9YB53Wv/tBi/0/Fnm5Of5i2a7eY/qr4M0335SHHnpIWlpa5PLLL/dL3O1X+pviggULpGjiJPn6+fNcQKAtU/TYfr3uyPhO64sKXJgV0NZd0YGXtu4q0NscozqojzNv69atsnfvXjveX2699VaZO3fugOy0Xuln22ZNZmg+6WZOL79M3aRHC7Kuvj0yAABAdiPwAlRZkXviWsQYkTmjRc7ublCU4Olt0arMsdb5cTXGHGvWIrOuP9BBr0WZddaaC+SuvpbIhbVX2ShSnhmJF4FXRzfccIOsXbvWhkMjRo7sdeClgdaTTz7pp5wLLrjAhmqqpqZG3nnnHQKvTkUFXrW1IiX65EUdN5UUfOfrysz8mpgg7OCnNOoTEvUz35+GDBkiK1euzNBzkTz2X0P9kTiZ4/Y2sAYAAMDBCLyAeK01omkn1NH98nQq+kI46uI3opNj2QvjsxMsLxRprO964KWhmt5m1a3Xnh4IvDrSwEtvM9Qw4qlNm2T48JG9CrxeeeUV+etf/+qnnOHDh8s//dM/2fH7779f3n33XSkvb2+tROAVK+Z7vst/36Jbc3Ux8AIAAACQGvThBUTTi1e9sg83ilQWunk15gLVXKcmXXCsRnNBrBoqOh4n8lq0dCPsijbaXJTHY67XkVk0CJwyeXKXWwPV19fLsmXLbFj2/e9/37bsUp/85Cfls5/9bIcShF1qz5498re//c1PoUvK19pM2vywECnzX+KC0W7YsMMNVdMuPwIAAAAg1WjhBXTWKitoKRXbP09C3WjhFVkeNa+yVmRdSSfbH0rUviKC1mGxy8z82gS3XfajTGrhVVVVJTNnzvRzUuOZZ56RjRs3+imxLaK0jg7Vwuucc86Rww8/XCZNmiQ33XSTzJgxQ26//Xa/NL5rrrlGHn74YTt+ySWXyGWXXWb2G4q08Jrzla/Ihy0tMnbsWNuqK3iSXU9o3T3//PPZ0cJLv0PRtxHbeUFrLqOwVGTMdpGa4MtHCy8AAAAg1WjhBXTm7DluGN1KI63lmwtr3zLNMuOFY8ww6gJdL75LTSk0E+tT0XRtYNA+r1Iddqn9+/f7MaerHZyPHz9eqqur5YgjjpCSkhK55ZZb/JLELrroItu/l5Yvf/nLNuyKpn17JcvVV18tw4YN81NZIL+8vVVoSZn5qziq9WaNC7v0FmPz1QMAAACQerTwAuK2uvIirTaCVlJudmKd7MuKWq6tuY7fJbLM7F+nbauPRe3LO+hmi5CgZVrQWX2cp8PFoy2HtOVSf9q3b5+sX78+7Vt49ZWgDy81dOhQ+c1vNsm//uvJXerD67e//a0sXbpU7rvvPhkxYoSf232p6MNrQGky3/v8ntyTDAAAAKCnaOEFdMmYLoRd3VRRIlLiwy5tddUYE0QFLbFsmeVn9lCjb6FW6PsVSqCrrYdS6aijjpIVK1b4KQQ07NJO68eOG+fndO5Pf/qT3HjjjXLttdfasKulpcUvQZ8j7AIAAAD6HC28gM5aZaW0D69GETNqk7TI9fChtu+i2BZecZ8Yh0ygLby0vyt9oqGGXW1t2qqr86c06lMWFy9eLKeeeqrMmTPH7kP79DrxxBP9Gt1DCy8AAAAAmYYWXkAiehughkZqztlumFQadEWHXX2gQ19kTfYP0pu27NKwa1wXW3ape+65R37yk5/Ic889J1/96lfl17/+tRx77LF+KQAAAABkPwIvIFpJkUiRllD7E9e0VZS2kuquyL60aCfW/ag4uCWyxr2WMlO0JdlyOq1PdxUVFd0Ku9TZZ58tP/rRj6SwsFDmzp0r9957rxx99NF+KQAAAABkPwIvoIMG80eLGS0sdLcd9vgWwGBffn/9qtg9MU4fImefGGdKg5mY1dN7JpHO/vmf/1nOOOMMmTVrlsyYMUPGjNEndQIAAADAwEEfXsBAo0+M69BvGDKF/rDuSh9eyUYfXgAAAAAyDYEX0GVNImXL/XgCs6p73tH8IfX38dHfCLwAAAAAoGsIvIAuqzPfmBI/nkDwVMSU6O/jo78ReAEAAABA19CHF9BlxWKv+jsrKQ2b+vv4AAAAAABkBgIvAAAAAAAAZBUCLwAAAAAAAGQVAi8AwCHQSxcAAACAzEKn9QCQIfSHddBp/RO/+o2NoXLNuPs/F6npuN7+gtAu4szg1ltvlS9/ZQ6d1gMAAABIewReAJAhgsBrwYL50tzcLKFQVNiUotRJdxsdelXddY+ccOKJBF4AAAAA0hqBFwBkiCDwOtDaKq1mqIGXDZ184qTTLp1KIrvvsDlu2BzTDM3+9Xh5uTl2SOAFAAAAIB0ReAFAhtCwKQieWkzRn942cAr5XCpF9NdE2BxBj62hmgZdeiultvIi8AIAAACQjgi8ACBDaOClP7Jd4KXTGkMZtmVXan+U696DYCs3p72Fl8ZdengAAAAASCcEXgCQIfSntba10uAruL1QZ9pbGVNMf1XocYIWXtqyK0fbfZF2AQAAAEhDBF4AkEH0R7bPuaJaXfVN6GSPbP5oxmVbdxF2AQAAAEhTBF4AkGH0h3Z//uTWmIusCwAAAEA6I/ACAAAAAKTIq1L33G2y7C2ROSeukPLjROpeXCjLXtVlI2Tx+Aop/ohd0XhVqp66TdbJF2TxlC9LsZ/bvr730REy57ivyNnHfULy4+w/4u0tUvbsT2W72d9as7/odRNp34df99VmaTBThR8ZKWNOvFKqzTEBZIYcPwQAAAAAIOl2vdUsDW83yw479ars0hDJTDe8/bSUvLjFznVekR12/v/z0yp6fV9efVoqnr1UCp56WJrMGh33H+0V2e731+jnBOsmKsFrrHrqUimJCrt0Wc2zP5c6uxxAJiDwAgAAAAD0j1e/J2Wv+fFDKB3/qIRnmjLla1KoM95+SJZ3cVvnE1I+xe9j5t1S6VuWRfZrSrW27nr7GVn3ti6ZJLVmXv2UFXb9xvFfibQ6A5D+CLwAAAAAAH1spJR+YqQdq9npWmp12UcmyBwfVm1/+xU3kkxv/z/bsktkt+yywZf6hORzOyOQUQi8AAAAAAB9bvQJ50ipjnS7pVaKHXeqe13SLBVPLZSi57ZIUyT4ApApCLwAAAAAAP3gFFl0YtdbeW1/e4vUvfawlD11qVT4Ww4Xn/BJuyy5TpHq4LZJaZaGV78nBU8tlLIXo3vOB5DuCLwAAAAAAP0ivxutvBp2fk9Knn1IajTs+sgkqZxSkbo+tT7yZam3/XZNigRfNTsv7XJ/YwD6H4EXAAAAAKCfRLfy+qls931zxVM6/m5pnKJFO66vkPJO1k0O7berwgZfQQf329+mlReQKQi8AAAAAAD9pr2VV7M0dNpX1ick/yNa/KT1CTn+o26s5rUtbsSre/Eh1/n8J07tXkuwt1+lzy4gCxB4AQAAAAD60SlSPX6SH+++4hN8f1uvfk9C2tfWc5VS9tRsKfGNsUqPO8WNdFHTa7dJgdm+6CmzH7uvoM+wkTKHJzUCGYPACwAAAADQv477SuS2wW77yJdlbdDX1tvNUvPq076fr5FSOf5uqT5OF3Rd/nFfkFLzWhreNvuJ7Ev7DFvRB7dRAkiWUNjw4wAAAAAAZDB/O6Le+uhm9EIy9wWgrxF4AQAAAAAAIKtwSyMAAAAAAACyCoEXAAAAAAAAsgqBFwAAAAAAALIKgRcAAAAAAACyCoEXAAAAAAAAsgqBFwAAAAAAALIKgRcAAAAAAACySihs+HEAAAAAAFKkSWT3cpG/bhd5r8HNOqJUZOQikWPy3bRl1tsxT+RdMzqy3ixzc6336kT+uMyMzBEZf3b7eono9u8VmWP6aXXkGLPPFB/zGL+/N4L3WWjmr405JoBUIvACAAAAAKRYncizJSLv+UkNgILQSx1TKzK62E80mXUL3LqjzeVqh/CpyiyrMCOlIpMWta+XyOhGkeYE6xxRKTK+3E+k8JiR96rbV7t5AFKOWxoBAAAAAKm1Iwi7SkXGh02pF5lkhqPNtHrDLH/DjXZdvtuX7mdSo8gRfrYGVnaeKdHBVTB/fKWbfq8iNcc88vH292qPp+/VrDt6kV0VQN8g8AIAAAAApFBde7A0uro9JFLHmOkglHrDrNcXjji7/TW81+RHkujdHX5Eb930oxqUcTsj0KcIvAAAAAAAqfPGej9S2rHFVeDIQjd8d5cbZrpjZvmRBpFni0R21EUFXwD6CoEXAAAAACD7aefzb2h/XEH/WqUiI1LR6qq4/bZJDb30dk0NvnanoDUZgIQIvAAAAAAA2a+5RGRHhQu79OmQ41PYgfwR5b7fLt9HmQZf2pF9t/sMA9BTBF4AAAAAgNQ5crQfie7TKsq7/mmNRx7vhqmiT08cr0U7ko/pSywltN8uc5zozu1T0WcYgLgIvAAAAAAAqRPpJF5bOcV0TP9eVXurp2OK/Ui+yJF+NLYj++YKN4z0k9UdZr9HaPGTHSTxmBpq0WcX0O8IvAAAAAAAKZQvMtLf2hf0Z7WjzA2fDcKkWlPcqDXS94HVYf1QnHAsiZJ1zDfmue2eNdvbfQR9hhWafZi6ANAnCLwAAAAAAKmlt/YF/Vm9px2517ihhkAja82ymDBJ+8A6aH2db9bXWxPjPe2xt5J1zGPmuFZk75ntI/sw+x1f7+YD6BOhsOHHAQAAAABIseCWv0S3F8by6+vtiH0mGcfsj9cNIEDgBQAAAAAAgKzCLY0AAAAAAADIKgReAAAAAAAAyCoEXgAAAAAAAMgqBF4AAAAAAADIKgReAAAAAAAAyCoEXgAAAAAAAMgqBF4AAAAAAADIKgReAAAAAAAAyCoEXgAAAAAAAMgqBF4AAAAAAADIKgReAAAAAAAAyCoEXgAAAACAFGsSqSoTKSoSCYXcsKzOL1Mxy+06ZrrOzI9VZdbR9XR5h8Vmws6v8tNeWbB+dAm2NX8Fy6Nfjqoz+9H5kddjxvU1xx4z0fZNZoY9ln89B70O8xqqYvcXpckfX0tV7EpRx01UtO4SvTbdviv13a269seLrq945w/oI6Gw4ccBAAAAAEgyDUcKRBr8ZLTKRpFyU4pK2pcXFprxqJVLa0Wqi/1EzL46LKszV7hmP1IqEq52sxIe2xyjsV4kP2p5rbk0truKs41Zvf31VYrUl/uJeNt7GlgVVJgRfT2LErwOFbwWPxkoC4nU+PEO70klel9Rak29Lov32jSI60p9xxyj07qOWTeyz9jXDfQdWngBAAAAAFKnLAhCNNgJi2ibCy21pXaxlAXhi5nW5fX1HZfXmOUHtVDyOlsWS0Of4NjhOAFToGpe++vV0EjXr/fb1VaKjDnertZjwetorPUzzMEeb/LjAfOmbNhlXoP5Yyc6vE/z4oPXFDav0a5jRL/H6PAtWk/ru7O6bnq8fZ+6L7tP87pqF9nFQH8g8AIAAAAApEgQ3Bi1MSFTcbVr3RVZbqZjl/sMRtbHJi2FZplPeZZF31bXW+Y4FTa5ca+3OCYVKy6PauXUS/lmP8H7i1W33g1LF4vM8e/zoDroiejz0dX67kJdN+7wI9ttYy/H7Dy2/oA+ROAFAAAAAEiNILjR0KTAj0aLLC+VuC2SRvugZfsuN4y2aLEbNlTYHCcp4r6eJvMnqiSL3vIYhE/HxwRD6/2CWeZFnD3HjdcEr60Xelrfh6rr4ll+pMGc5yI5uK8zoO8ReAEAAAAAUmxMx9ZESVEsUnmIlkfRSnxn6raU+ZkJFI72I02ub6qCqBLbKX53Ba/D9u9lXr/2Y9YhfApaYflQKv9su5qdmaxgr9sOVddmeWOlH28wL7XEBV8HdbYP9B0CLwAAAABAZirvRiuvwlKR0qAELZIOJV9ksd9GO2JPBvs6ovZ1dkwSGLmd0bxG26rMjI/x6yfltsYeOlRd55f7frvM+7MaRCoK+jGkw0BH4AUAAAAASI2CoKVUgtZJkeXRfT9F2eH700rYUXx0y6NlviVUAourRaqD0qFJVbvg9TSsa3892reVbrN4jJ/RS/Z11PvXbd7fvJgWU8HtjLaVlG9VVuProbe3NfaqvrtS1/muvqI70t8V70BA6hF4AQAAAABSI3I7nhF7K1xTnUjj8X55g8jymEQsuo8r7csqkUjLI7MPn9f0WOT1mh3FBlFx5du7Na3Y1lfL9ZZFI1FrsqBvrg4tpsyIfc/mRURao/li9fK2xuj315P6TlTXQUs0II0QeAEAAAAAUsTfEqg02NG+q8rKRIq0D6sSEW2wFCzXFk1F2uG5LjdD28eVUVprGxclZhZGbqPrLfN61/q+qILXW2ReT5l5PSVBGhRjkV+/w+s32x0qPNJbAIOXHYRlVcvcUJ/OGGmN5kvsuj0SdT56VN8J6vrxeWb7oK50fwU+ECs8+JZNoI8QeAEAAAAAUkdvcaut9C2LjJoaF4ZoX1aLiv1yH6JoyyG73K4gUlkrCW8/jFa8qH3/vaVBVKM5btDPVoN5PcEthXqQxWf7cU/XP+j1m3Ht86s2tkP6GLOC8GmZayW1zh8nXkgWWbeXtzX2tr7j1bW2VtN5tq6C92+O0VhvMzagP4TChh8HAAAAACCF/K1v+YlSkODWOLM8XYISDaJUwtcc7VDvL90ku74z7f0jmxF4AQAAAAAAIKtwSyMAAAAAAACyCoEXAAAAAAAAsgqBFwAAAAAAALIKgRcAAAAAAACyCoEXAAAAAAAAsgqBFwAAAAAAALIKgRcAAAAAAACyCoEXAKL6vvUAAAAsSURBVAAAAAAAsgqBFwAAAAAAALIKgRcAAAAAAACyCoEXAAAAAAAAsojI/wdB/54qmfkFIgAAAABJRU5ErkJggg==;" parent="1" vertex="1">
          <mxGeometry x="130" y="50" width="462" height="217.66" as="geometry" />
        </mxCell>
        <mxCell id="eP6nw5wjm52sRNoZTNny-1" value="TODO: must be minus here" style="text;html=1;align=center;verticalAlign=middle;whiteSpace=wrap;rounded=0;fillColor=#d5e8d4;strokeColor=#82b366;" vertex="1" parent="1">
          <mxGeometry x="200" y="300" width="200" height="30" as="geometry" />
        </mxCell>
        <mxCell id="eP6nw5wjm52sRNoZTNny-2" value="" style="endArrow=classic;html=1;rounded=0;entryX=0.519;entryY=0.276;entryDx=0;entryDy=0;entryPerimeter=0;exitX=0.5;exitY=0;exitDx=0;exitDy=0;" edge="1" parent="1" source="eP6nw5wjm52sRNoZTNny-1" target="gtkOJ3tAxyh9CTiIysoa-1">
          <mxGeometry width="50" height="50" relative="1" as="geometry">
            <mxPoint x="350" y="260" as="sourcePoint" />
            <mxPoint x="400" y="210" as="targetPoint" />
          </mxGeometry>
        </mxCell>
        <mxCell id="eP6nw5wjm52sRNoZTNny-12" value="LPF" style="whiteSpace=wrap;html=1;aspect=fixed;fontFamily=Helvetica;fontStyle=2" vertex="1" parent="1">
          <mxGeometry x="180" y="440" width="40" height="40" as="geometry" />
        </mxCell>
        <mxCell id="eP6nw5wjm52sRNoZTNny-13" value="Kp" style="whiteSpace=wrap;html=1;aspect=fixed;fontFamily=Helvetica;fontStyle=2" vertex="1" parent="1">
          <mxGeometry x="240" y="440" width="40" height="40" as="geometry" />
        </mxCell>
        <mxCell id="eP6nw5wjm52sRNoZTNny-14" value="Ki" style="whiteSpace=wrap;html=1;aspect=fixed;fontFamily=Helvetica;fontStyle=2" vertex="1" parent="1">
          <mxGeometry x="300" y="440" width="40" height="40" as="geometry" />
        </mxCell>
        <mxCell id="eP6nw5wjm52sRNoZTNny-15" value="Kd" style="whiteSpace=wrap;html=1;aspect=fixed;fontFamily=Helvetica;fontStyle=2" vertex="1" parent="1">
          <mxGeometry x="360" y="440" width="40" height="40" as="geometry" />
        </mxCell>
        <mxCell id="eP6nw5wjm52sRNoZTNny-24" value="" style="ellipse;whiteSpace=wrap;html=1;aspect=fixed;" vertex="1" parent="1">
          <mxGeometry x="430" y="448.75" width="22.5" height="22.5" as="geometry" />
        </mxCell>
        <mxCell id="eP6nw5wjm52sRNoZTNny-25" value="z&lt;sup&gt;-1&lt;/sup&gt;" style="whiteSpace=wrap;html=1;aspect=fixed;fontFamily=Helvetica;fontStyle=2" vertex="1" parent="1">
          <mxGeometry x="480" y="440" width="40" height="40" as="geometry" />
        </mxCell>
        <mxCell id="eP6nw5wjm52sRNoZTNny-26" value="Ref" style="text;html=1;align=right;verticalAlign=middle;whiteSpace=wrap;rounded=0;fontFamily=Verdana;fontStyle=3" vertex="1" parent="1">
          <mxGeometry x="80" y="660" width="60" height="30" as="geometry" />
        </mxCell>
        <mxCell id="eP6nw5wjm52sRNoZTNny-27" value="Act" style="text;html=1;align=right;verticalAlign=middle;whiteSpace=wrap;rounded=0;fontFamily=Verdana;fontStyle=3" vertex="1" parent="1">
          <mxGeometry x="80" y="695" width="60" height="30" as="geometry" />
        </mxCell>
        <mxCell id="eP6nw5wjm52sRNoZTNny-28" value="FF" style="text;html=1;align=right;verticalAlign=middle;whiteSpace=wrap;rounded=0;fontFamily=Verdana;fontStyle=3" vertex="1" parent="1">
          <mxGeometry x="80" y="620" width="60" height="30" as="geometry" />
        </mxCell>
        <mxCell id="eP6nw5wjm52sRNoZTNny-29" value="" style="ellipse;whiteSpace=wrap;html=1;aspect=fixed;" vertex="1" parent="1">
          <mxGeometry x="194" y="663.75" width="22.5" height="22.5" as="geometry" />
        </mxCell>
        <mxCell id="eP6nw5wjm52sRNoZTNny-30" value="" style="endArrow=classic;html=1;rounded=0;entryX=0;entryY=0.5;entryDx=0;entryDy=0;exitX=1;exitY=0.5;exitDx=0;exitDy=0;" edge="1" parent="1" source="eP6nw5wjm52sRNoZTNny-26" target="eP6nw5wjm52sRNoZTNny-29">
          <mxGeometry width="50" height="50" relative="1" as="geometry">
            <mxPoint x="89" y="815" as="sourcePoint" />
            <mxPoint x="139" y="765" as="targetPoint" />
          </mxGeometry>
        </mxCell>
        <mxCell id="eP6nw5wjm52sRNoZTNny-31" value="" style="endArrow=classic;html=1;rounded=0;entryX=0.5;entryY=1;entryDx=0;entryDy=0;exitX=1;exitY=0.5;exitDx=0;exitDy=0;edgeStyle=elbowEdgeStyle;" edge="1" parent="1" source="eP6nw5wjm52sRNoZTNny-27" target="eP6nw5wjm52sRNoZTNny-29">
          <mxGeometry width="50" height="50" relative="1" as="geometry">
            <mxPoint x="114" y="785" as="sourcePoint" />
            <mxPoint x="164" y="735" as="targetPoint" />
            <Array as="points">
              <mxPoint x="205" y="695" />
            </Array>
          </mxGeometry>
        </mxCell>
        <mxCell id="eP6nw5wjm52sRNoZTNny-32" value="+" style="text;html=1;align=center;verticalAlign=middle;whiteSpace=wrap;rounded=0;" vertex="1" parent="1">
          <mxGeometry x="174" y="660" width="15" height="15" as="geometry" />
        </mxCell>
        <mxCell id="eP6nw5wjm52sRNoZTNny-33" value="-" style="text;html=1;align=center;verticalAlign=middle;whiteSpace=wrap;rounded=0;" vertex="1" parent="1">
          <mxGeometry x="190" y="689" width="15" height="15" as="geometry" />
        </mxCell>
        <mxCell id="eP6nw5wjm52sRNoZTNny-34" value="" style="endArrow=classic;html=1;rounded=0;exitX=1;exitY=0.5;exitDx=0;exitDy=0;entryX=0;entryY=0.5;entryDx=0;entryDy=0;" edge="1" parent="1" source="eP6nw5wjm52sRNoZTNny-29" target="eP6nw5wjm52sRNoZTNny-37">
          <mxGeometry width="50" height="50" relative="1" as="geometry">
            <mxPoint x="284" y="685" as="sourcePoint" />
            <mxPoint x="329" y="675" as="targetPoint" />
          </mxGeometry>
        </mxCell>
        <mxCell id="eP6nw5wjm52sRNoZTNny-35" value="error" style="text;html=1;align=center;verticalAlign=middle;whiteSpace=wrap;rounded=0;fontFamily=Verdana;fontStyle=2" vertex="1" parent="1">
          <mxGeometry x="215.5" y="660" width="45" height="15" as="geometry" />
        </mxCell>
        <mxCell id="eP6nw5wjm52sRNoZTNny-36" value="Ki" style="whiteSpace=wrap;html=1;aspect=fixed;fontFamily=Helvetica;fontStyle=2" vertex="1" parent="1">
          <mxGeometry x="280" y="725" width="40" height="40" as="geometry" />
        </mxCell>
        <mxCell id="eP6nw5wjm52sRNoZTNny-37" value="Kp" style="whiteSpace=wrap;html=1;aspect=fixed;fontFamily=Helvetica;fontStyle=2" vertex="1" parent="1">
          <mxGeometry x="280" y="655" width="40" height="40" as="geometry" />
        </mxCell>
        <mxCell id="eP6nw5wjm52sRNoZTNny-39" value="" style="ellipse;whiteSpace=wrap;html=1;aspect=fixed;" vertex="1" parent="1">
          <mxGeometry x="540" y="733.75" width="22.5" height="22.5" as="geometry" />
        </mxCell>
        <mxCell id="eP6nw5wjm52sRNoZTNny-40" value="" style="endArrow=classic;html=1;rounded=0;exitX=1;exitY=0.5;exitDx=0;exitDy=0;entryX=0;entryY=0.5;entryDx=0;entryDy=0;" edge="1" parent="1" source="eP6nw5wjm52sRNoZTNny-37" target="eP6nw5wjm52sRNoZTNny-41">
          <mxGeometry width="50" height="50" relative="1" as="geometry">
            <mxPoint x="424" y="585" as="sourcePoint" />
            <mxPoint x="434" y="605" as="targetPoint" />
          </mxGeometry>
        </mxCell>
        <mxCell id="eP6nw5wjm52sRNoZTNny-41" value="" style="ellipse;whiteSpace=wrap;html=1;aspect=fixed;" vertex="1" parent="1">
          <mxGeometry x="418" y="663.75" width="22.5" height="22.5" as="geometry" />
        </mxCell>
        <mxCell id="eP6nw5wjm52sRNoZTNny-42" value="+" style="text;html=1;align=center;verticalAlign=middle;whiteSpace=wrap;rounded=0;" vertex="1" parent="1">
          <mxGeometry x="400" y="677" width="15" height="15" as="geometry" />
        </mxCell>
        <mxCell id="eP6nw5wjm52sRNoZTNny-43" value="" style="endArrow=classic;html=1;rounded=0;exitX=1;exitY=0.5;exitDx=0;exitDy=0;edgeStyle=orthogonalEdgeStyle;jumpStyle=arc;entryX=0.5;entryY=0;entryDx=0;entryDy=0;" edge="1" parent="1" source="eP6nw5wjm52sRNoZTNny-28" target="eP6nw5wjm52sRNoZTNny-41">
          <mxGeometry width="50" height="50" relative="1" as="geometry">
            <mxPoint x="139" y="615" as="sourcePoint" />
            <mxPoint x="420" y="595" as="targetPoint" />
            <Array as="points">
              <mxPoint x="430" y="635" />
              <mxPoint x="430" y="664" />
            </Array>
          </mxGeometry>
        </mxCell>
        <mxCell id="eP6nw5wjm52sRNoZTNny-44" value="+" style="text;html=1;align=center;verticalAlign=middle;whiteSpace=wrap;rounded=0;" vertex="1" parent="1">
          <mxGeometry x="430" y="643" width="15" height="15" as="geometry" />
        </mxCell>
        <mxCell id="eP6nw5wjm52sRNoZTNny-45" value="" style="endArrow=classic;html=1;rounded=0;entryX=0;entryY=0.5;entryDx=0;entryDy=0;edgeStyle=orthogonalEdgeStyle;startArrow=oval;startFill=1;" edge="1" parent="1" target="eP6nw5wjm52sRNoZTNny-36">
          <mxGeometry width="50" height="50" relative="1" as="geometry">
            <mxPoint x="260" y="675" as="sourcePoint" />
            <mxPoint x="309" y="720" as="targetPoint" />
            <Array as="points">
              <mxPoint x="260" y="675" />
              <mxPoint x="260" y="745" />
            </Array>
          </mxGeometry>
        </mxCell>
        <mxCell id="eP6nw5wjm52sRNoZTNny-47" value="" style="group" vertex="1" connectable="0" parent="1">
          <mxGeometry x="120" y="440" width="40" height="40" as="geometry" />
        </mxCell>
        <mxCell id="eP6nw5wjm52sRNoZTNny-8" value="" style="whiteSpace=wrap;html=1;aspect=fixed;" vertex="1" parent="eP6nw5wjm52sRNoZTNny-47">
          <mxGeometry width="40" height="40" as="geometry" />
        </mxCell>
        <mxCell id="eP6nw5wjm52sRNoZTNny-9" value="" style="endArrow=none;html=1;rounded=0;flowAnimation=0;shadow=0;arcSize=20;linejoin=arcs;" edge="1" parent="eP6nw5wjm52sRNoZTNny-47">
          <mxGeometry width="50" height="50" relative="1" as="geometry">
            <mxPoint x="5" y="35" as="sourcePoint" />
            <mxPoint x="5" y="5" as="targetPoint" />
          </mxGeometry>
        </mxCell>
        <mxCell id="eP6nw5wjm52sRNoZTNny-10" value="" style="endArrow=none;html=1;rounded=0;curved=1;jumpStyle=arc;strokeWidth=1;startArrow=none;startFill=0;" edge="1" parent="eP6nw5wjm52sRNoZTNny-47">
          <mxGeometry width="50" height="50" relative="1" as="geometry">
            <mxPoint x="35" y="35" as="sourcePoint" />
            <mxPoint x="5" y="35" as="targetPoint" />
          </mxGeometry>
        </mxCell>
        <mxCell id="eP6nw5wjm52sRNoZTNny-11" value="" style="endArrow=none;html=1;rounded=0;curved=1;jumpStyle=arc;strokeWidth=1;startArrow=none;startFill=0;" edge="1" parent="eP6nw5wjm52sRNoZTNny-47">
          <mxGeometry width="50" height="50" relative="1" as="geometry">
            <mxPoint x="30" y="10" as="sourcePoint" />
            <mxPoint x="5" y="35" as="targetPoint" />
          </mxGeometry>
        </mxCell>
        <mxCell id="eP6nw5wjm52sRNoZTNny-48" value="" style="group" vertex="1" connectable="0" parent="1">
          <mxGeometry x="60" y="440" width="40" height="40" as="geometry" />
        </mxCell>
        <mxCell id="eP6nw5wjm52sRNoZTNny-16" value="" style="whiteSpace=wrap;html=1;aspect=fixed;fillColor=default;" vertex="1" parent="eP6nw5wjm52sRNoZTNny-48">
          <mxGeometry width="40" height="40" as="geometry" />
        </mxCell>
        <mxCell id="eP6nw5wjm52sRNoZTNny-17" value="" style="endArrow=none;html=1;rounded=0;" edge="1" parent="eP6nw5wjm52sRNoZTNny-48">
          <mxGeometry width="50" height="50" relative="1" as="geometry">
            <mxPoint x="20" y="35" as="sourcePoint" />
            <mxPoint x="20" y="5" as="targetPoint" />
          </mxGeometry>
        </mxCell>
        <mxCell id="eP6nw5wjm52sRNoZTNny-18" value="" style="endArrow=none;html=1;rounded=0;" edge="1" parent="eP6nw5wjm52sRNoZTNny-48">
          <mxGeometry width="50" height="50" relative="1" as="geometry">
            <mxPoint x="35" y="20" as="sourcePoint" />
            <mxPoint x="5" y="20" as="targetPoint" />
          </mxGeometry>
        </mxCell>
        <mxCell id="eP6nw5wjm52sRNoZTNny-19" value="" style="endArrow=none;html=1;rounded=0;strokeWidth=2;jumpStyle=none;" edge="1" parent="eP6nw5wjm52sRNoZTNny-48">
          <mxGeometry width="50" height="50" relative="1" as="geometry">
            <mxPoint x="10" y="30" as="sourcePoint" />
            <mxPoint x="30" y="10" as="targetPoint" />
          </mxGeometry>
        </mxCell>
        <mxCell id="eP6nw5wjm52sRNoZTNny-20" value="" style="endArrow=none;html=1;rounded=0;strokeWidth=2;exitX=0.875;exitY=0.25;exitDx=0;exitDy=0;exitPerimeter=0;" edge="1" parent="eP6nw5wjm52sRNoZTNny-48" source="eP6nw5wjm52sRNoZTNny-16">
          <mxGeometry width="50" height="50" relative="1" as="geometry">
            <mxPoint x="34" y="10" as="sourcePoint" />
            <mxPoint x="29" y="10" as="targetPoint" />
          </mxGeometry>
        </mxCell>
        <mxCell id="eP6nw5wjm52sRNoZTNny-21" value="" style="endArrow=none;html=1;rounded=0;strokeWidth=2;exitX=0.125;exitY=0.75;exitDx=0;exitDy=0;exitPerimeter=0;" edge="1" parent="eP6nw5wjm52sRNoZTNny-48" source="eP6nw5wjm52sRNoZTNny-16">
          <mxGeometry width="50" height="50" relative="1" as="geometry">
            <mxPoint x="6" y="30" as="sourcePoint" />
            <mxPoint x="11" y="30" as="targetPoint" />
          </mxGeometry>
        </mxCell>
        <mxCell id="eP6nw5wjm52sRNoZTNny-49" value="" style="group" vertex="1" connectable="0" parent="1">
          <mxGeometry x="400" y="725" width="40" height="40" as="geometry" />
        </mxCell>
        <mxCell id="eP6nw5wjm52sRNoZTNny-50" value="" style="whiteSpace=wrap;html=1;aspect=fixed;" vertex="1" parent="eP6nw5wjm52sRNoZTNny-49">
          <mxGeometry width="40" height="40" as="geometry" />
        </mxCell>
        <mxCell id="eP6nw5wjm52sRNoZTNny-51" value="" style="endArrow=none;html=1;rounded=0;flowAnimation=0;shadow=0;arcSize=20;linejoin=arcs;" edge="1" parent="eP6nw5wjm52sRNoZTNny-49">
          <mxGeometry width="50" height="50" relative="1" as="geometry">
            <mxPoint x="5" y="35" as="sourcePoint" />
            <mxPoint x="5" y="5" as="targetPoint" />
          </mxGeometry>
        </mxCell>
        <mxCell id="eP6nw5wjm52sRNoZTNny-52" value="" style="endArrow=none;html=1;rounded=0;curved=1;jumpStyle=arc;strokeWidth=1;startArrow=none;startFill=0;" edge="1" parent="eP6nw5wjm52sRNoZTNny-49">
          <mxGeometry width="50" height="50" relative="1" as="geometry">
            <mxPoint x="35" y="35" as="sourcePoint" />
            <mxPoint x="5" y="35" as="targetPoint" />
          </mxGeometry>
        </mxCell>
        <mxCell id="eP6nw5wjm52sRNoZTNny-53" value="" style="endArrow=none;html=1;rounded=0;curved=1;jumpStyle=arc;strokeWidth=1;startArrow=none;startFill=0;" edge="1" parent="eP6nw5wjm52sRNoZTNny-49">
          <mxGeometry width="50" height="50" relative="1" as="geometry">
            <mxPoint x="30" y="10" as="sourcePoint" />
            <mxPoint x="5" y="35" as="targetPoint" />
          </mxGeometry>
        </mxCell>
        <mxCell id="eP6nw5wjm52sRNoZTNny-54" value="" style="ellipse;whiteSpace=wrap;html=1;aspect=fixed;" vertex="1" parent="1">
          <mxGeometry x="349.75" y="733.75" width="22.5" height="22.5" as="geometry" />
        </mxCell>
        <mxCell id="eP6nw5wjm52sRNoZTNny-55" value="" style="endArrow=classic;html=1;rounded=0;entryX=0;entryY=0.5;entryDx=0;entryDy=0;exitX=1;exitY=0.5;exitDx=0;exitDy=0;" edge="1" parent="1" source="eP6nw5wjm52sRNoZTNny-36" target="eP6nw5wjm52sRNoZTNny-54">
          <mxGeometry width="50" height="50" relative="1" as="geometry">
            <mxPoint x="354" y="810" as="sourcePoint" />
            <mxPoint x="404" y="760" as="targetPoint" />
          </mxGeometry>
        </mxCell>
        <mxCell id="eP6nw5wjm52sRNoZTNny-56" value="" style="endArrow=classic;html=1;rounded=0;entryX=0;entryY=0.5;entryDx=0;entryDy=0;exitX=1;exitY=0.5;exitDx=0;exitDy=0;" edge="1" parent="1" source="eP6nw5wjm52sRNoZTNny-54" target="eP6nw5wjm52sRNoZTNny-50">
          <mxGeometry width="50" height="50" relative="1" as="geometry">
            <mxPoint x="419" y="775" as="sourcePoint" />
            <mxPoint x="464" y="775" as="targetPoint" />
          </mxGeometry>
        </mxCell>
        <mxCell id="eP6nw5wjm52sRNoZTNny-57" value="" style="endArrow=classic;html=1;rounded=0;entryX=0;entryY=0.5;entryDx=0;entryDy=0;exitX=1;exitY=0.5;exitDx=0;exitDy=0;" edge="1" parent="1" source="eP6nw5wjm52sRNoZTNny-50" target="eP6nw5wjm52sRNoZTNny-39">
          <mxGeometry width="50" height="50" relative="1" as="geometry">
            <mxPoint x="509" y="825" as="sourcePoint" />
            <mxPoint x="559" y="775" as="targetPoint" />
          </mxGeometry>
        </mxCell>
        <mxCell id="eP6nw5wjm52sRNoZTNny-58" value="" style="endArrow=classic;html=1;rounded=0;exitX=1;exitY=0.5;exitDx=0;exitDy=0;entryX=0.5;entryY=0;entryDx=0;entryDy=0;edgeStyle=orthogonalEdgeStyle;" edge="1" parent="1" source="eP6nw5wjm52sRNoZTNny-41" target="eP6nw5wjm52sRNoZTNny-39">
          <mxGeometry width="50" height="50" relative="1" as="geometry">
            <mxPoint x="499" y="690" as="sourcePoint" />
            <mxPoint x="549" y="640" as="targetPoint" />
          </mxGeometry>
        </mxCell>
        <mxCell id="eP6nw5wjm52sRNoZTNny-59" value="+" style="text;html=1;align=center;verticalAlign=middle;whiteSpace=wrap;rounded=0;" vertex="1" parent="1">
          <mxGeometry x="552" y="714" width="15" height="15" as="geometry" />
        </mxCell>
        <mxCell id="eP6nw5wjm52sRNoZTNny-60" value="+" style="text;html=1;align=center;verticalAlign=middle;whiteSpace=wrap;rounded=0;" vertex="1" parent="1">
          <mxGeometry x="521" y="728" width="15" height="15" as="geometry" />
        </mxCell>
        <mxCell id="eP6nw5wjm52sRNoZTNny-61" value="+" style="text;html=1;align=center;verticalAlign=middle;whiteSpace=wrap;rounded=0;" vertex="1" parent="1">
          <mxGeometry x="336" y="728" width="15" height="15" as="geometry" />
        </mxCell>
        <mxCell id="eP6nw5wjm52sRNoZTNny-62" value="" style="group" vertex="1" connectable="0" parent="1">
          <mxGeometry x="629" y="725" width="40" height="40" as="geometry" />
        </mxCell>
        <mxCell id="eP6nw5wjm52sRNoZTNny-63" value="" style="whiteSpace=wrap;html=1;aspect=fixed;fillColor=default;" vertex="1" parent="eP6nw5wjm52sRNoZTNny-62">
          <mxGeometry width="40" height="40" as="geometry" />
        </mxCell>
        <mxCell id="eP6nw5wjm52sRNoZTNny-64" value="" style="endArrow=none;html=1;rounded=0;" edge="1" parent="eP6nw5wjm52sRNoZTNny-62">
          <mxGeometry width="50" height="50" relative="1" as="geometry">
            <mxPoint x="20" y="35" as="sourcePoint" />
            <mxPoint x="20" y="5" as="targetPoint" />
          </mxGeometry>
        </mxCell>
        <mxCell id="eP6nw5wjm52sRNoZTNny-65" value="" style="endArrow=none;html=1;rounded=0;" edge="1" parent="eP6nw5wjm52sRNoZTNny-62">
          <mxGeometry width="50" height="50" relative="1" as="geometry">
            <mxPoint x="35" y="20" as="sourcePoint" />
            <mxPoint x="5" y="20" as="targetPoint" />
          </mxGeometry>
        </mxCell>
        <mxCell id="eP6nw5wjm52sRNoZTNny-66" value="" style="endArrow=none;html=1;rounded=0;strokeWidth=2;jumpStyle=none;" edge="1" parent="eP6nw5wjm52sRNoZTNny-62">
          <mxGeometry width="50" height="50" relative="1" as="geometry">
            <mxPoint x="10" y="30" as="sourcePoint" />
            <mxPoint x="30" y="10" as="targetPoint" />
          </mxGeometry>
        </mxCell>
        <mxCell id="eP6nw5wjm52sRNoZTNny-67" value="" style="endArrow=none;html=1;rounded=0;strokeWidth=2;exitX=0.875;exitY=0.25;exitDx=0;exitDy=0;exitPerimeter=0;" edge="1" parent="eP6nw5wjm52sRNoZTNny-62" source="eP6nw5wjm52sRNoZTNny-63">
          <mxGeometry width="50" height="50" relative="1" as="geometry">
            <mxPoint x="34" y="10" as="sourcePoint" />
            <mxPoint x="29" y="10" as="targetPoint" />
          </mxGeometry>
        </mxCell>
        <mxCell id="eP6nw5wjm52sRNoZTNny-68" value="" style="endArrow=none;html=1;rounded=0;strokeWidth=2;exitX=0.125;exitY=0.75;exitDx=0;exitDy=0;exitPerimeter=0;" edge="1" parent="eP6nw5wjm52sRNoZTNny-62" source="eP6nw5wjm52sRNoZTNny-63">
          <mxGeometry width="50" height="50" relative="1" as="geometry">
            <mxPoint x="6" y="30" as="sourcePoint" />
            <mxPoint x="11" y="30" as="targetPoint" />
          </mxGeometry>
        </mxCell>
        <mxCell id="eP6nw5wjm52sRNoZTNny-69" value="" style="endArrow=classic;html=1;rounded=0;entryX=0;entryY=0.5;entryDx=0;entryDy=0;exitX=1;exitY=0.5;exitDx=0;exitDy=0;" edge="1" parent="1" source="eP6nw5wjm52sRNoZTNny-39" target="eP6nw5wjm52sRNoZTNny-63">
          <mxGeometry width="50" height="50" relative="1" as="geometry">
            <mxPoint x="549" y="840" as="sourcePoint" />
            <mxPoint x="599" y="790" as="targetPoint" />
          </mxGeometry>
        </mxCell>
        <mxCell id="eP6nw5wjm52sRNoZTNny-70" value="" style="ellipse;whiteSpace=wrap;html=1;aspect=fixed;" vertex="1" parent="1">
          <mxGeometry x="587" y="795" width="22.5" height="22.5" as="geometry" />
        </mxCell>
        <mxCell id="eP6nw5wjm52sRNoZTNny-71" value="" style="endArrow=classic;html=1;rounded=0;entryX=0.5;entryY=0;entryDx=0;entryDy=0;startArrow=oval;startFill=1;" edge="1" parent="1" target="eP6nw5wjm52sRNoZTNny-70">
          <mxGeometry width="50" height="50" relative="1" as="geometry">
            <mxPoint x="598" y="745" as="sourcePoint" />
            <mxPoint x="629" y="805" as="targetPoint" />
          </mxGeometry>
        </mxCell>
        <mxCell id="eP6nw5wjm52sRNoZTNny-72" value="+" style="text;html=1;align=center;verticalAlign=middle;whiteSpace=wrap;rounded=0;" vertex="1" parent="1">
          <mxGeometry x="599" y="776" width="15" height="15" as="geometry" />
        </mxCell>
        <mxCell id="eP6nw5wjm52sRNoZTNny-73" value="" style="endArrow=classic;html=1;rounded=0;exitX=1;exitY=0.5;exitDx=0;exitDy=0;entryX=0;entryY=0.5;entryDx=0;entryDy=0;" edge="1" parent="1" source="eP6nw5wjm52sRNoZTNny-63" target="eP6nw5wjm52sRNoZTNny-74">
          <mxGeometry width="50" height="50" relative="1" as="geometry">
            <mxPoint x="689" y="770" as="sourcePoint" />
            <mxPoint x="709" y="745" as="targetPoint" />
          </mxGeometry>
        </mxCell>
        <mxCell id="eP6nw5wjm52sRNoZTNny-74" value="Out" style="text;html=1;align=left;verticalAlign=middle;whiteSpace=wrap;rounded=0;fontFamily=Verdana;fontStyle=3" vertex="1" parent="1">
          <mxGeometry x="729" y="730" width="60" height="30" as="geometry" />
        </mxCell>
        <mxCell id="eP6nw5wjm52sRNoZTNny-75" value="" style="endArrow=classic;html=1;rounded=0;entryX=1;entryY=0.5;entryDx=0;entryDy=0;edgeStyle=orthogonalEdgeStyle;startArrow=oval;startFill=1;" edge="1" parent="1" target="eP6nw5wjm52sRNoZTNny-70">
          <mxGeometry width="50" height="50" relative="1" as="geometry">
            <mxPoint x="700" y="745" as="sourcePoint" />
            <mxPoint x="675" y="825" as="targetPoint" />
            <Array as="points">
              <mxPoint x="700" y="806" />
            </Array>
          </mxGeometry>
        </mxCell>
        <mxCell id="eP6nw5wjm52sRNoZTNny-76" value="-" style="text;html=1;align=center;verticalAlign=middle;whiteSpace=wrap;rounded=0;" vertex="1" parent="1">
          <mxGeometry x="615" y="806" width="15" height="15" as="geometry" />
        </mxCell>
        <mxCell id="eP6nw5wjm52sRNoZTNny-77" value="" style="endArrow=classic;html=1;rounded=0;entryX=0.5;entryY=1;entryDx=0;entryDy=0;exitX=0;exitY=0.5;exitDx=0;exitDy=0;edgeStyle=orthogonalEdgeStyle;" edge="1" parent="1" source="eP6nw5wjm52sRNoZTNny-78" target="eP6nw5wjm52sRNoZTNny-54">
          <mxGeometry width="50" height="50" relative="1" as="geometry">
            <mxPoint x="425" y="810" as="sourcePoint" />
            <mxPoint x="490" y="820" as="targetPoint" />
          </mxGeometry>
        </mxCell>
        <mxCell id="eP6nw5wjm52sRNoZTNny-78" value="Ki" style="whiteSpace=wrap;html=1;aspect=fixed;fontFamily=Helvetica;fontStyle=2" vertex="1" parent="1">
          <mxGeometry x="469" y="786.25" width="40" height="40" as="geometry" />
        </mxCell>
        <mxCell id="eP6nw5wjm52sRNoZTNny-79" value="-" style="text;html=1;align=center;verticalAlign=middle;whiteSpace=wrap;rounded=0;" vertex="1" parent="1">
          <mxGeometry x="363" y="758" width="15" height="15" as="geometry" />
        </mxCell>
        <mxCell id="eP6nw5wjm52sRNoZTNny-80" value="" style="endArrow=classic;html=1;rounded=0;entryX=1;entryY=0.5;entryDx=0;entryDy=0;exitX=0;exitY=0.5;exitDx=0;exitDy=0;" edge="1" parent="1" source="eP6nw5wjm52sRNoZTNny-70" target="eP6nw5wjm52sRNoZTNny-78">
          <mxGeometry width="50" height="50" relative="1" as="geometry">
            <mxPoint x="495" y="890" as="sourcePoint" />
            <mxPoint x="545" y="840" as="targetPoint" />
          </mxGeometry>
        </mxCell>
        <mxCell id="eP6nw5wjm52sRNoZTNny-81" value="LPF" style="whiteSpace=wrap;html=1;aspect=fixed;fontFamily=Helvetica;fontStyle=2" vertex="1" parent="1">
          <mxGeometry x="200" y="840" width="40" height="40" as="geometry" />
        </mxCell>
        <mxCell id="eP6nw5wjm52sRNoZTNny-82" value="" style="endArrow=classic;html=1;rounded=0;entryX=0;entryY=0.5;entryDx=0;entryDy=0;edgeStyle=orthogonalEdgeStyle;startArrow=oval;startFill=1;" edge="1" parent="1" target="eP6nw5wjm52sRNoZTNny-81">
          <mxGeometry width="50" height="50" relative="1" as="geometry">
            <mxPoint x="160" y="710" as="sourcePoint" />
            <mxPoint x="200" y="770" as="targetPoint" />
            <Array as="points">
              <mxPoint x="160" y="860" />
            </Array>
          </mxGeometry>
        </mxCell>
        <mxCell id="eP6nw5wjm52sRNoZTNny-83" value="P part" style="text;html=1;align=center;verticalAlign=middle;whiteSpace=wrap;rounded=0;fontFamily=Verdana;fontStyle=2" vertex="1" parent="1">
          <mxGeometry x="328" y="660" width="45" height="15" as="geometry" />
        </mxCell>
        <mxCell id="eP6nw5wjm52sRNoZTNny-84" value="I part" style="text;html=1;align=center;verticalAlign=middle;whiteSpace=wrap;rounded=0;fontFamily=Verdana;fontStyle=2" vertex="1" parent="1">
          <mxGeometry x="452.5" y="730" width="45" height="15" as="geometry" />
        </mxCell>
        <mxCell id="eP6nw5wjm52sRNoZTNny-85" value="d/dt" style="whiteSpace=wrap;html=1;aspect=fixed;fontFamily=Helvetica;fontStyle=2" vertex="1" parent="1">
          <mxGeometry x="540" y="440" width="40" height="40" as="geometry" />
        </mxCell>
        <mxCell id="eP6nw5wjm52sRNoZTNny-86" value="d/dt" style="whiteSpace=wrap;html=1;aspect=fixed;fontFamily=Helvetica;fontStyle=2" vertex="1" parent="1">
          <mxGeometry x="260.5" y="840" width="40" height="40" as="geometry" />
        </mxCell>
        <mxCell id="eP6nw5wjm52sRNoZTNny-87" value="" style="endArrow=classic;html=1;rounded=0;entryX=0;entryY=0.5;entryDx=0;entryDy=0;exitX=1;exitY=0.5;exitDx=0;exitDy=0;" edge="1" parent="1" source="eP6nw5wjm52sRNoZTNny-81" target="eP6nw5wjm52sRNoZTNny-86">
          <mxGeometry width="50" height="50" relative="1" as="geometry">
            <mxPoint x="235" y="845" as="sourcePoint" />
            <mxPoint x="285" y="795" as="targetPoint" />
          </mxGeometry>
        </mxCell>
        <mxCell id="eP6nw5wjm52sRNoZTNny-88" value="Kd" style="whiteSpace=wrap;html=1;aspect=fixed;fontFamily=Helvetica;fontStyle=2" vertex="1" parent="1">
          <mxGeometry x="320" y="840" width="40" height="40" as="geometry" />
        </mxCell>
        <mxCell id="eP6nw5wjm52sRNoZTNny-89" value="" style="endArrow=classic;html=1;rounded=0;entryX=0;entryY=0.5;entryDx=0;entryDy=0;exitX=1;exitY=0.5;exitDx=0;exitDy=0;" edge="1" parent="1" source="eP6nw5wjm52sRNoZTNny-86" target="eP6nw5wjm52sRNoZTNny-88">
          <mxGeometry width="50" height="50" relative="1" as="geometry">
            <mxPoint x="230" y="955" as="sourcePoint" />
            <mxPoint x="280" y="905" as="targetPoint" />
          </mxGeometry>
        </mxCell>
        <mxCell id="eP6nw5wjm52sRNoZTNny-90" value="" style="endArrow=classic;html=1;rounded=0;entryX=0.5;entryY=1;entryDx=0;entryDy=0;exitX=1;exitY=0.5;exitDx=0;exitDy=0;edgeStyle=orthogonalEdgeStyle;jumpStyle=arc;" edge="1" parent="1" source="eP6nw5wjm52sRNoZTNny-88" target="eP6nw5wjm52sRNoZTNny-39">
          <mxGeometry width="50" height="50" relative="1" as="geometry">
            <mxPoint x="385" y="915" as="sourcePoint" />
            <mxPoint x="435" y="865" as="targetPoint" />
          </mxGeometry>
        </mxCell>
        <mxCell id="eP6nw5wjm52sRNoZTNny-91" value="D part" style="text;html=1;align=center;verticalAlign=middle;whiteSpace=wrap;rounded=0;fontFamily=Verdana;fontStyle=2" vertex="1" parent="1">
          <mxGeometry x="378" y="845" width="45" height="15" as="geometry" />
        </mxCell>
        <mxCell id="eP6nw5wjm52sRNoZTNny-92" value="-" style="text;html=1;align=center;verticalAlign=middle;whiteSpace=wrap;rounded=0;" vertex="1" parent="1">
          <mxGeometry x="550.5" y="759" width="15" height="15" as="geometry" />
        </mxCell>
        <mxCell id="eP6nw5wjm52sRNoZTNny-93" value="Doing d/dt on actual value prevents derivative kicks" style="text;html=1;align=center;verticalAlign=middle;whiteSpace=wrap;rounded=0;" vertex="1" parent="1">
          <mxGeometry x="65" y="950" width="290" height="85" as="geometry" />
        </mxCell>
        <mxCell id="eP6nw5wjm52sRNoZTNny-95" value="" style="endArrow=classic;html=1;rounded=0;dashed=1;exitX=0.5;exitY=1;exitDx=0;exitDy=0;entryX=0.25;entryY=0;entryDx=0;entryDy=0;" edge="1" parent="1" source="eP6nw5wjm52sRNoZTNny-96" target="eP6nw5wjm52sRNoZTNny-63">
          <mxGeometry width="50" height="50" relative="1" as="geometry">
            <mxPoint x="640" y="700" as="sourcePoint" />
            <mxPoint x="625" y="715" as="targetPoint" />
          </mxGeometry>
        </mxCell>
        <mxCell id="eP6nw5wjm52sRNoZTNny-96" value="min" style="text;html=1;align=center;verticalAlign=middle;whiteSpace=wrap;rounded=0;fontFamily=Verdana;fontStyle=2" vertex="1" parent="1">
          <mxGeometry x="617" y="681" width="45" height="15" as="geometry" />
        </mxCell>
        <mxCell id="eP6nw5wjm52sRNoZTNny-97" value="max" style="text;html=1;align=center;verticalAlign=middle;whiteSpace=wrap;rounded=0;fontFamily=Verdana;fontStyle=2" vertex="1" parent="1">
          <mxGeometry x="637" y="664" width="45" height="15" as="geometry" />
        </mxCell>
        <mxCell id="eP6nw5wjm52sRNoZTNny-98" value="" style="endArrow=classic;html=1;rounded=0;dashed=1;exitX=0.5;exitY=1;exitDx=0;exitDy=0;entryX=0.75;entryY=0;entryDx=0;entryDy=0;" edge="1" parent="1" source="eP6nw5wjm52sRNoZTNny-97" target="eP6nw5wjm52sRNoZTNny-63">
          <mxGeometry width="50" height="50" relative="1" as="geometry">
            <mxPoint x="671" y="710" as="sourcePoint" />
            <mxPoint x="670" y="739" as="targetPoint" />
          </mxGeometry>
        </mxCell>
        <mxCell id="eP6nw5wjm52sRNoZTNny-100" value="fc" style="text;html=1;align=center;verticalAlign=middle;whiteSpace=wrap;rounded=0;fontFamily=Verdana;fontStyle=2" vertex="1" parent="1">
          <mxGeometry x="197.5" y="900" width="45" height="15" as="geometry" />
        </mxCell>
        <mxCell id="eP6nw5wjm52sRNoZTNny-101" value="" style="endArrow=classic;html=1;rounded=0;dashed=1;entryX=0.5;entryY=1;entryDx=0;entryDy=0;" edge="1" parent="1" source="eP6nw5wjm52sRNoZTNny-100" target="eP6nw5wjm52sRNoZTNny-81">
          <mxGeometry width="50" height="50" relative="1" as="geometry">
            <mxPoint x="266" y="904" as="sourcePoint" />
            <mxPoint x="265" y="950" as="targetPoint" />
          </mxGeometry>
        </mxCell>
        <mxCell id="eP6nw5wjm52sRNoZTNny-103" value="OLD" style="text;html=1;align=center;verticalAlign=middle;whiteSpace=wrap;rounded=0;fillColor=#FFFF66;" vertex="1" parent="1">
          <mxGeometry x="123" y="150" width="464" height="30" as="geometry" />
        </mxCell>
      </root>
    </mxGraphModel>
  </diagram>
</mxfile>
